<svg width="1046" height="140" viewBox="0 0 1046 140" fill="none" xmlns="http://www.w3.org/2000/svg">
<g clip-path="url(#clip0_22005_30)">
<g clip-path="url(#clip1_22005_30)">
<g clip-path="url(#clip2_22005_30)">
<path d="M1034.33 29.4965L1026.1 26.7446M1034.33 29.4965H1009.96M1034.33 29.4965L1042.82 32.34M1034.33 29.4965H1051.58M1026.1 26.7446L1029.1 26.7453L1032.06 26.7511L1034.96 26.7685L1037.76 26.8012L1040.45 26.8549L1042.99 26.9347L1045.34 27.0473L1047.53 27.1903L1049.41 27.3877L1051.11 27.6164L1051.58 27.6962V29.4965M1026.1 26.7446H1002.13M1009.96 29.4965L1002.13 26.7446M1009.96 29.4965H985.598M1009.96 29.4965L1011.96 30.1985L1018.05 32.3407M1042.82 32.34L1018.05 32.3407M1042.82 32.34L1051.58 35.2727M1042.82 32.34H1051.58M1051.58 29.4965V32.34M1002.13 26.7446H978.157M978.157 26.7446H954.187M978.157 26.7446L985.598 29.4965M954.187 26.7446H930.21M954.187 26.7446L961.236 29.4965M985.598 29.4965H961.236M985.598 29.4965L993.286 32.3407M930.21 26.7446H906.24M930.21 26.7446L936.867 29.4965M961.236 29.4965H936.867M961.236 29.4965L968.517 32.34M906.24 26.7446H882.27M906.24 26.7446L912.504 29.4965M936.867 29.4965H912.504M936.867 29.4965L943.748 32.34M882.27 26.7446H858.292M882.27 26.7446L888.142 29.4965M912.504 29.4965H888.142M912.504 29.4965L914.101 30.1992L914.907 30.552L918.98 32.3407M858.292 26.7446H834.322M858.292 26.7446L863.773 29.4965M888.142 29.4965H863.773M888.142 29.4965L889.638 30.1992L894.204 32.3407H918.98M834.322 26.7446H810.345M834.322 26.7446L839.411 29.4965M863.773 29.4965H839.411M863.773 29.4965L869.435 32.34M810.345 26.7446H786.375M810.345 26.7446L815.042 29.4965M839.411 29.4965H815.042M839.411 29.4965L840.71 30.1985L841.364 30.5513L844.667 32.34M786.375 26.7446H762.397M786.375 26.7446L790.679 29.4965M815.042 29.4965H790.679M815.042 29.4965L819.898 32.34M762.397 26.7446H738.427M762.397 26.7446L766.317 29.4965M790.679 29.4965H766.317M790.679 29.4965L791.776 30.1992L792.335 30.552L795.129 32.3407M738.427 26.7446H714.454M738.427 26.7446L739.298 27.4247L740.612 28.4534L741.948 29.4965M766.317 29.4965H741.948M766.317 29.4965L766.811 29.8464L767.312 30.1985L770.361 32.34M714.454 26.7446H690.481M714.454 26.7446L715.227 27.4247L717.585 29.4965M741.948 29.4965H717.585M741.948 29.4965L742.848 30.1985L743.298 30.5513L745.592 32.34M690.481 26.7446H666.507M690.481 26.7446L693.221 29.4965M717.585 29.4965H693.221M717.585 29.4965L720.821 32.34M666.507 26.7446H642.534M666.507 26.7446L667.379 27.7659L668.262 28.7997L668.558 29.1481L668.857 29.4965M693.221 29.4965H668.857M693.221 29.4965L693.57 29.8472L693.92 30.1992L694.272 30.552L696.053 32.3407M642.534 26.7446H618.56M642.534 26.7446L643.26 27.7659L643.504 28.1093L643.75 28.4534L644.492 29.4965M668.857 29.4965H644.492M668.857 29.4965L669.455 30.1985L669.757 30.5513L670.059 30.907L671.283 32.34M618.56 26.7446H594.587M618.56 26.7446L620.127 29.4965M644.492 29.4965H620.127M644.492 29.4965L644.99 30.1985L646.002 31.6199L646.257 31.9792L646.514 32.34M594.587 26.7446L594.732 27.0836L594.877 27.4247L595.613 29.1481L595.762 29.4965M594.587 26.7446H570.614M620.127 29.4965H595.762M620.127 29.4965L620.326 29.8472L620.526 30.1992L620.727 30.552L621.744 32.3407M595.762 29.4965H571.397M595.762 29.4965L596.975 32.3407M570.614 26.7446H546.64M570.614 26.7446L571.397 29.4965M546.64 26.7446H522.667M546.64 26.7446L546.786 27.7659L547.032 29.4965M571.397 29.4965H547.032M571.397 29.4965L571.497 29.8464L571.596 30.1985L571.697 30.5513L572.206 32.34M522.667 26.7446H498.694M522.667 26.7446V29.4965M547.032 29.4965H522.667M547.032 29.4965L547.437 32.34M498.694 26.7446H474.721M498.694 26.7446L498.549 27.7659L498.302 29.4965M522.667 29.4965H498.302M522.667 29.4965V32.3407M474.721 26.7446H450.748M474.721 26.7446L473.938 29.4965M498.302 29.4965H473.938M498.302 29.4965L497.898 32.34M450.748 26.7446L450.602 27.0836L450.458 27.4247L449.722 29.1481L449.573 29.4965M450.748 26.7446H426.775M473.938 29.4965H449.573M473.938 29.4965L473.838 29.8464L473.738 30.1985L473.637 30.5513L473.333 31.6199L473.129 32.34M449.573 29.4965H425.208M449.573 29.4965L448.36 32.34M426.775 26.7446H402.801M426.775 26.7446L425.407 29.1474L425.208 29.4965M402.801 26.7446H378.828M402.801 26.7446L402.074 27.7659L401.83 28.1093L401.339 28.7997L401.091 29.1481L400.843 29.4965M425.208 29.4965H400.843M425.208 29.4965L425.008 29.8472L424.809 30.1992L424.608 30.552L423.59 32.34M378.828 26.7446H354.854M378.828 26.7446L377.956 27.7659L377.072 28.7997L376.776 29.1481L376.478 29.4965M400.843 29.4965H376.478M400.843 29.4965L400.344 30.1992L399.332 31.6206L398.821 32.3407M354.854 26.7446H330.881M354.854 26.7446L352.114 29.4965M376.478 29.4965H352.114M376.478 29.4965L375.879 30.1985L375.578 30.5513L375.275 30.907L374.051 32.34M330.881 26.7446H306.907M330.881 26.7446L330.108 27.4247L327.749 29.4965M352.114 29.4965L351.765 29.8464L349.282 32.34M352.114 29.4965H327.749M306.907 26.7446H282.934M306.907 26.7446L303.384 29.4965M327.749 29.4965H303.384M327.749 29.4965L327.35 29.8472L324.513 32.34M282.934 26.7446H258.961M282.934 26.7446L279.019 29.4965M303.384 29.4965H279.019M303.384 29.4965L302.485 30.1992L302.033 30.552L299.744 32.34M258.961 26.7446H234.988M258.961 26.7446L254.654 29.4965M279.019 29.4965H254.654M279.019 29.4965L278.521 29.8464L278.021 30.1985L274.975 32.34M234.988 26.7446H211.015M234.988 26.7446L230.29 29.4965M254.654 29.4965H230.29M254.654 29.4965L253.556 30.1985L253.003 30.5513L250.204 32.34M211.015 26.7446H187.042M211.015 26.7446L205.925 29.4965M230.29 29.4965H205.925M230.29 29.4965L229.691 29.8472L225.435 32.34M187.042 26.7446H163.069M187.042 26.7446L181.56 29.4965M205.925 29.4965H181.56M205.925 29.4965L204.626 30.1992L203.973 30.552L200.666 32.3407M163.069 26.7446H139.095M163.069 26.7446L157.195 29.4965M181.56 29.4965H157.195M181.56 29.4965L175.897 32.34M139.095 26.7446H115.122M139.095 26.7446L132.831 29.4965M157.195 29.4965H132.831M157.195 29.4965L155.698 30.1985L151.128 32.34M115.122 26.7446H91.1488M115.122 26.7446L108.466 29.4965M132.831 29.4965H108.466M132.831 29.4965L131.233 30.1992L130.428 30.552L126.358 32.3407M91.1488 26.7446H67.1751M91.1488 26.7446L84.1008 29.4965M108.466 29.4965H84.1008M108.466 29.4965L101.589 32.3407M67.1751 26.7446H43.2021M67.1751 26.7446L59.7365 29.4965M84.1008 29.4965H59.7365M84.1008 29.4965L76.8198 32.34M43.2021 26.7446H19.2284M43.2021 26.7446L35.3715 29.4965M59.7365 29.4965H35.3715M59.7365 29.4965L52.0504 32.34M19.2284 26.7446L16.2375 26.7453L13.2758 26.7511L10.3771 26.7685L7.56925 26.8012L4.8826 26.8549L2.34621 26.9347L-0.00869557 27.0473L-2.19519 27.1903L-4.07098 27.3877L-5.77909 27.6164L-6.24876 27.6962V29.4965M19.2284 26.7446L11.0065 29.4965M35.3715 29.4965H11.0065M35.3715 29.4965L33.3738 30.1985L27.2803 32.34M-6.24876 29.4965H11.0065M-6.24876 29.4965V32.34M52.0504 32.34H76.8198M52.0504 32.34H27.2803M76.8198 32.34L69.2919 35.2793M76.8198 32.34L101.589 32.3407M151.128 32.34H175.897M151.128 32.34L126.358 32.3407M175.897 32.34L200.666 32.3407M250.204 32.34L245.605 35.2793M250.204 32.34H274.975M250.204 32.34H225.435M274.975 32.34L272.377 34.1657L270.792 35.2793M274.975 32.34H299.744M349.282 32.34L346.355 35.2793M349.282 32.34H374.051M349.282 32.34H324.513M374.051 32.34L372.493 34.1657L371.542 35.2793M374.051 32.34L398.821 32.3407M448.36 32.34L448.049 33.0652L447.58 34.1657L447.264 34.9061L447.105 35.2793M448.36 32.34H473.129M448.36 32.34H423.59M473.129 32.34L472.818 33.4303L472.398 34.9061L472.292 35.2793M473.129 32.34H497.898M547.437 32.34L547.488 32.7022L547.54 33.0652L547.592 33.4303L547.644 33.7969L547.697 34.1657L547.855 35.2793M547.437 32.34H572.206M547.437 32.34L522.667 32.3407M572.206 32.34L572.517 33.4303L572.936 34.9061L573.042 35.2793M572.206 32.34L596.975 32.3407M646.514 32.34L647.03 33.0652L648.605 35.2793M646.514 32.34H671.283M646.514 32.34L621.744 32.3407M671.283 32.34L672.841 34.1657L673.792 35.2793M671.283 32.34L696.053 32.3407M745.592 32.34L748.881 34.9061L749.352 35.2793M745.592 32.34H770.361M745.592 32.34H720.821M770.361 32.34L772.96 34.1657L774.542 35.2793M770.361 32.34L795.129 32.3407M844.667 32.34L850.104 35.2793M844.667 32.34H869.435M844.667 32.34H819.898M869.435 32.34L875.293 35.2793M869.435 32.34L894.204 32.3393L900.476 35.2793M943.748 32.34L950.855 35.2793M943.748 32.34L918.98 32.3407M943.748 32.34H968.517M968.517 32.34L976.045 35.2793M968.517 32.34L993.286 32.3407M-6.3337 55.2343H-6.24876M-6.24876 55.2343H18.1896M-6.24876 55.2343V59.0062M-6.24876 55.2343V53.9066M18.1896 55.2343L27.4916 51.6025M18.1896 55.2343L8.53111 59.0062M18.1896 55.2343H46.2161M27.4916 51.6025L36.4568 48.1013M27.4916 51.6025H55.0006M8.53111 59.0062L-1.50483 62.9247M8.53111 59.0062H37.0941M8.53111 59.0062H-6.24876M46.2161 55.2343L55.0013 51.6032M46.2161 55.2343L37.0941 59.0062M46.2161 55.2343H74.2427M27.4923 51.6025H-0.0181323M-0.0181323 51.6025L9.44505 48.1013M-0.0181323 51.6025H-6.24876M-0.0181323 51.6025L-6.24876 53.9066M-6.24876 51.6025V53.9066M-6.24876 51.6025V48.102M27.3805 41.4649H53.4485M27.3805 41.4649L35.8862 38.3187M27.3805 41.4649H1.31394M53.4485 41.4649L61.5071 38.3187M53.4485 41.4649L45.1048 44.7243M53.4485 41.4649H79.5173M35.8862 38.3187H61.5071M35.8862 38.3187L44.1059 35.2785M35.8862 38.3187H10.2661M1.31394 41.4649L10.2668 38.3195M1.31394 41.4649H-6.24876M1.31394 41.4649L-6.24876 44.1225M27.382 41.4649L18.5736 44.7243H45.104M61.5071 38.3187H87.1265M61.5071 38.3187L69.2926 35.2785M44.1059 35.2785L69.2919 35.2793M44.1059 35.2785L52.0504 32.3385M10.2661 38.3187L18.9177 35.2785M10.2661 38.3187H-6.24876M87.1265 38.3187L79.5166 41.4656M87.1265 38.3187L112.747 38.3195M87.1265 38.3187L94.4794 35.2793M-6.51663 112.568H-6.24804M-6.24804 112.568H16.0974M-6.24804 112.568L-6.24876 106.546M-6.24804 112.568L-6.24876 118.89M16.0974 112.568L28.0927 106.546M16.0974 112.568L3.50624 118.89M16.0974 112.568H52.2813M28.0927 106.546L39.534 100.802M28.0927 106.546H63.4199M28.0927 106.546H-6.24876M3.50624 118.89H40.5895M3.50624 118.89H-6.24876M3.50624 118.89L-6.24876 123.787M52.2813 112.568L63.4199 106.546M52.2813 112.568L40.5895 118.89M52.2813 112.568H88.4651M39.534 100.802H5.02415M39.534 100.802L50.4563 95.3185M39.534 100.802H74.0431M63.4199 106.546L74.0431 100.802M63.4199 106.546H98.7471M-6.24876 106.546V106.085M5.02415 100.802L16.7275 95.3185M5.02415 100.802H-6.24876M5.02415 100.802L-6.24876 106.085M16.7275 95.3185L27.9134 90.0766M16.7275 95.3185H50.4563M16.7275 95.3185H-6.24804M-6.24876 100.802V106.085M-6.24876 100.802L-6.24804 95.3185M27.9134 90.0766H60.8966M27.9134 90.0766L38.6142 85.0619M27.9134 90.0766H-5.07058M60.8966 90.0766L70.8853 85.0619M60.8966 90.0766L50.4563 95.3185M60.8966 90.0766H93.8805M38.6142 85.0619H70.8853M38.6142 85.0619H6.34462M38.6142 85.0619L48.8636 80.2599M-5.07058 90.0766L6.34462 85.0619M-5.07058 90.0766H-6.24876M-5.07058 90.0766L-6.24876 90.5942M70.8853 85.0619L80.4501 80.2599M70.8853 85.0619H103.154M50.4563 95.3185H84.1857M93.8805 90.0766L103.154 85.0619M93.8805 90.0766L84.1857 95.3185M93.8805 90.0766H126.864M6.34462 85.0619L17.2763 80.2599M6.34462 85.0619H-6.24876M48.8636 80.2599H80.4501M48.8636 80.2599H17.2763M48.8636 80.2599L58.6868 75.6568M80.4501 80.2599L89.6193 75.6568M80.4501 80.2599H112.037M103.154 85.0619L112.037 80.2599M103.154 85.0619H135.425M68.1108 71.2402H98.4146M68.1108 71.2402L77.1602 67.0001M68.1108 71.2402H37.8077M77.1602 67.0001H106.862M77.1602 67.0001H47.4604M77.1602 67.0001L85.8576 62.9247M37.8077 71.2402H7.50537M37.8077 71.2402L47.4604 67.0001M37.8077 71.2402L27.7558 75.6568M68.1115 71.2402L58.6868 75.6568M58.6868 75.6568H89.6193M58.6868 75.6568H27.7558M98.4154 71.2402L106.862 67.0001M98.4154 71.2402L89.6193 75.6568M98.4154 71.2402H128.719M106.862 67.0001L114.978 62.9247M106.862 67.0001H136.562M89.6193 75.6568H120.551M128.719 71.2402L136.562 67.0001M128.719 71.2402L120.551 75.6568M128.719 71.2402H159.023M47.4604 67.0001H17.7613M47.4604 67.0001L56.7363 62.9247M85.8576 62.9247H114.978M85.8576 62.9247H56.7363M85.8576 62.9247L94.2202 59.0062M114.978 62.9247L122.783 59.0062M114.978 62.9247H144.099M136.562 67.0001L144.099 62.9247M136.562 67.0001H166.263M102.269 55.2343H130.296M102.269 55.2343L110.021 51.6025M102.269 55.2343H74.2427M102.269 55.2343L94.2202 59.0062M130.296 55.2343L137.53 51.6025M130.296 55.2343L122.783 59.0062M130.296 55.2343H158.322M110.021 51.6025H137.53M110.021 51.6025H82.511M110.021 51.6025L117.493 48.1013M74.2427 55.2343L82.511 51.6025M74.2427 55.2343L65.6572 59.0055L94.2202 59.0062M94.2202 59.0062H122.783M137.53 51.6025L144.504 48.1013M137.53 51.6025H165.04M122.783 59.0062H151.346M158.322 55.2343L165.04 51.6025M158.322 55.2343L151.346 59.0062M158.322 55.2343H186.348M82.511 51.6025L55.0013 51.6032M82.511 51.6025L90.481 48.1013M117.493 48.1013H144.504M117.493 48.1013H90.481M117.493 48.1013L124.698 44.725M144.504 48.1013H171.515M165.04 51.6025L171.515 48.1013M165.04 51.6025H192.551M157.719 41.4664H131.651L138.367 38.3195M138.367 38.3195H163.986M138.367 38.3195L144.855 35.2793M138.367 38.3195H112.747M124.698 44.725L131.651 41.4656H105.584H79.5166M124.698 44.725L98.1664 44.7243M157.719 41.4656L163.986 38.3195M157.719 41.4656L151.229 44.725M157.719 41.4656H183.787M163.986 38.3195H189.607M163.986 38.3195L170.043 35.2793M144.855 35.2793H170.042M144.855 35.2793L151.127 32.3393M144.855 35.2793H119.666M112.747 38.3195L105.583 41.4656L98.1656 44.7243M112.747 38.3195L119.666 35.2793M12.2892 216.977L29.1721 205.11M12.2892 216.977L-5.78925 229.684M12.2892 216.977H63.327M12.2892 216.977H-6.24876M29.1721 205.11L44.9734 194.004M29.1721 205.11H78.5213M29.1721 205.11H-6.24876M-5.78925 229.684H47.056M-5.78925 229.684H-6.24876M-5.78925 229.684L-6.24876 230.006M63.327 216.977L78.5213 205.11M63.327 216.977L47.056 229.684M63.327 216.977H114.365M-6.24876 216.977V229.684M-6.24876 216.977V205.11M44.9734 194.004L59.7946 183.586M44.9734 194.004H92.743M44.9734 194.004H-2.79625L13.5073 183.586M78.5213 205.11L92.743 194.004M78.5213 205.11H127.871M-6.24876 205.11V196.21M28.8295 173.796H73.7237M28.8295 173.796L43.2558 164.577M28.8295 173.796L13.5073 183.586M28.8295 173.796H-6.24876M73.7237 173.796L86.8383 164.577M73.7237 173.796L59.7946 183.586M73.7237 173.796H118.618M43.2558 164.577H86.8383M43.2558 164.577H-0.326651M43.2558 164.577L56.864 155.882M13.5073 183.586H59.7946M13.5073 183.586H-6.24876M-6.24876 173.796V183.586M-6.24876 173.796V168.045M86.8383 164.577L99.2095 155.882M86.8383 164.577H130.421M59.7946 183.586H106.082M118.618 173.796L130.421 164.577M118.618 173.796L106.082 183.586M118.618 173.796H163.513M-0.326651 164.577L14.5178 155.882M-0.326651 164.577H-6.24876M-0.326651 164.577L-6.24876 168.045M56.864 155.882H99.2095M56.864 155.882H14.5178M56.864 155.882L69.7202 147.667M99.2095 155.882L110.897 147.667M99.2095 155.882H141.556M130.421 164.577L141.556 155.882M130.421 164.577H174.005M81.886 139.893H121.957M81.886 139.893L93.4159 132.526M81.886 139.893H41.8149M81.886 139.893L69.7202 147.667M121.957 139.893L132.439 132.526M121.957 139.893L110.897 147.667M121.957 139.893H162.028M93.4159 132.526H132.439M93.4159 132.526H54.393M93.4159 132.526L104.357 125.534M41.8149 139.893H1.74442M41.8149 139.893L54.393 132.526M41.8149 139.893L28.5435 147.667M69.7202 147.667H110.897M69.7202 147.667H28.5435M132.439 132.526L142.385 125.534M132.439 132.526H171.461M110.897 147.667H152.074M162.028 139.893L171.461 132.526M162.028 139.893L152.074 147.667M162.028 139.893H202.099M54.393 132.526H15.3693M54.393 132.526L66.3294 125.534M104.357 125.534H142.385M104.357 125.534H66.3294M104.357 125.534L114.755 118.89M142.385 125.534L151.838 118.89M142.385 125.534H180.414M171.461 132.526L180.414 125.534M171.461 132.526H210.484M124.648 112.568H160.832M124.648 112.568L134.074 106.546M124.648 112.568H88.4651M124.648 112.568L114.755 118.89M160.832 112.568L169.4 106.546M160.832 112.568L151.838 118.89M160.832 112.568H197.016M134.074 106.546H169.4M134.074 106.546H98.7471M134.074 106.546L143.062 100.802M88.4651 112.568L98.7471 106.546M88.4651 112.568L77.672 118.89M114.755 118.89H151.838M114.755 118.89H77.672M169.4 106.546L177.572 100.802M169.4 106.546H204.727M151.838 118.89H188.921M197.016 112.568L204.727 106.546M197.016 112.568L188.921 118.89M197.016 112.568H233.199M98.7471 106.546L108.553 100.802M143.062 100.802H177.572M143.062 100.802H108.553M143.062 100.802L151.645 95.3185M177.572 100.802L185.374 95.3185M177.572 100.802H212.082M204.727 106.546L212.082 100.802M204.727 106.546H240.053M159.848 90.0766H192.831M159.848 90.0766L167.696 85.0619M159.848 90.0766H126.864M159.848 90.0766L151.645 95.3185M192.831 90.0766L199.966 85.0619M192.831 90.0766L185.374 95.3185M192.831 90.0766H225.814M167.696 85.0619H199.966M167.696 85.0619H135.425M167.696 85.0619L175.211 80.2599M126.864 90.0766L135.425 85.0619M126.864 90.0766L117.915 95.3185M151.645 95.3185H185.374M151.645 95.3185H117.915M199.966 85.0619L206.798 80.2599M199.966 85.0619H232.236M185.374 95.3185H219.104M225.814 90.0766L232.236 85.0619M225.814 90.0766L219.104 95.3185M225.814 90.0766H258.799M135.425 85.0619L143.624 80.2599M175.211 80.2599H206.798M175.211 80.2599H143.624M175.211 80.2599L182.415 75.6568M206.798 80.2599L213.348 75.6568M206.798 80.2599H238.385M232.236 85.0619L238.385 80.2599M232.236 85.0619H264.506M189.326 71.2402H219.63M189.326 71.2402L195.962 67.0001M189.326 71.2402H159.023M189.326 71.2402L182.415 75.6568M219.63 71.2402L220.398 70.7009L225.663 67.0001M219.63 71.2402L213.348 75.6568M219.63 71.2402H249.934M195.962 67.0001H225.663M195.962 67.0001H166.263M195.962 67.0001L202.34 62.9247M159.023 71.2402L166.263 67.0001M159.023 71.2402L151.483 75.6568M182.415 75.6568H213.348M182.415 75.6568H151.483M225.663 67.0001L231.46 62.9247M225.663 67.0001H255.364M213.348 75.6568H244.279M249.934 71.2402L255.364 67.0001M249.934 71.2402L244.279 75.6568M249.934 71.2402H280.237M166.263 67.0001L173.219 62.9247M202.34 62.9247H231.46M202.34 62.9247H173.219M202.34 62.9247L208.472 59.0062M231.46 62.9247L236.351 59.4875L237.035 59.0062M231.46 62.9247H260.582M255.364 67.0001L260.582 62.9247M255.364 67.0001H285.064M214.375 55.2343H242.402M214.375 55.2343L220.06 51.6025M214.375 55.2343H186.348M214.375 55.2343L208.472 59.0062M242.402 55.2343L247.57 51.6025M242.402 55.2343L240.414 56.6324L237.035 59.0062M242.402 55.2343H270.429M220.06 51.6025H247.57M220.06 51.6025H192.551M220.06 51.6025L225.539 48.1013M186.348 55.2343L191.788 52.0482L192.551 51.6025M186.348 55.2343L179.909 59.0055M208.472 59.0062H237.035M208.472 59.0062L179.909 59.0055M247.57 51.6025L252.551 48.1013M247.57 51.6025H275.08M237.035 59.0062H265.598M270.429 55.2343L275.08 51.6025M270.429 55.2343L269.238 56.1635L265.598 59.0062M270.429 55.2343H298.455M192.551 51.6025L198.527 48.1013M225.539 48.1013H252.551M225.539 48.1013H198.527M225.539 48.1013L230.823 44.725M252.551 48.1013L257.354 44.725M252.551 48.1013H279.562M275.08 51.6025L279.562 48.1013M275.08 51.6025H302.59M261.99 41.4664H235.922L240.847 38.3195M240.847 38.3195H266.467M240.847 38.3195L245.605 35.2793M240.847 38.3195H215.226M209.855 41.4656H235.922L230.823 44.725M230.823 44.725H257.354M230.823 44.725L204.292 44.7243L198.527 48.1013M261.99 41.4656L265.363 39.0962L265.916 38.7064L266.467 38.3195M261.99 41.4656L257.354 44.725M261.99 41.4656H288.058M266.467 38.3195H292.087M266.467 38.3195L270.792 35.2793M257.354 44.725L283.885 44.7243M288.058 41.4656L292.087 38.3195M288.058 41.4656L283.885 44.7243M288.058 41.4656H314.126M245.605 35.2793H270.792M245.605 35.2793H220.417M215.226 38.3195H189.606M215.226 38.3195L209.855 41.4656M215.226 38.3195L220.417 35.2793M292.087 38.3195H317.707M292.087 38.3195L295.98 35.2793M270.792 35.2793H295.98M30.7815 352.152H101.051M30.7815 352.152L52.9077 329.935M30.7815 352.152L6.4673 376.567M30.7815 352.152L-6.24804 352.153M101.051 352.152L120.016 329.935M101.051 352.152L80.2106 376.567M101.051 352.152H171.32M52.9077 329.935H120.016M52.9077 329.935L73.1292 309.63M52.9077 329.935H-6.24804M6.4673 376.567H80.2106M6.4673 376.567L-6.24804 389.336M6.4673 376.567H-6.24876M-6.24804 352.153L-6.24876 376.567M-6.24804 352.153V329.935M120.016 329.935L137.349 309.63M120.016 329.935H187.125M80.2106 376.567L57.2023 403.519M80.2106 376.567H153.954M171.32 352.152L187.125 329.935M171.32 352.152L153.954 376.567M171.32 352.152H241.59M73.1292 309.63H137.349M73.1292 309.63H8.90931M73.1292 309.63L91.6817 291.001M-6.24804 329.935V322.948M137.349 309.63L153.251 291.001M137.349 309.63H201.569M187.125 329.935L201.569 309.63M187.125 329.935H254.233M108.763 273.849H167.892M108.763 273.849L124.542 258.005M108.763 273.849H49.6345M108.763 273.849L91.6817 291.001M167.892 273.849L181.417 258.005M167.892 273.849L153.251 291.001M167.892 273.849H227.021M124.542 258.005H181.417M124.542 258.005H67.6673M124.542 258.005L139.163 243.325M49.6345 273.849L67.6673 258.005M49.6345 273.849L30.1122 291.001M49.6345 273.849H-6.24876M91.6817 291.001H153.251M91.6817 291.001H30.1122M181.417 258.005L193.949 243.325M181.417 258.005H238.293M153.251 291.001H214.82M227.021 273.849L238.293 258.005M227.021 273.849L214.82 291.001M227.021 273.849H286.15M67.6673 258.005H10.7924M67.6673 258.005L84.3767 243.325M139.163 243.325H193.949M139.163 243.325H84.3767M139.163 243.325L152.747 229.684M193.949 243.325L205.593 229.684M193.949 243.325H248.736M238.293 258.005L248.736 243.325M238.293 258.005H295.168M165.403 216.977H216.44M165.403 216.977L177.221 205.11M165.403 216.977H114.365M165.403 216.977L152.747 229.684M216.44 216.977L226.57 205.11M216.44 216.977L205.593 229.684M216.44 216.977H267.478M177.221 205.11H226.57M177.221 205.11H127.871M177.221 205.11L188.281 194.004M114.365 216.977L127.871 205.11M114.365 216.977L99.9013 229.684M152.747 229.684H205.593M152.747 229.684H99.9013M226.57 205.11L236.051 194.004M226.57 205.11H275.92M205.593 229.684H258.439M267.478 216.977L275.92 205.11M267.478 216.977L258.439 229.684M267.478 216.977H318.516M127.871 205.11L140.513 194.004M188.281 194.004H236.051M188.281 194.004H140.513M188.281 194.004L198.656 183.586M236.051 194.004L244.944 183.586M236.051 194.004H283.821M275.92 205.11L283.821 194.004M275.92 205.11H325.27M208.406 173.796H253.301M208.406 173.796L217.588 164.577M208.406 173.796H163.513M208.406 173.796L198.656 183.586M253.301 173.796L261.17 164.577M253.301 173.796L244.944 183.586M253.301 173.796H298.195M217.588 164.577H261.17M217.588 164.577H174.005M217.588 164.577L226.247 155.882M163.513 173.796L174.005 164.577M163.513 173.796L152.369 183.586M198.656 183.586H244.944M198.656 183.586H152.369M261.17 164.577L268.593 155.882M261.17 164.577H304.753M244.944 183.586H291.231M298.195 173.796L304.753 164.577M298.195 173.796L291.231 183.586M298.195 173.796H343.09M174.005 164.577L183.901 155.882M226.247 155.882H268.593M226.247 155.882H183.901M226.247 155.882L234.428 147.667M268.593 155.882L275.605 147.667M268.593 155.882H310.938M304.753 164.577L310.938 155.882M304.753 164.577H348.336M242.17 139.893H282.242M242.17 139.893L249.507 132.526M242.17 139.893H202.099M242.17 139.893L234.428 147.667M282.242 139.893L288.53 132.526M282.242 139.893L275.605 147.667M282.242 139.893H322.312M249.507 132.526H288.53M249.507 132.526H210.484M249.507 132.526L256.47 125.534M202.099 139.893L210.484 132.526M202.099 139.893L193.251 147.667M234.428 147.667H275.605M234.428 147.667H193.251M288.53 132.526L294.498 125.534M288.53 132.526H327.553M275.605 147.667H316.782M322.312 139.893L327.553 132.526M322.312 139.893L316.782 147.667M322.312 139.893H362.383M210.484 132.526L218.442 125.534M256.47 125.534H294.498M256.47 125.534H218.442M256.47 125.534L263.087 118.89M294.498 125.534L300.169 118.89M294.498 125.534H332.527M327.553 132.526L332.527 125.534M327.553 132.526H366.576M269.383 112.568H305.566M269.383 112.568L275.38 106.546M269.383 112.568H233.199M269.383 112.568L263.087 118.89M305.566 112.568L310.707 106.546M305.566 112.568L300.169 118.89M305.566 112.568H341.75M275.38 106.546H310.707M275.38 106.546H240.053M275.38 106.546L281.101 100.802M233.199 112.568L240.053 106.546M233.199 112.568L226.004 118.89M263.087 118.89H300.169M263.087 118.89H226.004M310.707 106.546L315.61 100.802M310.707 106.546H346.033M300.169 118.89H337.253M341.75 112.568L346.033 106.546M341.75 112.568L337.253 118.89M341.75 112.568H377.933M240.053 106.546L246.591 100.802M281.101 100.802H315.61M281.101 100.802H246.591M281.101 100.802L286.562 95.3185M315.61 100.802L320.291 95.3185M315.61 100.802H350.12M346.033 106.546L348.61 102.925L350.12 100.802M346.033 106.546H381.361M291.782 90.0766H324.766M291.782 90.0766L296.776 85.0619M291.782 90.0766H258.799M291.782 90.0766L286.562 95.3185M324.766 90.0766L329.046 85.0619M324.766 90.0766L320.291 95.3185M324.766 90.0766H357.749M296.776 85.0619H329.046M296.776 85.0619H264.506M296.776 85.0619L301.559 80.2599M258.799 90.0766L264.506 85.0619M258.799 90.0766L252.832 95.3185M286.562 95.3185H320.291M286.562 95.3185H252.832M329.046 85.0619L333.146 80.2599M329.046 85.0619H361.316M320.291 95.3185H354.021M357.749 90.0766L361.316 85.0619M357.749 90.0766L356.832 91.3651L354.021 95.3185M357.749 90.0766H390.732M264.506 85.0619L269.971 80.2599M301.559 80.2599H333.146M301.559 80.2599H269.971M301.559 80.2599L306.143 75.6568M333.146 80.2599L335.131 77.934L337.075 75.6568M333.146 80.2599H364.732M361.316 85.0619L364.732 80.2599M361.316 85.0619H393.587M310.541 71.2402H340.845M310.541 71.2402L314.764 67.0001M310.541 71.2402H280.237M310.541 71.2402L306.143 75.6568M340.845 71.2402L340.382 71.7825L337.075 75.6568M340.845 71.2402L344.465 67.0001M340.845 71.2402H371.149M314.764 67.0001H344.465M314.764 67.0001H285.064M314.764 67.0001L318.823 62.9247M280.237 71.2402L285.064 67.0001M280.237 71.2402L275.211 75.6568M306.143 75.6568H337.075M306.143 75.6568H275.211M337.075 75.6568H368.007M344.465 67.0001L347.943 62.9247M344.465 67.0001H374.165M371.149 71.2402L374.165 67.0001M371.149 71.2402L368.007 75.6568M371.149 71.2402H401.453M285.064 67.0001L289.702 62.9247M318.823 62.9247H347.943M318.823 62.9247H289.702M318.823 62.9247L322.725 59.0062M347.943 62.9247L351.289 59.0055M347.943 62.9247H377.064M374.165 67.0001L377.064 62.9247M374.165 67.0001H403.866M326.481 55.2343H354.508M326.481 55.2343L330.099 51.6025M326.481 55.2343H298.455M326.481 55.2343L322.725 59.0062M354.508 55.2343L357.609 51.6025M354.508 55.2343L353.315 56.6324L352.51 57.5754L351.289 59.0055M354.508 55.2343H382.534M330.099 51.6025H357.609M330.099 51.6025H302.59M330.099 51.6025L333.585 48.1013M298.455 55.2343L302.59 51.6025M298.455 55.2343L294.162 59.0055M322.725 59.0062L351.289 59.0055M322.725 59.0062L294.162 59.0055M357.609 51.6025L358.743 50.274L359.49 49.3986L360.598 48.1013M357.609 51.6025H385.119M351.289 59.0055L379.852 59.0062M382.534 55.2343L383.189 54.3131L385.119 51.6025M382.534 55.2343L382.205 55.6981L381.873 56.1635L380.87 57.5754L380.532 58.0494L379.852 59.0062M382.534 55.2343H410.561M302.59 51.6025L306.574 48.1013M333.585 48.1013H360.598M333.585 48.1013H306.574M333.585 48.1013L336.119 45.5569L336.948 44.725M360.598 48.1013L362.052 46.3976L363.48 44.7243M360.598 48.1013H387.609M385.119 51.6025L385.435 51.1575L385.749 50.7147L386.995 48.9637L387.609 48.1013M385.119 51.6025H412.628M366.261 41.4664H340.193L342.554 39.0962L343.327 38.3195M343.327 38.3195H368.947M343.327 38.3195L346.355 35.2793M343.327 38.3195H317.707M314.126 41.4656H340.193L337.36 44.3113L336.948 44.725M314.126 41.4656L317.707 38.3195M314.126 41.4656L310.416 44.7243M336.948 44.725L363.48 44.7243M336.948 44.725L310.416 44.7243M366.261 41.4656L368.284 39.0962L368.616 38.7064L368.947 38.3195M366.261 41.4656L364.882 43.0808L363.48 44.7243M366.261 41.4656H392.329M368.947 38.3195H394.567M368.947 38.3195L371.542 35.2793M363.48 44.7243H390.011M392.329 41.4656L394.567 38.3195M392.329 41.4656L390.011 44.7243M392.329 41.4656H418.397M346.355 35.2793H371.542M346.355 35.2793H321.167M317.707 38.3195L320.314 36.0299L321.167 35.2793M394.567 38.3195H420.187M394.567 38.3195L396.196 36.0299L396.73 35.2793M371.542 35.2793H396.73M311.859 352.152H382.129M311.859 352.152L321.342 329.935M311.859 352.152H241.59M311.859 352.152L301.439 376.567M382.129 352.152L388.451 329.935M382.129 352.152L375.182 376.567M382.129 352.152H452.398M321.342 329.935H388.451M321.342 329.935H254.233M321.342 329.935L330.008 309.63M241.59 352.152L254.233 329.935M241.59 352.152L227.696 376.567M301.439 376.567H375.182M301.439 376.567L289.935 403.519M301.439 376.567H227.696M388.451 329.935L394.228 309.63M388.451 329.935H455.559M375.182 376.567L367.513 403.519M375.182 376.567H448.924M452.398 352.152L455.559 329.935M452.398 352.152L448.924 376.567M452.398 352.152H522.667M254.233 329.935L265.789 309.63M330.008 309.63H394.228M330.008 309.63H265.789M330.008 309.63L337.959 291.001M394.228 309.63L399.528 291.001M394.228 309.63H458.447M455.559 329.935L458.447 309.63M455.559 329.935H522.667M345.28 273.849H404.409M345.28 273.849L352.043 258.005M345.28 273.849H286.15M345.28 273.849L337.959 291.001M404.409 273.849L408.917 258.005M404.409 273.849L399.528 291.001M404.409 273.849H463.538M352.043 258.005H408.917M352.043 258.005H295.168M352.043 258.005L358.308 243.325M286.15 273.849L295.168 258.005M286.15 273.849L276.39 291.001M337.959 291.001H399.528M337.959 291.001H276.39M408.917 258.005L413.094 243.325M408.917 258.005H465.792M399.528 291.001H461.098M463.538 273.849L465.792 258.005M463.538 273.849L461.098 291.001M463.538 273.849H522.667M295.168 258.005L303.522 243.325M358.308 243.325H413.094M358.308 243.325H303.522M358.308 243.325L364.13 229.684M413.094 243.325L416.976 229.684M413.094 243.325H467.881M465.792 258.005L467.881 243.325M465.792 258.005H522.667M369.554 216.977H420.592M369.554 216.977L374.619 205.11M369.554 216.977H318.516M369.554 216.977L364.13 229.684M420.592 216.977L423.968 205.11M420.592 216.977L416.976 229.684M420.592 216.977H471.63M374.619 205.11H423.968M374.619 205.11H325.27M374.619 205.11L379.359 194.004M318.516 216.977L325.27 205.11M318.516 216.977L311.285 229.684M364.13 229.684H416.976M364.13 229.684H311.285M423.968 205.11L427.129 194.004M423.968 205.11H473.318M416.976 229.684H469.821M471.63 216.977L473.318 205.11M471.63 216.977L469.821 229.684M471.63 216.977H522.667M325.27 205.11L331.59 194.004M379.359 194.004H427.129M379.359 194.004H331.59M379.359 194.004L383.805 183.586M427.129 194.004L430.093 183.586M427.129 194.004H474.898M473.318 205.11L474.898 194.004M473.318 205.11H522.667M387.985 173.796H432.878M387.985 173.796L391.918 164.577M387.985 173.796H343.09M387.985 173.796L383.805 183.586M432.878 173.796L435.502 164.577M432.878 173.796L430.093 183.586M432.878 173.796H477.773M391.918 164.577H435.502M391.918 164.577H348.336M391.918 164.577L395.63 155.882M343.09 173.796L348.336 164.577M343.09 173.796L337.518 183.586M383.805 183.586H430.093M383.805 183.586H337.518M435.502 164.577L437.976 155.882M435.502 164.577H479.085M430.093 183.586H476.38M477.773 173.796L479.085 164.577M477.773 173.796L476.38 183.586M477.773 173.796H522.667M348.336 164.577L353.284 155.882M395.63 155.882H437.976M395.63 155.882H353.284M395.63 155.882L399.136 147.667M437.976 155.882L440.314 147.667M437.976 155.882H480.322M479.085 164.577L480.322 155.882M479.085 164.577H522.667M402.454 139.893H442.526M402.454 139.893L405.599 132.526M402.454 139.893H362.383M402.454 139.893L399.136 147.667M442.526 139.893L444.621 132.526M442.526 139.893L440.314 147.667M442.526 139.893H482.596M405.599 132.526H444.621M405.599 132.526H366.576M405.599 132.526L408.583 125.534M362.383 139.893L366.576 132.526M362.383 139.893L357.959 147.667M399.136 147.667H440.314M399.136 147.667H357.959M444.621 132.526L446.611 125.534M444.621 132.526H483.644M440.314 147.667H481.49M482.596 139.893L483.644 132.526M482.596 139.893L481.49 147.667M482.596 139.893H522.667M366.576 132.526L370.554 125.534M408.583 125.534H446.611M408.583 125.534H370.554M408.583 125.534L411.419 118.89M446.611 125.534L448.502 118.89M446.611 125.534H484.64M483.644 132.526L484.64 125.534M483.644 132.526H522.667M414.117 112.568H450.3M414.117 112.568L416.687 106.546M414.117 112.568H377.933M414.117 112.568L411.419 118.89M450.3 112.568L452.014 106.546M450.3 112.568L448.502 118.89M450.3 112.568H486.484M416.687 106.546H452.014M416.687 106.546H381.361M416.687 106.546L417.62 104.361L419.138 100.802M377.933 112.568L381.361 106.546M377.933 112.568L374.336 118.89M411.419 118.89H448.502M411.419 118.89H374.336M452.014 106.546L453.648 100.802M452.014 106.546H487.341M448.502 118.89H485.584M486.484 112.568L487.341 106.546M486.484 112.568L485.584 118.89M486.484 112.568H522.667M381.361 106.546L384.629 100.802M419.138 100.802H453.648M419.138 100.802H384.629M419.138 100.802L421.479 95.3185M453.648 100.802L455.208 95.3185M453.648 100.802H488.157M487.341 106.546L488.157 100.802M487.341 106.546H522.667M423.716 90.0766H456.7M423.716 90.0766L425.857 85.0619M423.716 90.0766H390.732M423.716 90.0766L422.048 93.9864L421.479 95.3185M456.7 90.0766L457.242 88.1703L458.127 85.0619M456.7 90.0766L455.208 95.3185M456.7 90.0766H489.684M425.857 85.0619L426.118 84.4507L427.906 80.2599M425.857 85.0619H458.127M425.857 85.0619H393.587M390.732 90.0766L393.587 85.0619M390.732 90.0766L390.367 90.719L389.258 92.6681L387.749 95.3185M421.479 95.3185H455.208M421.479 95.3185H387.749M458.127 85.0619L458.646 83.2369L458.817 82.6351L458.988 82.0369L459.493 80.2599M458.127 85.0619H490.398M455.208 95.3185H488.938M489.684 90.0766L490.398 85.0619M489.684 90.0766L488.938 95.3185M489.684 90.0766H522.667M427.906 80.2599H459.493M427.906 80.2599H396.32M427.906 80.2599L429.871 75.6568M393.587 85.0619L396.32 80.2599M459.493 80.2599L459.991 78.5111L460.155 77.934L460.804 75.6568M459.493 80.2599H491.081M490.398 85.0619L490.484 84.4507L491.081 80.2599M490.398 85.0619H522.667M431.756 71.2402H462.06M431.756 71.2402L432.67 69.0988L432.896 68.5703L433.12 68.044L433.344 67.5213L433.566 67.0001M431.756 71.2402H401.453M431.756 71.2402L429.871 75.6568M462.06 71.2402L462.969 68.044L463.119 67.5213L463.266 67.0001M462.06 71.2402L460.804 75.6568M462.06 71.2402H492.363M433.566 67.0001H463.266M433.566 67.0001H403.866M433.566 67.0001L434.661 64.4339L434.877 63.9287L435.306 62.9247M401.453 71.2402L403.271 68.044L403.866 67.0001M401.453 71.2402L400.522 72.875L399.577 74.5352L398.939 75.6568M429.871 75.6568H460.804M429.871 75.6568H398.939M463.266 67.0001L463.996 64.4339L464.141 63.9287L464.283 63.4256L464.426 62.9247M463.266 67.0001H492.967M460.804 75.6568H491.735M492.363 71.2402L492.967 67.0001M492.363 71.2402L492.131 72.875L491.895 74.5352L491.735 75.6568M492.363 71.2402H522.667M403.866 67.0001L406.184 62.9247M435.306 62.9247H464.426M435.306 62.9247H406.184M435.306 62.9247L436.978 59.0055M464.426 62.9247L465.541 59.0055M464.426 62.9247H493.547M492.967 67.0001L493.547 62.9247M492.967 67.0001H522.667M438.588 55.2343H466.614M438.588 55.2343L440.138 51.6025M438.588 55.2343H410.561M438.588 55.2343L438.19 56.1635L437.589 57.5754L436.978 59.0055M466.614 55.2343L466.482 55.6981L465.677 58.5264L465.541 59.0055M466.614 55.2343L467.648 51.6025M466.614 55.2343H494.641M440.138 51.6025H467.648M440.138 51.6025H412.628M440.138 51.6025L441.633 48.1013M410.561 55.2343L412.374 52.0482L412.628 51.6025M410.561 55.2343L410.297 55.6981L410.032 56.1635L409.766 56.6324L408.415 59.0055M436.978 59.0055H465.541M436.978 59.0055H408.415M465.541 59.0055L494.104 59.0062M467.648 51.6025L468.026 50.274L468.15 49.8356L468.275 49.3986L468.644 48.1013M467.648 51.6025H495.158M494.641 55.2343L495.031 52.4975L495.094 52.0482L495.158 51.6025M494.641 55.2343L494.104 59.0062M494.641 55.2343H522.667M412.628 51.6025L414.621 48.1013M441.633 48.1013H468.644M441.633 48.1013H414.621M441.633 48.1013L441.997 47.2447L442.179 46.8208L442.359 46.3976L442.539 45.9765L442.718 45.5569L442.897 45.1403L443.073 44.7243M468.644 48.1013L468.766 47.6723L468.888 47.2455L469.129 46.3976L469.249 45.9765L469.368 45.5569L469.487 45.1403L469.605 44.7243M468.644 48.1013H495.656M495.158 51.6025L495.656 48.1013M495.158 51.6025H522.667M470.532 41.4664H444.465L445.476 39.0962L445.807 38.3195M445.807 38.3195H471.427M445.807 38.3195L446.944 35.6539L447.105 35.2793M445.807 38.3195H420.187M418.397 41.4656H444.465L443.948 42.6743L443.775 43.0808L443.601 43.4888L443.073 44.7243M418.397 41.4656L420.187 38.3195M418.397 41.4656L416.542 44.7243M443.073 44.7243H469.605M443.073 44.7243H416.542M470.532 41.4656L470.646 41.0664L470.871 40.2729L471.095 39.4867L471.427 38.3195M470.532 41.4656L470.072 43.0808L469.956 43.4888L469.723 44.3105L469.605 44.7243M470.532 41.4656H496.599M471.427 38.3195L471.537 37.934L471.646 37.5492L471.755 37.1674L471.863 36.7863L472.186 35.6539L472.292 35.2793M471.427 38.3195H497.047M469.605 44.7243L496.136 44.725M496.599 41.4656L497.047 38.3195M496.599 41.4656L496.136 44.725M496.599 41.4656H522.667M447.105 35.2793H472.292M447.105 35.2793H421.917M420.187 38.3195L421.06 36.7863L421.705 35.6539L421.917 35.2793M472.292 35.2793H497.48M497.047 38.3195L497.102 37.934L497.157 37.5492L497.211 37.1674L497.48 35.2793M497.047 38.3195H522.667M592.936 352.152H663.206M592.936 352.152L589.776 329.935M592.936 352.152H522.667M592.936 352.152L596.411 376.567M663.206 352.152L656.885 329.935M663.206 352.152L670.152 376.567M663.206 352.152H733.476M589.776 329.935H656.885M589.776 329.935H522.667M589.776 329.935L586.887 309.63M522.667 352.152V329.935M522.667 352.152V376.567M596.411 376.567H670.152M596.411 376.567L600.245 403.519M596.411 376.567H522.667M656.885 329.935L651.107 309.63M656.885 329.935H723.993M670.152 376.567L677.822 403.519M670.152 376.567H743.893M733.476 352.152L723.993 329.935M733.476 352.152L743.893 376.567M733.476 352.152H803.746M522.667 329.935V309.63M586.887 309.63H651.107M586.887 309.63H522.667M586.887 309.63L584.237 291.001M651.107 309.63L645.806 291.001M651.107 309.63H715.327M723.993 329.935L715.327 309.63M723.993 329.935H791.1M581.796 273.849H640.926M581.796 273.849L579.542 258.005M581.796 273.849H522.667M581.796 273.849L584.237 291.001M640.926 273.849L636.417 258.005M640.926 273.849L645.806 291.001M640.926 273.849H700.055M579.542 258.005H636.417M579.542 258.005H522.667M579.542 258.005L577.454 243.325M522.667 273.849V258.005M522.667 273.849V291.001M584.237 291.001H645.806M584.237 291.001H522.667M636.417 258.005L632.24 243.325M636.417 258.005H693.292M645.806 291.001H707.376M700.055 273.849L693.292 258.005M700.055 273.849L707.376 291.001M700.055 273.849H759.182M522.667 258.005V243.325M577.454 243.325H632.24M577.454 243.325H522.667M577.454 243.325L575.513 229.684M632.24 243.325L628.359 229.684M632.24 243.325H687.027M693.292 258.005L687.027 243.325M693.292 258.005H750.165M573.705 216.977H624.743M573.705 216.977L572.017 205.11M573.705 216.977H522.667M573.705 216.977L575.513 229.684M624.743 216.977L621.366 205.11M624.743 216.977L628.359 229.684M624.743 216.977H675.78M572.017 205.11H621.366M572.017 205.11H522.667M572.017 205.11L570.437 194.004M522.667 216.977V205.11M522.667 216.977V229.684M575.513 229.684H628.359M575.513 229.684H522.667M621.366 205.11L618.206 194.004M621.366 205.11H670.716M628.359 229.684H681.205M675.78 216.977L670.716 205.11M675.78 216.977L681.205 229.684M675.78 216.977H726.82M522.667 205.11V194.004M570.437 194.004H618.206M570.437 194.004H522.667M570.437 194.004L568.955 183.586M618.206 194.004L615.242 183.586M618.206 194.004H665.975M670.716 205.11L665.975 194.004M670.716 205.11H720.065M567.561 173.796H612.456M567.561 173.796L566.25 164.577M567.561 173.796H522.667M567.561 173.796L568.955 183.586M612.456 173.796L609.833 164.577M612.456 173.796L615.242 183.586M612.456 173.796H657.35M566.25 164.577H609.833M566.25 164.577H522.667M566.25 164.577L565.013 155.882M522.667 173.796V164.577M522.667 173.796V183.586M568.955 183.586H615.242M568.955 183.586H522.667M609.833 164.577L607.359 155.882M609.833 164.577H653.416M615.242 183.586H661.529M657.35 173.796L653.416 164.577M657.35 173.796L661.529 183.586M657.35 173.796H702.245M522.667 164.577V155.882M565.013 155.882H607.359M565.013 155.882H522.667M565.013 155.882L563.845 147.667M607.359 155.882L605.021 147.667M607.359 155.882H649.704M653.416 164.577L649.704 155.882M653.416 164.577H696.999M562.738 139.893H602.809M562.738 139.893L561.69 132.526M562.738 139.893H522.667M562.738 139.893L563.845 147.667M602.809 139.893L600.713 132.526M602.809 139.893L605.021 147.667M602.809 139.893H642.881M561.69 132.526H600.713M561.69 132.526H522.667M561.69 132.526L560.695 125.534M522.667 139.893V132.526M522.667 139.893V147.667M563.845 147.667H605.021M563.845 147.667H522.667M600.713 132.526L598.724 125.534M600.713 132.526H639.736M605.021 147.667H646.198M642.881 139.893L639.736 132.526M642.881 139.893L646.198 147.667M642.881 139.893H682.951M522.667 132.526V125.534M560.695 125.534H598.724M560.695 125.534H522.667M560.695 125.534L559.865 119.702L559.751 118.89M598.724 125.534L596.833 118.89M598.724 125.534H636.752M639.736 132.526L636.752 125.534M639.736 132.526H678.758M558.85 112.568H595.034M558.85 112.568L557.994 106.546M558.85 112.568H522.667M558.85 112.568L559.751 118.89M595.034 112.568L593.32 106.546M595.034 112.568L596.833 118.89M595.034 112.568H631.218M557.994 106.546H593.32M557.994 106.546H522.667M557.994 106.546L557.177 100.802M522.667 112.568V106.546M522.667 112.568V118.89M559.751 118.89H596.833M559.751 118.89H522.667M593.32 106.546L591.686 100.802M593.32 106.546H628.647M596.833 118.89H633.916M631.218 112.568L628.647 106.546M631.218 112.568L633.916 118.89M631.218 112.568H667.401M522.667 106.546V100.802M557.177 100.802H591.686M557.177 100.802H522.667M557.177 100.802L556.397 95.3185M591.686 100.802L590.126 95.3185M591.686 100.802H626.196M628.647 106.546L628.023 105.085L626.196 100.802M628.647 106.546H663.974M555.65 90.0766H588.634M555.65 90.0766L554.937 85.0619M555.65 90.0766H522.667M555.65 90.0766L556.397 95.3185M588.634 90.0766L587.382 85.6775L587.208 85.0619M588.634 90.0766L590.126 95.3185M588.634 90.0766H621.618M554.937 85.0619L554.851 84.4507L554.254 80.2599M554.937 85.0619H587.208M554.937 85.0619H522.667M522.667 90.0766V85.0619M522.667 90.0766V95.3185M556.397 95.3185H590.126M556.397 95.3185H522.667M587.208 85.0619L586.688 83.2369L586.518 82.6351L586.346 82.0369L585.841 80.2599M587.208 85.0619H619.478M590.126 95.3185H623.856M621.618 90.0766L619.478 85.0619M621.618 90.0766L623.287 93.9864L623.856 95.3185M621.618 90.0766H654.602M554.254 80.2599H585.841M554.254 80.2599H522.667M554.254 80.2599L554.088 79.0911L553.76 76.7892L553.6 75.6568M522.667 85.0619V80.2599M585.841 80.2599L585.343 78.5111L585.18 77.934L584.531 75.6568M585.841 80.2599H617.428M619.478 85.0619L617.428 80.2599M619.478 85.0619H651.748M552.971 71.2402H583.275M552.971 71.2402L552.368 67.0001M552.971 71.2402H522.667M552.971 71.2402L553.203 72.875L553.283 73.4253L553.36 73.9792L553.519 75.0942L553.6 75.6568M583.275 71.2402L582.365 68.044L582.068 67.0001M583.275 71.2402L584.531 75.6568M583.275 71.2402H613.579M552.368 67.0001H582.068M552.368 67.0001H522.667M552.368 67.0001L551.788 62.9247M522.667 71.2402V67.0001M522.667 71.2402V75.6568M553.6 75.6568H584.531M553.6 75.6568H522.667M582.068 67.0001L581.338 64.4339L581.194 63.9287L581.051 63.4256L580.908 62.9247M582.068 67.0001H611.769M584.531 75.6568H615.463M613.579 71.2402L612.438 68.5703L612.215 68.0433L611.99 67.5206L611.769 67.0001M613.579 71.2402L615.224 75.0942L615.463 75.6568M613.579 71.2402H643.882M522.667 67.0001V62.9247M551.788 62.9247H580.908M551.788 62.9247H522.667M551.788 62.9247L551.23 59.0062M580.908 62.9247L579.793 59.0055M580.908 62.9247H610.029M611.769 67.0001L610.891 64.9421L610.674 64.4339L610.458 63.9287L610.029 62.9247M611.769 67.0001H641.469M550.694 55.2343H578.72M550.694 55.2343L550.177 51.6025M550.694 55.2343H522.667M550.694 55.2343L551.23 59.0062M578.72 55.2343L578.853 55.6981L579.658 58.5264L579.793 59.0055M578.72 55.2343L577.687 51.6025M578.72 55.2343H606.747M550.177 51.6025H577.687M550.177 51.6025H522.667M550.177 51.6025L549.679 48.1013M522.667 55.2343V51.6025M522.667 55.2343V59.0055M551.23 59.0062L579.793 59.0055M551.23 59.0062L522.667 59.0055M579.793 59.0055H608.356M577.687 51.6025L577.309 50.274L577.184 49.8356L577.06 49.3986L576.691 48.1013M577.687 51.6025H605.196M606.747 55.2343L605.196 51.6025M606.747 55.2343L607.144 56.1635L607.746 57.5754L608.356 59.0055M606.747 55.2343H634.774M522.667 51.6025V48.102M549.679 48.1013H576.691M549.679 48.1013L522.667 48.102M549.679 48.1013L549.198 44.725M576.691 48.1013L576.569 47.6723L576.206 46.3976L576.086 45.9765L575.966 45.5569L575.848 45.1403L575.73 44.7243M576.691 48.1013H603.702M605.196 51.6025L603.702 48.1013M605.196 51.6025H632.706M574.803 41.4664H548.735L548.287 38.3195M548.287 38.3195L548.233 37.934L548.178 37.5492L548.123 37.1674L547.855 35.2793M548.287 38.3195H573.907M548.287 38.3195H522.667M522.667 41.4656H548.735L549.198 44.725M522.667 41.4656V38.3195M522.667 41.4656V44.7243M549.198 44.725L575.73 44.7243M549.198 44.725L522.667 44.7243M574.803 41.4656L574.689 41.0664L574.463 40.2729L574.351 39.8787L574.128 39.0962L574.018 38.7064L573.907 38.3195M574.803 41.4656L575.262 43.0808L575.378 43.4888L575.612 44.3105L575.73 44.7243M574.803 41.4656H600.87M573.907 38.3195H599.528M573.907 38.3195L573.688 37.55L573.579 37.1674L573.471 36.7863L573.149 35.6539L573.042 35.2793M575.73 44.7243L602.262 44.725M600.87 41.4656L599.859 39.0962L599.528 38.3195M600.87 41.4656L601.734 43.4888L602.262 44.725M600.87 41.4656H626.938M547.855 35.2793H573.042M547.855 35.2793H522.667M522.667 38.3195V35.2793M599.528 38.3195H625.148M599.528 38.3195L598.55 36.0299L598.23 35.2793M573.042 35.2793H598.23M874.016 352.152H944.286M874.016 352.152L858.212 329.935M874.016 352.152H803.746M874.016 352.152L891.38 376.567M944.286 352.152L925.317 329.935M944.286 352.152L965.127 376.567M944.286 352.152H1014.56M858.212 329.935H925.317M858.212 329.935H791.1M858.212 329.935L843.766 309.63M803.746 352.152L791.1 329.935M803.746 352.152L817.64 376.567M891.38 376.567H965.127M891.38 376.567L910.552 403.519M891.38 376.567H817.64M925.317 329.935L907.989 309.63M925.317 329.935H992.429M965.127 376.567L988.131 403.519M965.127 376.567H1038.87M1014.56 352.152L992.429 329.935M1014.56 352.152L1038.87 376.567M1014.56 352.152H1051.58M791.1 329.935L779.544 309.63M843.766 309.63H907.989M843.766 309.63H779.544M843.766 309.63L830.511 291.001M907.989 309.63L892.084 291.001M907.989 309.63H972.205M992.429 329.935L972.205 309.63M992.429 329.935H1051.58M818.315 273.849H877.442M818.315 273.849L807.042 258.005M818.315 273.849H759.182M818.315 273.849L830.511 291.001M877.442 273.849L863.918 258.005M877.442 273.849L892.084 291.001M877.442 273.849H936.569M807.042 258.005H863.918M807.042 258.005H750.165M807.042 258.005L796.596 243.325M759.182 273.849L750.165 258.005M759.182 273.849L768.945 291.001M830.511 291.001H892.084M830.511 291.001H768.945M863.918 258.005L851.389 243.325M863.918 258.005H920.795M892.084 291.001H953.65M936.569 273.849L920.795 258.005M936.569 273.849L953.65 291.001M936.569 273.849H995.703M750.165 258.005L741.81 243.325M796.596 243.325H851.389M796.596 243.325H741.81M796.596 243.325L786.897 229.684M851.389 243.325L839.745 229.684M851.389 243.325H906.174M920.795 258.005L906.174 243.325M920.795 258.005H977.664M777.86 216.977H828.892M777.86 216.977L769.417 205.11M777.86 216.977H726.82M777.86 216.977L786.897 229.684M828.892 216.977L818.766 205.11M828.892 216.977L839.745 229.684M828.892 216.977H879.932M769.417 205.11H818.766M769.417 205.11H720.065M769.417 205.11L761.512 194.004M726.82 216.977L720.065 205.11M726.82 216.977L734.05 229.684M786.897 229.684H839.745M786.897 229.684H734.05M818.766 205.11L809.285 194.004M818.766 205.11H868.114M839.745 229.684H892.585M879.932 216.977L868.114 205.11M879.932 216.977L892.585 229.684M879.932 216.977H930.972M720.065 205.11L713.745 194.004M761.512 194.004H809.285M761.512 194.004H713.745M761.512 194.004L754.107 183.586M809.285 194.004L800.392 183.586M809.285 194.004H857.051M868.114 205.11L857.051 194.004M868.114 205.11H917.463M747.138 173.796H792.037M747.138 173.796L740.583 164.577M747.138 173.796H702.245M747.138 173.796L754.107 183.586M792.037 173.796L784.168 164.577M792.037 173.796L800.392 183.586M792.037 173.796H836.928M740.583 164.577H784.168M740.583 164.577H696.999M740.583 164.577L734.398 155.882M702.245 173.796L696.999 164.577M702.245 173.796L707.816 183.586M754.107 183.586H800.392M754.107 183.586H707.816M784.168 164.577L776.742 155.882M784.168 164.577H827.745M800.392 183.586H846.677M836.928 173.796L827.745 164.577M836.928 173.796L846.677 183.586M836.928 173.796H881.82M696.999 164.577L692.051 155.882M734.398 155.882H776.742M734.398 155.882H692.051M734.398 155.882L728.555 147.667M776.742 155.882L769.729 147.667M776.742 155.882H819.085M827.745 164.577L819.085 155.882M827.745 164.577H871.33M723.022 139.893H763.094M723.022 139.893L717.782 132.526M723.022 139.893H682.951M723.022 139.893L728.555 147.667M763.094 139.893L756.808 132.526M763.094 139.893L769.729 147.667M763.094 139.893H803.165M717.782 132.526H756.808M717.782 132.526H678.758M717.782 132.526L712.808 125.534M682.951 139.893L681.882 138.015L678.758 132.526M682.951 139.893L687.376 147.667M728.555 147.667H769.729M728.555 147.667H687.376M756.808 132.526L750.833 125.534M756.808 132.526H795.826M769.729 147.667H810.904M803.165 139.893L795.826 132.526M803.165 139.893L810.904 147.667M803.165 139.893H843.237M678.758 132.526L674.78 125.534M712.808 125.534H750.833M712.808 125.534H674.78M712.808 125.534L708.082 118.89M750.833 125.534L745.164 118.89M750.833 125.534H788.865M795.826 132.526L788.865 125.534M795.826 132.526H834.852M703.585 112.568H739.77M703.585 112.568L699.3 106.546M703.585 112.568H667.401M703.585 112.568L708.082 118.89M739.77 112.568L734.631 106.546M739.77 112.568L745.164 118.89M739.77 112.568H775.95M699.3 106.546H734.631M699.3 106.546H663.974M699.3 106.546L695.215 100.802M667.401 112.568L663.974 106.546M667.401 112.568L670.999 118.89M708.082 118.89H745.164M708.082 118.89H670.999M734.631 106.546L729.723 100.802M734.631 106.546H769.954M745.164 118.89H782.244M775.95 112.568L769.954 106.546M775.95 112.568L782.244 118.89M775.95 112.568H812.138M663.974 106.546L660.705 100.802M695.215 100.802H729.723M695.215 100.802H660.705M695.215 100.802L691.314 95.3185M729.723 100.802L725.043 95.3185M729.723 100.802H764.234M769.954 106.546L764.234 100.802M769.954 106.546H805.278M687.585 90.0766L688.042 90.719L688.502 91.3651L691.314 95.3185M687.585 90.0766H720.569M687.585 90.0766L684.018 85.0619M687.585 90.0766H654.602M691.314 95.3185H725.043M691.314 95.3185H657.585M720.569 90.0766L716.289 85.0619M720.569 90.0766L725.043 95.3185M720.569 90.0766H753.556M684.018 85.0619H716.289M684.018 85.0619H651.748M684.018 85.0619L680.602 80.2599M654.602 90.0766L651.748 85.0619M654.602 90.0766L656.077 92.6681L657.585 95.3185M716.289 85.0619L712.189 80.2599M716.289 85.0619H748.561M725.043 95.3185H758.775M753.556 90.0766L748.561 85.0619M753.556 90.0766L758.775 95.3185M753.556 90.0766H786.534M651.748 85.0619L649.015 80.2599M680.602 80.2599H712.189M680.602 80.2599H649.015M680.602 80.2599L679.77 79.0911L677.327 75.6568M712.189 80.2599L710.695 78.5111L710.204 77.934L708.259 75.6568M712.189 80.2599H743.777M748.561 85.0619L743.777 80.2599M748.561 85.0619H780.829M674.186 71.2402H704.49M674.186 71.2402L671.169 67.0001M674.186 71.2402H643.882M674.186 71.2402L677.327 75.6568M704.49 71.2402L702.21 68.5703L700.87 67.0001M704.49 71.2402L708.259 75.6568M704.49 71.2402H734.79M671.169 67.0001H700.87M671.169 67.0001H641.469M671.169 67.0001L668.627 63.4256L668.271 62.9247M643.882 71.2402L642.063 68.044L641.469 67.0001M643.882 71.2402L644.812 72.875L646.396 75.6568M677.327 75.6568H708.259M677.327 75.6568H646.396M700.87 67.0001L697.391 62.9247M700.87 67.0001H730.573M708.259 75.6568H739.189M734.79 71.2402L730.573 67.0001M734.79 71.2402L739.189 75.6568M734.79 71.2402H765.098M641.469 67.0001L639.15 62.9247M668.271 62.9247H697.391M668.271 62.9247H639.15M668.271 62.9247L665.482 59.0062M697.391 62.9247L694.045 59.0055M697.391 62.9247H726.515M730.573 67.0001L728.017 64.4339L727.509 63.9287L726.515 62.9247M730.573 67.0001H760.27M662.8 55.2343H690.827M662.8 55.2343L662.145 54.3131L660.216 51.6025M662.8 55.2343H634.774M662.8 55.2343L663.461 56.1635L664.803 58.0494L665.482 59.0062M690.827 55.2343L687.726 51.6025M690.827 55.2343L692.019 56.6324L692.825 57.5754L694.045 59.0055M690.827 55.2343H718.853M660.216 51.6025H687.726M660.216 51.6025H632.706M660.216 51.6025L658.339 48.9637L657.725 48.1013M634.774 55.2343L632.96 52.0482L632.706 51.6025M634.774 55.2343L635.037 55.6981L635.303 56.1635L635.568 56.6324L636.919 59.0055M665.482 59.0062L694.045 59.0055M665.482 59.0062L636.919 59.0055M687.726 51.6025L686.592 50.274L685.845 49.3986L684.737 48.1013M687.726 51.6025H715.235M694.045 59.0055L722.609 59.0062M718.853 55.2343L715.235 51.6025M718.853 55.2343L721.184 57.5754L721.657 58.0494L722.609 59.0062M718.853 55.2343H746.877M632.706 51.6025L630.713 48.1013M657.725 48.1013H684.737M657.725 48.1013H630.713M657.725 48.1013L655.324 44.725M684.737 48.1013L683.283 46.3976L682.924 45.9765L681.855 44.7243M684.737 48.1013H711.749M715.235 51.6025L711.749 48.1013M715.235 51.6025H742.746M679.074 41.4664H653.006L651.598 39.4867L650.767 38.3195M650.767 38.3195H676.387M650.767 38.3195L649.677 36.7863L649.139 36.0299L648.871 35.6539L648.605 35.2793M650.767 38.3195H625.148M626.938 41.4656H653.006L655.324 44.725M626.938 41.4656L625.589 39.0962L625.148 38.3195M626.938 41.4656L628.793 44.7243M655.324 44.725L681.855 44.7243M655.324 44.725L628.793 44.7243M679.074 41.4656L677.05 39.0962L676.718 38.7064L676.387 38.3195M679.074 41.4656L680.453 43.0808L681.855 44.7243M679.074 41.4656H705.141M676.387 38.3195H702.007M676.387 38.3195L673.792 35.2793M681.855 44.7243H708.386M705.141 41.4656L702.781 39.0962L702.007 38.3195M705.141 41.4656L707.975 44.3113L708.386 44.7243M705.141 41.4656H731.212M648.605 35.2793H673.792M648.605 35.2793H623.417M625.148 38.3195L624.275 36.7863L623.63 35.6539L623.417 35.2793M702.007 38.3195H727.625M702.007 38.3195L698.98 35.2793M673.792 35.2793H698.98M1034.54 258.005H977.664M1034.54 258.005L1015.75 243.325M1034.54 258.005H1051.58M1034.54 258.005L1051.58 271.314M977.664 258.005L960.96 243.325M977.664 258.005L995.703 273.849M1015.75 243.325L998.28 229.684M1015.75 243.325H960.96M1015.75 243.325H1051.58M1051.58 258.005V243.325M1051.58 258.005V271.314M1051.58 271.314V273.849M982.005 216.977H1033.04M982.005 216.977L966.811 205.11M982.005 216.977H930.972M982.005 216.977L998.28 229.684M1033.04 216.977L1016.16 205.11M1033.04 216.977L1051.13 229.684M1033.04 216.977H1051.58M966.811 205.11H1016.16M966.811 205.11H917.463M966.811 205.11L952.59 194.004M930.972 216.977L917.463 205.11M930.972 216.977L945.433 229.684M998.28 229.684H1051.13M998.28 229.684H945.433M1016.16 205.11L1000.36 194.004M1016.16 205.11H1051.58M1051.13 229.684H1051.58M1051.13 229.684L1051.58 230.006M1051.58 216.977V205.11M1051.58 216.977V229.684M917.463 205.11L904.824 194.004M952.59 194.004H1000.36M952.59 194.004H904.824M952.59 194.004L939.255 183.586M1000.36 194.004L985.54 183.586M1000.36 194.004H1048.13M1051.58 205.11V196.21M926.718 173.796H971.609M926.718 173.796L914.915 164.577M926.718 173.796H881.82M926.718 173.796L939.255 183.586M971.609 173.796L958.499 164.577M971.609 173.796L985.54 183.586M971.609 173.796H1016.51M914.915 164.577H958.499M914.915 164.577H871.33M914.915 164.577L903.779 155.882M881.82 173.796L871.33 164.577M881.82 173.796L892.963 183.586M939.255 183.586H985.54M939.255 183.586H892.963M958.499 164.577L946.122 155.882M958.499 164.577H1002.08M985.54 183.586H1031.83M1016.51 173.796L1002.08 164.577M1016.51 173.796L1031.83 183.586M1016.51 173.796H1051.58M871.33 164.577L861.436 155.882M903.779 155.882H946.122M903.779 155.882H861.436M903.779 155.882L893.26 147.667M946.122 155.882L934.435 147.667M946.122 155.882H988.473M1002.08 164.577L988.473 155.882M1002.08 164.577H1045.66M883.308 139.893H923.379M883.308 139.893L873.871 132.526M883.308 139.893H843.237M883.308 139.893L893.26 147.667M923.379 139.893L912.897 132.526M923.379 139.893L934.435 147.667M923.379 139.893H963.45M873.871 132.526H912.897M873.871 132.526H834.852M873.871 132.526L864.92 125.534M843.237 139.893L834.852 132.526M843.237 139.893L852.086 147.667M893.26 147.667H934.435M893.26 147.667H852.086M912.897 132.526L902.951 125.534M912.897 132.526H951.922M934.435 147.667H975.617M963.45 139.893L951.922 132.526M963.45 139.893L975.617 147.667M963.45 139.893H1003.52M834.852 132.526L826.896 125.534M864.92 125.534H902.951M864.92 125.534H826.896M864.92 125.534L856.412 118.89M902.951 125.534L893.5 118.89M902.951 125.534H940.975M951.922 132.526L940.975 125.534M951.922 132.526H990.941M848.318 112.568H884.505M848.318 112.568L840.609 106.546M848.318 112.568H812.138M848.318 112.568L856.412 118.89M884.505 112.568L875.932 106.546M884.505 112.568L893.5 118.89M884.505 112.568H920.686M840.609 106.546H875.932M840.609 106.546H805.278M840.609 106.546L833.255 100.802M812.138 112.568L805.278 106.546M812.138 112.568L819.332 118.89M856.412 118.89H893.5M856.412 118.89H819.332M875.932 106.546L867.766 100.802M875.932 106.546H911.263M893.5 118.89H930.58M920.686 112.568L911.263 106.546M920.686 112.568L930.58 118.89M920.686 112.568H956.873M805.278 106.546L798.745 100.802M833.255 100.802H867.766M833.255 100.802H798.745M833.255 100.802L826.228 95.3185M867.766 100.802L859.962 95.3185M867.766 100.802H902.269M911.263 106.546L902.269 100.802M911.263 106.546H946.587M819.521 90.0766H852.507M819.521 90.0766L813.096 85.0619M819.521 90.0766H786.534M819.521 90.0766L826.228 95.3185M852.507 90.0766L845.371 85.0619M852.507 90.0766L859.962 95.3185M852.507 90.0766H885.486M813.096 85.0619H845.371M813.096 85.0619H780.829M813.096 85.0619L806.947 80.2599M786.534 90.0766L780.829 85.0619M786.534 90.0766L792.501 95.3185M826.228 95.3185H859.962M826.228 95.3185H792.501M845.371 85.0619L838.54 80.2599M845.371 85.0619H877.638M859.962 95.3185H893.688M885.486 90.0766L877.638 85.0619M885.486 90.0766L893.688 95.3185M885.486 90.0766H918.472M780.829 85.0619L775.362 80.2599M806.947 80.2599H838.54M806.947 80.2599H775.362M806.947 80.2599L801.053 75.6568M838.54 80.2599L831.985 75.6568M838.54 80.2599H870.125M877.638 85.0619L870.125 80.2599M877.638 85.0619H909.906M795.398 71.2402H825.705M795.398 71.2402L789.968 67.0001M795.398 71.2402H765.098M795.398 71.2402L801.053 75.6568M825.705 71.2402L819.673 67.0001M825.705 71.2402L831.985 75.6568M825.705 71.2402H856.006M789.968 67.0001H819.673M789.968 67.0001H760.27M789.968 67.0001L784.756 62.9247M765.098 71.2402L760.27 67.0001M765.098 71.2402L770.121 75.6568M801.053 75.6568H831.985M801.053 75.6568H770.121M819.673 67.0001L813.873 62.9247M819.673 67.0001H849.371M831.985 75.6568H862.916M856.006 71.2402L849.371 67.0001M856.006 71.2402L862.916 75.6568M856.006 71.2402H886.313M760.27 67.0001L755.632 62.9247M784.756 62.9247H813.873M784.756 62.9247H755.632M784.756 62.9247L779.732 59.0062M813.873 62.9247L808.98 59.4875L808.298 59.0062M813.873 62.9247H842.997M849.371 67.0001L842.997 62.9247M849.371 67.0001H879.076M774.905 55.2343H802.933M774.905 55.2343L770.252 51.6025M774.905 55.2343H746.877M774.905 55.2343L776.096 56.1635L776.698 56.6324L779.732 59.0062M802.933 55.2343L797.764 51.6025M802.933 55.2343L808.298 59.0062M802.933 55.2343H830.961M770.252 51.6025H797.764M770.252 51.6025H742.746M770.252 51.6025L765.773 48.1013M746.877 55.2343L742.746 51.6025M746.877 55.2343L751.175 59.0055M779.732 59.0062H808.298M779.732 59.0062L751.175 59.0055M797.764 51.6025L792.785 48.1013M797.764 51.6025H825.277M808.298 59.0062H836.863M830.961 55.2343L825.277 51.6025M830.961 55.2343L836.863 59.0062M830.961 55.2343H858.989M742.746 51.6025L738.761 48.1013M765.773 48.1013H792.785M765.773 48.1013H738.761M765.773 48.1013L761.446 44.725M792.785 48.1013L787.979 44.725M792.785 48.1013H819.796M825.277 51.6025L819.796 48.1013M825.277 51.6025H852.782M783.348 41.4664H757.28L753.251 38.3195M753.251 38.3195H778.869M753.251 38.3195L749.832 35.6539L749.352 35.2793M753.251 38.3195H727.625M731.212 41.4656H757.28L761.446 44.725M731.212 41.4656L727.625 38.3195M731.212 41.4656L734.914 44.7243M761.446 44.725H787.979M761.446 44.725L734.914 44.7243M783.348 41.4656L779.972 39.0962L779.42 38.7064L778.869 38.3195M783.348 41.4656L787.979 44.725M783.348 41.4656H809.408M778.869 38.3195H804.487M778.869 38.3195L774.542 35.2793M787.979 44.725L814.512 44.7243M809.408 41.4656L804.487 38.3195M809.408 41.4656L814.512 44.7243M809.408 41.4656H835.476M749.352 35.2793H774.542M749.352 35.2793H724.167M727.625 38.3195L725.021 36.0299L724.167 35.2793M804.487 38.3195H830.105M804.487 38.3195L799.732 35.2793M774.542 35.2793H799.732M1043.59 139.893L1029.97 132.526M1043.59 139.893H1003.52M1043.59 139.893L1051.58 144.214M1043.59 139.893H1051.58M1029.97 132.526H990.941M1029.97 132.526L1017.03 125.534M1029.97 132.526H1051.58M1003.52 139.893L990.941 132.526M1003.52 139.893L1016.79 147.667M1051.58 144.214V139.893M1051.58 144.214V147.667M1051.58 139.893V132.526M990.941 132.526L979.007 125.534M1017.03 125.534L1004.75 118.89M1017.03 125.534H979.007M1017.03 125.534H1051.58M1051.58 132.526V125.534M993.053 112.568H1029.23M993.053 112.568L981.918 106.546M993.053 112.568H956.873M993.053 112.568L1004.75 118.89M1029.23 112.568L1017.24 106.546M1029.23 112.568L1041.83 118.89M1029.23 112.568H1051.58M981.918 106.546H1017.24M981.918 106.546H946.587M981.918 106.546L971.29 100.802M956.873 112.568L946.587 106.546M956.873 112.568L967.66 118.89M1004.75 118.89H1041.83M1004.75 118.89H967.66M1017.24 106.546L1005.8 100.802M1017.24 106.546H1051.58M1041.83 118.89L1051.58 123.787M1041.83 118.89H1051.58M1051.58 112.568H1051.85M1051.58 112.568V106.546M1051.58 112.568V118.89M946.587 106.546L936.779 100.802M971.29 100.802H1005.8M971.29 100.802H936.779M971.29 100.802L961.149 95.3185M1005.8 100.802L994.875 95.3185M1005.8 100.802H1040.31M1051.58 106.546V106.085M951.458 90.0766H984.437M951.458 90.0766L942.18 85.0619M951.458 90.0766H918.472M951.458 90.0766L961.149 95.3185M984.437 90.0766L974.448 85.0619M984.437 90.0766L994.875 95.3185M984.437 90.0766H1017.42M942.18 85.0619H974.448M942.18 85.0619H909.906M942.18 85.0619L933.295 80.2599M918.472 90.0766L909.906 85.0619M918.472 90.0766L927.422 95.3185M961.149 95.3185H994.875M961.149 95.3185H927.422M974.448 85.0619L964.887 80.2599M974.448 85.0619H1006.72M994.875 95.3185H1028.61M1017.42 90.0766L1006.72 85.0619M1017.42 90.0766L1028.61 95.3185M1017.42 90.0766H1050.4M909.906 85.0619L901.71 80.2599M933.295 80.2599H964.887M933.295 80.2599H901.71M933.295 80.2599L924.78 75.6568M964.887 80.2599L955.719 75.6568M964.887 80.2599H996.472M1006.72 85.0619L996.472 80.2599M1006.72 85.0619H1038.99M916.613 71.2402H946.921M916.613 71.2402L908.773 67.0001M916.613 71.2402H886.313M916.613 71.2402L924.78 75.6568M946.921 71.2402L938.471 67.0001M946.921 71.2402L955.719 75.6568M946.921 71.2402H977.221M908.773 67.0001H938.471M908.773 67.0001H879.076M908.773 67.0001L901.238 62.9247M886.313 71.2402L879.076 67.0001M886.313 71.2402L893.848 75.6568M924.78 75.6568H955.719M924.78 75.6568H893.848M938.471 67.0001L930.355 62.9247M938.471 67.0001H968.176M955.719 75.6568H986.651M977.221 71.2402L968.176 67.0001M977.221 71.2402L986.651 75.6568M977.221 71.2402H1007.53M879.076 67.0001L872.114 62.9247M901.238 62.9247H930.355M901.238 62.9247H872.114M901.238 62.9247L893.986 59.0062M930.355 62.9247L922.551 59.0062M930.355 62.9247H959.479M968.176 67.0001L959.479 62.9247M968.176 67.0001H997.873M887.01 55.2343H915.038M887.01 55.2343L880.295 51.6025M887.01 55.2343H858.989M887.01 55.2343L893.986 59.0062M915.038 55.2343L907.8 51.6025M915.038 55.2343L922.551 59.0062M915.038 55.2343H943.066M880.295 51.6025H907.8M880.295 51.6025H852.782M880.295 51.6025L873.82 48.1013M858.989 55.2343L853.545 52.0482L852.782 51.6025M858.989 55.2343L865.428 59.0055M893.986 59.0062H922.551M893.986 59.0062L865.428 59.0055M907.8 51.6025L900.832 48.1013M907.8 51.6025H935.313M922.551 59.0062H951.116M943.066 55.2343L935.313 51.6025M943.066 55.2343L951.116 59.0062M943.066 55.2343H971.094M852.782 51.6025L846.808 48.1013M873.82 48.1013H900.832M873.82 48.1013H846.808M873.82 48.1013L867.577 44.725M900.832 48.1013L894.102 44.725M900.832 48.1013H927.843M935.313 51.6025L927.843 48.1013M935.313 51.6025H962.826M887.612 41.4664H861.544L855.73 38.3195M855.73 38.3195H881.348M855.73 38.3195L850.104 35.2793M855.73 38.3195H830.105M835.476 41.4656H861.544L867.577 44.725M835.476 41.4656L830.105 38.3195M835.476 41.4656L841.044 44.7243M867.577 44.725H894.102M867.577 44.725L841.044 44.7243M887.612 41.4656L881.348 38.3195M887.612 41.4656L894.102 44.725M887.612 41.4656H913.68M881.348 38.3195H906.966M881.348 38.3195L875.293 35.2793M894.102 44.725L920.635 44.7243M913.68 41.4656L906.966 38.3195M913.68 41.4656L920.635 44.7243M913.68 41.4656H939.749M850.104 35.2793H875.293M850.104 35.2793H824.914M830.105 38.3195L824.914 35.2793M906.966 38.3195H932.591M906.966 38.3195L900.476 35.2793M875.293 35.2793H900.476M1037.83 71.2402L1027.57 67.0001M1037.83 71.2402H1007.53M1037.83 71.2402L1048.51 75.6568M1037.83 71.2402H1051.58M1027.57 67.0001H997.873M1027.57 67.0001L1017.72 62.9247M1027.57 67.0001H1051.58M1007.53 71.2402L997.873 67.0001M1007.53 71.2402L1017.58 75.6568M1048.51 75.6568H1017.58M1048.51 75.6568H1051.58M1048.51 75.6568L1051.58 76.9264M1051.58 71.2402V67.0001M1051.58 71.2402V75.6568M997.873 67.0001L988.596 62.9247M1017.72 62.9247H1046.84M1017.72 62.9247H988.596M1017.72 62.9247L1008.24 59.0062M1051.58 67.0001V64.7773M999.122 55.2343H1027.14M999.122 55.2343L990.331 51.6025M999.122 55.2343H971.094M999.122 55.2343L1008.24 59.0062M1027.14 55.2343L1017.84 51.6025M1027.14 55.2343L1036.8 59.0062M1027.14 55.2343H1051.58M990.331 51.6025H1017.84M990.331 51.6025H962.826M990.331 51.6025L981.867 48.1013M971.094 55.2343L962.826 51.6025M971.094 55.2343L979.675 59.0062M1008.24 59.0062H1036.8M1008.24 59.0062H979.675M1017.84 51.6025L1008.88 48.1013M1017.84 51.6025H1045.35M1036.8 59.0062L1046.84 62.9247M1036.8 59.0062H1051.58M1051.58 55.2343H1051.67M1051.58 55.2343V53.9066M1051.58 55.2343V59.0062M962.826 51.6025L954.855 48.1013M981.867 48.1013H1008.88M981.867 48.1013H954.855M981.867 48.1013L973.7 44.725M1008.88 48.1013L1000.23 44.725M1008.88 48.1013H1035.89M1045.35 51.6025L1035.89 48.1013M1045.35 51.6025L1051.58 53.9066M1045.35 51.6025H1051.58M991.885 41.4664H965.817L958.209 38.3195M958.209 38.3195H983.827M958.209 38.3195L950.855 35.2793M958.209 38.3195H932.591M939.749 41.4656H965.817L973.7 44.725M939.749 41.4656L932.591 38.3195M939.749 41.4656L947.167 44.7243M973.7 44.725H1000.23M973.7 44.725L947.167 44.7243M991.885 41.4656L983.827 38.3195M991.885 41.4656L1000.23 44.725M991.885 41.4656H1017.95M983.827 38.3195H1009.44M983.827 38.3195L976.045 35.2793M1000.23 44.725L1026.77 44.7243M1017.95 41.4656L1009.44 38.3195M1017.95 41.4656L1026.77 44.7243M1017.95 41.4656H1044.02M950.855 35.2793H976.045M950.855 35.2793H925.666M932.591 38.3195L925.666 35.2793M1009.44 38.3195H1035.07M1009.44 38.3195L1001.23 35.2793M976.045 35.2793H1001.23M1026.77 44.7243L1035.89 48.1013M1026.77 44.7243H1051.58M1044.02 41.4656L1035.07 38.3195M1044.02 41.4656L1051.58 44.1232M1035.07 38.3195L1026.42 35.2793M1035.07 38.3195H1051.58M1001.23 35.2793H1026.42M1001.23 35.2793L993.286 32.3393M1035.89 48.1013H1051.58M1051.58 44.7243V44.1232M1051.58 44.7243V48.1013M1051.58 44.1232V41.4656V38.3195M1044.02 41.4664H1051.58M1026.42 35.2793L1018.05 32.3393M1026.42 35.2793H1051.58M1051.58 38.3195V35.2793M1051.58 35.2793H1051.61L1051.58 35.2727M1051.58 35.2793V35.2727M1051.58 53.9066V51.6025M1051.58 51.6025V48.1013M954.855 48.1013L947.167 44.7243M954.855 48.1013H927.843M947.167 44.7243H920.635M1046.84 62.9247L1051.58 64.7773M1046.84 62.9247H1051.58M1051.58 59.0062V62.9247M1051.58 64.7773V62.9247M988.596 62.9247L979.675 59.0062M988.596 62.9247H959.479M979.675 59.0062H951.116M920.635 44.7243L927.843 48.1013M900.476 35.2793H925.666M925.666 35.2793L918.98 32.3393M846.808 48.1013L841.044 44.7243M846.808 48.1013H819.796M841.044 44.7243H814.512M951.116 59.0062L959.479 62.9247M872.114 62.9247L865.428 59.0055M872.114 62.9247H842.997M865.428 59.0055L836.863 59.0062M986.651 75.6568L996.472 80.2599M986.651 75.6568H1017.58M1017.58 75.6568L1028.06 80.2599M996.472 80.2599H1028.06M1028.06 80.2599L1038.99 85.0619M1028.06 80.2599H1051.58M1051.58 75.6568V76.9264M1051.58 76.9264V80.2599M1038.99 85.0619L1050.4 90.0766M1038.99 85.0619H1051.58M901.71 80.2599L893.848 75.6568M901.71 80.2599H870.125M1051.58 80.2599H1051.75M1051.58 80.2599V85.0619M893.848 75.6568H862.916M1028.61 95.3185L1040.31 100.802M1028.61 95.3185H1051.58M1050.4 90.0766L1051.58 90.5942M1050.4 90.0766H1051.58M1051.58 85.0619V90.0766M1051.58 90.5942L1051.87 90.719M1051.58 90.5942V90.0766M1051.58 90.5942V95.3185M1040.31 100.802H1051.58M1040.31 100.802L1051.58 106.085M1051.58 95.3185V100.802M1051.58 100.802V106.085M936.779 100.802L927.422 95.3185M936.779 100.802H902.269M927.422 95.3185H893.688M1051.58 123.787L1051.69 123.842M1051.58 123.787V118.89M1051.58 123.787V125.534M967.66 118.89H930.58M967.66 118.89L979.007 125.534M814.512 44.7243L819.796 48.1013M799.732 35.2793H824.914M799.732 35.2793L795.129 32.3393M824.914 35.2793L824.283 34.9061L823.012 34.1657L819.898 32.34M819.898 32.34L795.129 32.3407M738.761 48.1013L734.914 44.7243M738.761 48.1013H711.749M734.914 44.7243H708.386M836.863 59.0062L842.997 62.9247M755.632 62.9247L751.175 59.0055M755.632 62.9247H726.515M751.175 59.0055L722.609 59.0062M862.916 75.6568L870.125 80.2599M775.362 80.2599L770.121 75.6568M775.362 80.2599H743.777M770.121 75.6568H739.189M893.688 95.3185L902.269 100.802M798.745 100.802L792.501 95.3185M798.745 100.802H764.234M792.501 95.3185H758.775M930.58 118.89L940.975 125.534M940.975 125.534H979.007M826.896 125.534L819.332 118.89M826.896 125.534H788.865M819.332 118.89H782.244M975.617 147.667L988.473 155.882M975.617 147.667H1016.79M1016.79 147.667L1030.82 155.882M1016.79 147.667H1051.58M988.473 155.882H1030.82M1030.82 155.882L1045.66 164.577M1030.82 155.882H1051.58M1051.58 147.667V155.882M1045.66 164.577H1051.58M1045.66 164.577L1051.58 168.045M861.436 155.882L852.086 147.667M861.436 155.882H819.085M1051.58 155.882V164.577M852.086 147.667H810.904M1031.83 183.586L1048.13 194.004M1031.83 183.586H1051.58M1051.58 173.796V168.045M1051.58 173.796V183.586M1051.58 164.577V168.045M1048.13 194.004L1051.58 196.21M1048.13 194.004H1051.58M1051.58 183.586V194.004M1051.58 196.21V194.004M904.824 194.004L892.963 183.586M904.824 194.004H857.051M892.963 183.586H846.677M1051.58 229.684V230.006M1051.58 230.006V243.325M945.433 229.684H892.585M945.433 229.684L960.96 243.325M708.386 44.7243L709.216 45.5569L711.749 48.1013M698.98 35.2793H724.167M698.98 35.2793L696.053 32.3393M724.167 35.2793L722.9 34.1657L720.821 32.34M720.821 32.34L696.053 32.3407M630.713 48.1013L630.227 47.2455L628.793 44.7243M630.713 48.1013H603.702M628.793 44.7243L602.262 44.725M722.609 59.0062L726.515 62.9247M639.15 62.9247L638.867 62.4268L638.584 61.931L636.919 59.0055M639.15 62.9247H610.029M636.919 59.0055H608.356M739.189 75.6568L743.777 80.2599M649.015 80.2599L646.396 75.6568M649.015 80.2599H617.428M646.396 75.6568H615.463M758.775 95.3185L764.234 100.802M660.705 100.802L657.585 95.3185M660.705 100.802H626.196M657.585 95.3185H623.856M782.244 118.89L788.865 125.534M674.78 125.534L670.999 118.89M674.78 125.534H636.752M670.999 118.89H633.916M810.904 147.667L819.085 155.882M692.051 155.882L687.376 147.667M692.051 155.882H649.704M687.376 147.667H646.198M846.677 183.586L857.051 194.004M713.745 194.004L707.816 183.586M713.745 194.004H665.975M707.816 183.586H661.529M892.585 229.684L906.174 243.325M906.174 243.325H960.96M741.81 243.325L734.05 229.684M741.81 243.325H687.027M734.05 229.684H681.205M953.65 291.001L972.205 309.63M953.65 291.001H1015.22M995.703 273.849L1015.22 291.001M995.703 273.849H1051.58M1015.22 291.001L1036.43 309.63M1015.22 291.001H1051.58M1051.58 273.849V291.001M972.205 309.63H1036.43M1036.43 309.63H1051.58M1036.43 309.63L1051.58 322.948M1051.58 291.001V309.63M1051.58 329.935V322.948M1051.58 329.935V352.152M779.544 309.63L768.945 291.001M779.544 309.63H715.327M1051.58 309.63V322.948M768.945 291.001H707.376M1038.87 376.567L1051.58 389.336M1038.87 376.567H1051.58M1051.58 352.152V376.567M988.131 403.519H910.552M988.131 403.519H1051.58M1051.58 389.336V376.567M1051.58 389.336V403.519M910.552 403.519H832.979M1051.58 403.519V403.615H-6.24876V403.519M832.979 403.519L817.64 376.567M832.979 403.519H755.399M817.64 376.567H743.893M602.262 44.725L602.438 45.1403L602.616 45.5569L602.795 45.9765L602.975 46.3976L603.702 48.1013M598.23 35.2793L598.071 34.9061L597.754 34.1657L597.441 33.4303L597.285 33.0652L596.975 32.3393M598.23 35.2793H623.417M623.417 35.2793L621.951 32.7022L621.744 32.3393M522.667 48.102V44.7243M522.667 48.102L495.656 48.1013M522.667 44.7243L496.136 44.725M608.356 59.0055L610.029 62.9247M522.667 62.9247V59.0055M522.667 62.9247H493.547M522.667 59.0055L494.104 59.0062M615.463 75.6568L617.428 80.2599M522.667 80.2599V75.6568M522.667 80.2599H491.081M522.667 75.6568H491.735M623.856 95.3185L626.196 100.802M522.667 100.802V95.3185M522.667 100.802H488.157M522.667 95.3185H488.938M633.916 118.89L636.752 125.534M522.667 125.534V118.89M522.667 125.534H484.64M522.667 118.89H485.584M646.198 147.667L649.704 155.882M522.667 155.882V147.667M522.667 155.882H480.322M522.667 147.667H481.49M661.529 183.586L665.975 194.004M522.667 194.004V183.586M522.667 194.004H474.898M522.667 183.586H476.38M681.205 229.684L687.027 243.325M522.667 243.325V229.684M522.667 243.325H467.881M522.667 229.684H469.821M707.376 291.001L715.327 309.63M522.667 309.63V291.001M522.667 309.63H458.447M522.667 291.001H461.098M743.893 376.567L755.399 403.519M677.822 403.519H755.399M677.822 403.519H600.245M600.245 403.519H522.667M522.667 403.519V376.567M522.667 403.519H445.09M522.667 376.567H448.924M496.136 44.725L496.077 45.1403L496.018 45.5569L495.958 45.9765L495.656 48.1013M497.48 35.2793H522.667M497.48 35.2793L497.638 34.1657L497.691 33.7969L497.898 32.34M522.667 35.2793V32.3393M497.898 32.34L522.667 32.3407M414.621 48.1013L415.107 47.2455L416.542 44.7243M414.621 48.1013H387.609M416.542 44.7243H390.011M494.104 59.0062L493.547 62.9247M406.184 62.9247L408.415 59.0055M406.184 62.9247H377.064M408.415 59.0055L379.852 59.0062M491.735 75.6568L491.574 76.7892L491.247 79.0911L491.081 80.2599M396.32 80.2599L398.939 75.6568M396.32 80.2599H364.732M398.939 75.6568H368.007M488.938 95.3185L488.157 100.802M384.629 100.802L387.749 95.3185M384.629 100.802H350.12M387.749 95.3185H354.021M485.584 118.89L484.64 125.534M370.554 125.534L374.336 118.89M370.554 125.534H332.527M374.336 118.89H337.253M481.49 147.667L480.322 155.882M353.284 155.882L357.959 147.667M353.284 155.882H310.938M357.959 147.667H316.782M476.38 183.586L474.898 194.004M331.59 194.004L337.518 183.586M331.59 194.004H283.821M337.518 183.586H291.231M469.821 229.684L467.881 243.325M303.522 243.325L311.285 229.684M303.522 243.325H248.736M311.285 229.684H258.439M461.098 291.001L458.447 309.63M265.789 309.63L276.39 291.001M265.789 309.63H201.569M276.39 291.001H214.82M448.924 376.567L445.09 403.519M367.513 403.519H445.09M367.513 403.519H289.935M289.935 403.519H212.358M212.358 403.519L227.696 376.567M212.358 403.519H134.781M227.696 376.567H153.954M390.011 44.7243L387.609 48.1013M396.73 35.2793H421.917M396.73 35.2793L398.304 33.0652L398.821 32.3393M421.917 35.2793L422.129 34.9061L422.551 34.1657L423.59 32.34M423.59 32.34L398.821 32.3407M306.574 48.1013L310.416 44.7243M306.574 48.1013H279.562M310.416 44.7243H283.885M379.852 59.0062L377.064 62.9247M289.702 62.9247L293.614 59.4875L294.162 59.0055M289.702 62.9247H260.582M294.162 59.0055L265.598 59.0062M368.007 75.6568L364.732 80.2599M269.971 80.2599L275.211 75.6568M269.971 80.2599H238.385M275.211 75.6568H244.279M354.021 95.3185L350.12 100.802M246.591 100.802L252.832 95.3185M246.591 100.802H212.082M252.832 95.3185H219.104M337.253 118.89L332.527 125.534M218.442 125.534L226.004 118.89M218.442 125.534H180.414M226.004 118.89H188.921M316.782 147.667L310.938 155.882M183.901 155.882L193.251 147.667M183.901 155.882H141.556M193.251 147.667H152.074M291.231 183.586L283.821 194.004M140.513 194.004L152.369 183.586M152.369 183.586H106.082M258.439 229.684L248.736 243.325M84.3767 243.325L99.9013 229.684M84.3767 243.325H29.5902M99.9013 229.684H47.056M214.82 291.001L201.569 309.63M8.90931 309.63L30.1122 291.001M8.90931 309.63H-6.24804M8.90931 309.63L-6.24804 322.948M30.1122 291.001H-6.24876M153.954 376.567L134.781 403.519M57.2023 403.519H134.781M57.2023 403.519H-6.24876M-6.24876 403.519L-6.24804 389.336M-6.24804 389.336L-6.24876 376.567M283.885 44.7243L279.562 48.1013M295.98 35.2793L296.457 34.9061L299.744 32.34M295.98 35.2793H321.167M321.167 35.2793L322.435 34.1657L324.513 32.34M299.744 32.34H324.513M198.527 48.1013H171.515M265.598 59.0062L260.582 62.9247M173.219 62.9247L179.909 59.0055M173.219 62.9247H144.099M179.909 59.0055L151.346 59.0062M244.279 75.6568L238.385 80.2599M143.624 80.2599L151.483 75.6568M143.624 80.2599H112.037M151.483 75.6568H120.551M219.104 95.3185L212.082 100.802M108.553 100.802L117.915 95.3185M108.553 100.802H74.0431M117.915 95.3185H84.1857M188.921 118.89L180.414 125.534M66.3294 125.534L77.672 118.89M66.3294 125.534H28.301M77.672 118.89H40.5895M152.074 147.667L141.556 155.882M14.5178 155.882L28.5435 147.667M14.5178 155.882H-6.24876M28.5435 147.667H-6.24876M106.082 183.586L92.743 194.004M92.743 194.004H140.512M-6.24876 194.004H-2.79553L-6.24876 196.21M-6.24876 194.004V196.21M-6.24876 194.004V183.586M47.056 229.684L29.5902 243.325M-6.24876 229.684V230.006M-6.24876 230.006V243.325M29.5902 243.325L10.7924 258.005M29.5902 243.325H-6.24876M10.7924 258.005H-6.24876M10.7924 258.005L-6.24876 271.314M-6.24876 258.005V271.314M-6.24876 258.005V243.325M-6.24876 271.314V273.849M-6.24876 273.849V291.001M-6.24876 291.001L-6.24804 309.63M-6.24804 309.63V322.948M151.228 44.7243L144.503 48.1013M151.228 44.7243H177.76M151.228 44.7243H124.697M177.76 44.7243L183.787 41.4656M177.76 44.7243L171.515 48.1013M177.76 44.7243H204.291L209.855 41.4656M183.787 41.4656L189.606 38.3195M183.787 41.4656H209.855M189.606 38.3195L195.229 35.2793M195.229 35.2793H170.042M195.229 35.2793L195.918 34.9061L200.665 32.34M195.229 35.2793H220.417M170.042 35.2793L175.896 32.3393M220.417 35.2793L221.053 34.9061L225.435 32.34M225.435 32.34L200.666 32.3407M90.481 48.1013L63.4692 48.102M151.346 59.0062L144.099 62.9247M56.7363 62.9247L65.6579 59.0062H37.0941M56.7363 62.9247H27.6157M120.551 75.6568L112.037 80.2599M17.2763 80.2599L27.7558 75.6568M17.2763 80.2599H-6.24876M27.7558 75.6568H-3.17591M84.1857 95.3185L74.0431 100.802M-6.24804 95.3185L-6.24876 90.5942M40.5895 118.89L28.301 125.534M-6.24876 118.89V123.787M-6.24876 123.787L-6.3562 123.842M-6.24876 123.787V125.534M28.301 125.534L15.3693 132.526M28.301 125.534H-6.24876M15.3693 132.526L1.74442 139.893M15.3693 132.526H-6.24804M1.74442 139.893H-6.24876M1.74442 139.893L-6.24876 144.214M-6.24804 132.526L-6.24876 139.893M-6.24804 132.526L-6.24876 125.534M-6.24876 139.893V144.214M-6.24876 144.214V147.667M-6.24876 147.667V155.882M-6.24876 164.577V168.045M-6.24876 164.577V155.882M45.104 44.7243L36.4582 48.1013M45.104 44.7243H71.6352M71.6352 44.7243L79.5166 41.4656M71.6352 44.7243L63.4685 48.1013M71.6352 44.7243H98.1656M94.4794 35.2793H69.2919M94.4794 35.2793H119.666M94.4794 35.2793L101.588 32.3393M98.1656 44.7243L90.4802 48.1013M119.666 35.2793L126.358 32.3393M63.4692 48.102H36.4575H9.44578M63.4692 48.102L55.0013 51.6032M9.44578 48.102L18.5729 44.725L-6.24876 44.7243M9.44578 48.102H-6.24876M-6.24876 48.102V44.7243M-6.24876 44.7243V44.1232V41.4664V38.3187M37.0941 59.0062L27.6157 62.9247M-1.50483 62.9247H27.6157M-1.50483 62.9247L-6.24876 64.7773M-1.50483 62.9247H-6.24876M-6.24876 59.0062V62.9247M27.6157 62.9247L17.7613 67.0001M17.7613 67.0001L7.50537 71.2402M17.7613 67.0001H-6.24876M7.50537 71.2402L-3.17591 75.6568M7.50537 71.2402H-6.24876M-6.24876 67.0001V71.2402M-6.24876 67.0001V64.7773M-6.24876 64.7773V62.9247M-3.17591 75.6568L-6.24876 76.9264M-3.17591 75.6568H-6.24876M-6.24876 71.2402V75.6568M-6.24876 76.9264V80.2599M-6.24876 76.9264V75.6568M-6.24876 85.0619V90.0766M-6.24876 85.0619V80.2599M-6.24876 80.2599H-6.41355M-6.24876 90.0766V90.5942M-6.24876 90.5942L-6.53333 90.719M-6.24876 38.3187V35.28M44.1052 35.28H18.9177M18.9177 35.28L27.2803 32.34M18.9177 35.28H-6.24876M27.2803 32.34H2.51172M-6.24876 35.28L-6.27054 35.2793L-6.24876 35.2727M-6.24876 35.28V35.2727M993.286 32.3407H1018.05M621.744 32.3407H596.975M126.358 32.3407H101.589M11.0058 29.4973L2.51172 32.34M2.51172 32.34L-6.24876 35.2727M2.51172 32.34H-6.24876M-6.24876 35.2727V32.34M1051.58 35.2727V32.34" stroke="url(#paint0_linear_22005_30)" stroke-width="0.734638" stroke-miterlimit="10" stroke-linecap="round" stroke-linejoin="round"/>
</g>
</g>
</g>
<defs>
<linearGradient id="paint0_linear_22005_30" x1="522.667" y1="26.7446" x2="522.667" y2="290.978" gradientUnits="userSpaceOnUse">
<stop stop-color="#CED2DF" stop-opacity="0"/>
<stop offset="1" stop-color="#CED2DF"/>
</linearGradient>
<clipPath id="clip0_22005_30">
<rect width="1045.33" height="139.378" fill="white"/>
</clipPath>
<clipPath id="clip1_22005_30">
<rect width="1045.33" height="139.378" fill="white"/>
</clipPath>
<clipPath id="clip2_22005_30">
<rect width="1045.33" height="139.378" fill="white"/>
</clipPath>
</defs>
</svg>
