<svg width="70" height="15" viewBox="0 0 70 15" fill="none" xmlns="http://www.w3.org/2000/svg">
<g clip-path="url(#clip0_22005_193)">
<mask id="mask0_22005_193" style="mask-type:luminance" maskUnits="userSpaceOnUse" x="0" y="0" width="70" height="15">
<path d="M69.689 0H0V14.5185H69.689V0Z" fill="white"/>
</mask>
<g mask="url(#mask0_22005_193)">
<path d="M6.4008 3.26782C6.36055 3.21476 6.31477 3.18677 6.26373 3.18677C6.22617 3.18826 6.1898 3.20028 6.15875 3.22146C5.77207 3.52525 5.24308 4.81121 4.80945 6.50621L5.19322 6.51058C5.95141 6.51903 6.73411 6.52807 7.50807 6.53973C7.30394 5.76337 7.11117 5.09808 6.93445 4.56078C6.67607 3.77597 6.50169 3.42437 6.4008 3.26782Z" fill="#060B13"/>
<path d="M7.26172 0C3.25141 0 0.000488281 3.25005 0.000488281 7.25927C0.000488281 11.2685 3.25141 14.5185 7.26172 14.5185C11.272 14.5185 14.5229 11.2685 14.5229 7.25927C14.5229 3.25005 11.2717 0 7.26172 0ZM12.4816 7.39102L12.4798 7.39248C12.472 7.39894 12.4641 7.40474 12.4557 7.41055L12.4475 7.41614L12.4305 7.4263L12.4149 7.43538C12.3597 7.46427 12.2984 7.47937 12.2361 7.47937H8.79677C8.82421 7.59334 8.85506 7.72284 8.88686 7.8636C9.07524 8.67787 9.57627 10.8408 10.1082 10.8408H10.1196H10.1254H10.1356C10.5511 10.8408 10.7631 10.2402 11.228 8.92425L11.2335 8.90821C11.3081 8.69682 11.3924 8.45835 11.4837 8.20617L11.507 8.14178C11.5208 8.10541 11.5469 8.07499 11.5808 8.05583C11.6146 8.03666 11.6541 8.02998 11.6924 8.03688C11.7307 8.04385 11.7654 8.06396 11.7903 8.09372C11.8153 8.12356 11.8291 8.16116 11.8293 8.20007C11.8292 8.21626 11.8269 8.23237 11.8223 8.24784L11.8031 8.31259C11.7546 8.46917 11.703 8.68252 11.6435 8.92948C11.3665 10.0772 10.948 11.8113 9.87426 11.8113H9.86642C9.17266 11.8058 8.7583 10.697 8.58008 10.2236C8.24855 9.33825 7.99687 8.39483 7.75572 7.48111H4.58876L3.93146 9.58281L3.92184 9.57526C3.88315 9.63624 3.82571 9.68314 3.75813 9.70876C3.69056 9.73439 3.61649 9.73744 3.54703 9.71747C3.47758 9.69744 3.41649 9.65548 3.37291 9.59784C3.32934 9.5402 3.30564 9.46993 3.30536 9.3977V9.38631L3.34502 9.14842C3.43571 8.60789 3.54449 8.04697 3.66871 7.47995H2.33341L2.32845 7.47501C2.20925 7.45665 2.10052 7.39632 2.02188 7.30493C1.94322 7.21353 1.89982 7.09705 1.89949 6.97648C1.89884 6.85864 1.93977 6.74435 2.01507 6.6537C2.09039 6.56305 2.19526 6.50185 2.31125 6.48086C2.36316 6.47537 2.41536 6.47313 2.46755 6.47416C2.4868 6.47416 2.50838 6.47416 2.53258 6.47416C2.9563 6.48144 3.40742 6.48815 3.89909 6.49457C4.59692 3.65967 5.40528 2.22064 6.30199 2.21655C7.26434 2.21655 7.97792 4.40658 8.54916 6.54909L8.55148 6.55754C9.72523 6.58115 10.9763 6.61584 12.1926 6.70331L12.2436 6.70797C12.2632 6.70834 12.2827 6.71009 12.302 6.71322H12.3089L12.3151 6.71468H12.3183C12.3897 6.72916 12.4556 6.76363 12.5081 6.81409C12.5608 6.86454 12.5979 6.92889 12.6154 6.99964C12.6328 7.0704 12.6297 7.14464 12.6066 7.21373C12.5834 7.28279 12.5411 7.34391 12.4846 7.38986L12.4816 7.39102Z" fill="#060B13"/>
<path d="M18.552 9.0755L17.9763 10.4977H16.304L19.4861 3.0719H20.9631L24.1341 10.4979H22.4719L21.8962 9.07579L18.552 9.0755ZM20.2142 4.94998L19.1282 7.6534H21.3218L20.2142 4.94998Z" fill="#060B13"/>
<path d="M33.5599 7.64258V10.4979H32.0504V7.77296C32.0504 6.94788 31.6486 6.5027 30.9423 6.5027C30.6274 6.5027 30.2798 6.64381 29.9649 7.0782C29.9906 7.26532 30.0051 7.45377 30.0083 7.64258V10.4979H28.4995V7.77296C28.4995 6.94788 28.0976 6.5027 27.3808 6.5027C27.0892 6.5027 26.7618 6.67762 26.4579 7.08898V10.4979H24.9485V5.29749H26.4579V5.61235C26.7836 5.30828 27.1312 5.13452 27.7392 5.13452C28.4018 5.13452 28.9879 5.39516 29.4015 5.87269C29.9555 5.36251 30.4766 5.13452 31.2911 5.13452C32.5608 5.13452 33.5599 6.12254 33.5599 7.64258Z" fill="#060B13"/>
<path d="M40.1948 7.90291C40.1948 9.41189 39.0438 10.606 37.6102 10.606C37.0238 10.606 36.5351 10.4542 36.1335 10.1935V13.0054H34.6241V5.29717H36.1335V5.60124C36.5354 5.34061 37.0241 5.18872 37.6102 5.18872C39.0435 5.18901 40.1948 6.37236 40.1948 7.90291ZM38.7076 7.90291C38.7076 7.1321 38.143 6.45895 37.3609 6.45895C36.9156 6.45895 36.4703 6.61083 36.1338 7.06679V8.72858C36.4703 9.17372 36.9156 9.32565 37.3609 9.32565C38.1433 9.32478 38.7076 8.66296 38.7076 7.90291Z" fill="#060B13"/>
<path d="M42.5511 10.4977H41.0417V2.78973H42.5511V10.4977Z" fill="#060B13"/>
<path d="M43.9088 3.46293C43.9088 2.95274 44.3106 2.57257 44.8209 2.57257C45.3205 2.57257 45.7223 2.95157 45.7223 3.46293C45.7223 3.96233 45.3205 4.33142 44.8209 4.33142C44.3106 4.33142 43.9088 3.96233 43.9088 3.46293ZM45.5811 5.29757V10.498H44.0718V5.29757H45.5811Z" fill="#060B13"/>
<path d="M51.0647 10.4219C50.4348 10.6173 50.1525 10.6608 49.665 10.6608C48.4052 10.6608 47.58 9.77033 47.58 8.42432V6.56784H46.4835V5.29761H47.5803V3.4411H49.0789V5.29761H50.9574V6.56784H49.0789V8.41358C49.0789 8.99984 49.4372 9.27126 49.991 9.27126C50.2733 9.27126 50.5774 9.20622 50.8704 9.13014L51.0647 10.4219Z" fill="#060B13"/>
<path d="M57.1242 10.4978H55.6148V10.1286C55.1914 10.4651 54.7134 10.6607 54.1276 10.6607C52.7593 10.6607 51.8472 9.67269 51.8472 8.1637V5.29761H53.3565V8.02258C53.3565 8.84767 53.7692 9.29281 54.4752 9.29281C54.8542 9.29281 55.2678 9.06487 55.6154 8.64151V5.29761H57.1248L57.1242 10.4978Z" fill="#060B13"/>
<path d="M63.5316 10.4977H62.0222V10.1936C61.6204 10.4542 61.1316 10.6061 60.5452 10.6061C59.1116 10.6061 57.9498 9.42277 57.9498 7.89194C57.9498 6.38292 59.1119 5.18849 60.5452 5.18849C61.1316 5.18849 61.6204 5.34039 62.0222 5.60102V2.78973H63.5316V10.4977ZM62.0219 8.72835V7.06658C61.6854 6.6214 61.2401 6.46951 60.7948 6.46951C60.0022 6.46951 59.4481 7.13188 59.4481 7.89165C59.4481 8.66244 60.0022 9.33559 60.7948 9.33559C61.2392 9.33617 61.6854 9.18431 62.0219 8.72835Z" fill="#060B13"/>
<path d="M69.6564 8.28311H65.8231C65.9426 8.891 66.3445 9.3688 67.1697 9.3688C67.5932 9.3688 67.8864 9.2385 68.0493 8.97789H69.624C69.3417 9.97669 68.3642 10.6606 67.1371 10.6606C65.4647 10.6606 64.3352 9.4557 64.3352 7.90294C64.3352 6.2963 65.4539 5.13336 67.0937 5.13336C68.5809 5.13336 69.6891 6.18639 69.6891 7.79332C69.6915 7.95724 69.6805 8.12101 69.6564 8.28311ZM65.8338 7.39276H68.1905C68.1029 6.74148 67.7124 6.38318 67.1044 6.38318C66.3768 6.38318 65.975 6.80649 65.8338 7.39276Z" fill="#060B13"/>
</g>
</g>
<defs>
<clipPath id="clip0_22005_193">
<rect width="69.689" height="14.5185" fill="white"/>
</clipPath>
</defs>
</svg>
