<svg width="85" height="59" viewBox="0 0 85 59" fill="none" xmlns="http://www.w3.org/2000/svg">
<rect width="130.667" height="58.0741" rx="5.80741" fill="white"/>
<g clip-path="url(#clip0_22005_262)">
<mask id="mask0_22005_262" style="mask-type:luminance" maskUnits="userSpaceOnUse" x="8" y="22" width="81" height="14">
<path d="M88.0183 22.511H8.16638V35.5414H88.0183V22.511Z" fill="white"/>
</mask>
<g mask="url(#mask0_22005_262)">
<path fill-rule="evenodd" clip-rule="evenodd" d="M24.4655 22.521L8.27152 28.9709C8.23902 28.9844 8.21188 29.0083 8.19434 29.0389C8.17595 29.0665 8.16622 29.099 8.16639 29.1321C8.16605 29.1654 8.1758 29.1979 8.19434 29.2254C8.21297 29.2535 8.23998 29.275 8.27152 29.2867L13.0795 31.0232C13.1053 31.0335 13.1333 31.0367 13.1607 31.0324C13.1876 31.0282 13.2131 31.0177 13.2352 31.0018L22.3562 24.3467C22.3585 24.3457 22.361 24.3452 22.3636 24.3452C22.3661 24.3452 22.3685 24.3457 22.3709 24.3467C22.376 24.3481 22.3806 24.3508 22.3842 24.3547C22.3851 24.3568 22.3855 24.3591 22.3855 24.3614C22.3855 24.3636 22.3851 24.3659 22.3842 24.368C22.3861 24.3727 22.3861 24.378 22.3842 24.3827L14.3105 31.415C14.2919 31.4312 14.2769 31.4511 14.2666 31.4736C14.2569 31.4962 14.2524 31.5208 14.2533 31.5455V35.2902C14.2523 35.3241 14.2626 35.3574 14.2825 35.3848C14.3025 35.4127 14.3303 35.434 14.3624 35.4461C14.3945 35.4576 14.4294 35.4585 14.4621 35.4489C14.4949 35.4394 14.5237 35.4198 14.5447 35.3928L16.8749 32.517C16.8966 32.4907 16.9258 32.4716 16.9587 32.4624C16.9916 32.4517 17.0269 32.4517 17.0599 32.4624L20.0301 33.5405C20.0693 33.5564 20.1133 33.5564 20.1525 33.5405C20.1911 33.5227 20.2218 33.4914 20.239 33.4525L24.6811 22.7369C24.693 22.7073 24.6957 22.6748 24.6891 22.6436C24.6834 22.6117 24.6681 22.5824 24.6451 22.5597C24.6229 22.5362 24.5941 22.5199 24.5626 22.513C24.531 22.5061 24.4981 22.5089 24.4682 22.521" fill="#060B13"/>
<path d="M29.5834 23.8212H28.1195L28.1409 32.7497H29.6047L29.5834 23.8212Z" fill="#060B13"/>
<path d="M34.1919 26.325C33.4521 26.325 32.7747 26.5915 32.3502 27.1246V26.4583H30.9702L30.9862 32.7483H32.3662L32.3555 28.5838C32.4842 28.2833 32.6994 28.028 32.9737 27.8504C33.2479 27.6729 33.5687 27.5812 33.8952 27.587C34.7734 27.587 35.2765 28.212 35.2792 29.2061L35.2872 32.7483H36.6672L36.6579 28.9863C36.6579 27.3605 35.697 26.3303 34.1919 26.3343" fill="#060B13"/>
<path d="M42.3681 26.4317L40.4572 30.84L38.5395 26.4424H37.0092L39.8597 32.7257H41.0773L43.9079 26.4277L42.3681 26.4317Z" fill="#060B13"/>
<path d="M47.3333 26.2944C46.5291 26.3077 45.7585 26.6198 45.1712 27.1701C44.5839 27.7204 44.2218 28.4697 44.1551 29.2723C44.0884 30.075 44.322 30.8738 44.8104 31.5138C45.2989 32.1537 46.0073 32.589 46.7982 32.7352C47.5892 32.8814 48.4062 32.7281 49.0906 32.305C49.775 31.8819 50.278 31.2192 50.5019 30.4456C50.7257 29.672 50.6546 28.8427 50.3022 28.1186C49.9497 27.3946 49.3412 26.8276 48.5948 26.5276C48.1941 26.3661 47.7651 26.2868 47.3333 26.2944ZM47.3453 31.553C46.2301 31.553 45.449 30.6894 45.4476 29.57C45.4463 28.4506 46.2168 27.5804 47.3359 27.571C48.4551 27.5617 49.2203 28.4359 49.2229 29.5553C49.2256 30.6747 48.4498 31.5436 47.3493 31.5463L47.3453 31.553Z" fill="#060B13"/>
<path d="M52.9888 26.4011H51.6088L51.626 32.691H53.0048L52.9888 26.4011Z" fill="#060B13"/>
<path d="M52.9888 23.9756H51.6088V25.2525H52.9888V23.9756Z" fill="#060B13"/>
<path d="M57.3885 27.5523C57.751 27.5498 58.1064 27.6526 58.4118 27.8482C58.7172 28.0438 58.9594 28.3238 59.1091 28.6544L60.3068 27.9988C60.0263 27.4673 59.6042 27.0241 59.0874 26.7183C58.5706 26.4125 57.9793 26.256 57.3792 26.2663C55.5027 26.269 54.0789 27.6856 54.0789 29.5499C54.0789 31.4143 55.5227 32.8162 57.4058 32.8136C58.0058 32.8219 58.5964 32.6632 59.1116 32.3552C59.6269 32.0472 60.0466 31.602 60.3241 31.0691L59.1184 30.4135C58.9708 30.7453 58.7301 31.027 58.4257 31.2243C58.1211 31.4217 57.7658 31.5261 57.4031 31.5249C56.2879 31.5249 55.4948 30.6614 55.4922 29.5419C55.4895 28.4225 56.2786 27.5523 57.3952 27.543" fill="#060B13"/>
<path d="M64.3122 26.2504C62.4053 26.2504 61.0359 27.6817 61.0466 29.5313C61.0466 31.4383 62.4226 32.7989 64.3256 32.7949C65.6363 32.7949 66.6211 32.2219 67.1813 31.329L66.1327 30.5775C65.808 31.1305 65.2158 31.5356 64.3415 31.5382C63.3008 31.5382 62.4705 30.8626 62.4053 29.8312L67.329 29.8192C67.341 29.6193 67.341 29.5047 67.341 29.3661C67.341 27.3432 65.9531 26.2518 64.3109 26.2544L64.3122 26.2504ZM62.4625 28.8224C62.6487 27.8896 63.4605 27.4218 64.2657 27.4218C65.0708 27.4218 65.7961 27.9082 65.9491 28.8131L62.4625 28.8224Z" fill="#060B13"/>
<path d="M84.7514 26.2011H84.7022C84.2731 26.1978 83.8477 26.2799 83.4507 26.4427C83.0536 26.6054 82.6928 26.8457 82.3893 27.1494C82.0858 27.4531 81.8456 27.8141 81.6827 28.2116C81.5198 28.6091 81.4375 29.0351 81.4405 29.4647V29.4821C81.4378 29.9127 81.5208 30.3396 81.6849 30.7378C81.8488 31.1359 82.0903 31.4973 82.3954 31.8009C82.7004 32.1046 83.0628 32.3442 83.4614 32.506C83.86 32.6677 84.2868 32.7483 84.7168 32.743H84.7408C85.1705 32.749 85.5971 32.6688 85.9954 32.5072C86.3938 32.3456 86.7558 32.1059 87.0603 31.8022C87.3646 31.4987 87.6056 31.1376 87.7692 30.74C87.9328 30.3424 88.0157 29.9161 88.0131 29.4861V29.4647C88.0156 29.0357 87.9329 28.6105 87.7698 28.2138C87.6067 27.8171 87.3664 27.4568 87.063 27.154C86.7598 26.8506 86.3995 26.6105 86.0029 26.4479C85.6063 26.2852 85.1813 26.2032 84.7527 26.2065L84.7514 26.2011ZM84.7355 31.465C83.6189 31.465 82.8404 30.6015 82.8378 29.4834C82.8351 28.3653 83.6109 27.4925 84.7248 27.4845C85.8386 27.4765 86.6091 28.3493 86.6118 29.4687C86.6145 30.5881 85.8386 31.457 84.7355 31.4596V31.465Z" fill="#060B13"/>
<path d="M79.0516 26.3411V26.9195C78.6112 26.4677 77.9578 26.2185 77.2059 26.2199C75.3881 26.2199 74.0733 27.6218 74.06 29.3862C74.0513 29.8036 74.127 30.2185 74.2824 30.6059C74.4378 30.9934 74.6699 31.3454 74.9646 31.6407C75.2593 31.936 75.6106 32.1687 75.9973 32.3248C76.3841 32.4807 76.7984 32.5569 77.2152 32.5485C77.9697 32.5485 78.6205 32.282 79.0583 31.8142V32.5591C79.0583 33.5386 78.526 34.0624 77.8047 34.2222C76.0082 34.5447 74.8917 34.0023 74.8917 34.0023L74.4512 35.1325C75.0926 35.5323 77.0822 35.6469 78.0057 35.4429C79.3364 35.2084 80.4436 34.3369 80.4396 32.5711L80.4276 26.3398L79.0516 26.3411ZM79.0609 30.3923C78.8828 30.674 78.634 30.9039 78.3393 31.0589C78.0445 31.214 77.7142 31.2888 77.3815 31.2758C76.2917 31.2758 75.4986 30.4629 75.4852 29.3822C75.4784 29.1308 75.5237 28.8808 75.6183 28.6479C75.7103 28.4145 75.8488 28.2023 76.0255 28.0242C76.2022 27.8462 76.4131 27.7059 76.6455 27.612C76.878 27.5181 77.127 27.4724 77.3775 27.4778C77.7084 27.4647 78.0371 27.5373 78.3318 27.6885C78.6265 27.8398 78.8771 28.0647 79.0596 28.3414L79.0609 30.3923Z" fill="#060B13"/>
<path d="M69.9064 31.4652L71.7881 28.9065C72.1674 28.4095 72.7729 27.5739 72.8859 27.3913C73.4103 26.5238 73.4742 25.6123 73.019 24.7021C72.6478 23.9612 71.9917 23.6 71.1839 23.5027C70.0514 23.3588 68.8737 23.8839 68.3414 24.958C68.2176 25.1918 68.1365 25.4459 68.1018 25.7082L69.3089 25.9748C69.3275 25.9228 69.3448 25.8801 69.3567 25.8415C69.4142 25.6219 69.5199 25.418 69.6664 25.2448C69.813 25.0716 69.9963 24.9335 70.2032 24.8407C70.6437 24.6395 71.2757 24.7181 71.6164 25.0126C72.1873 25.5097 72.1793 26.3452 71.7654 26.8783C71.6962 26.9689 68.1245 31.5264 68.1245 31.5264C68.0909 31.5663 68.0729 31.617 68.0739 31.669V32.6778L73.3743 32.6646V31.4652H69.9064Z" fill="#060B13"/>
</g>
</g>
<defs>
<clipPath id="clip0_22005_262">
<rect width="79.8519" height="13.0304" fill="white" transform="translate(8.16638 22.511)"/>
</clipPath>
</defs>
</svg>
