<svg width="89" height="9" viewBox="0 0 89 9" fill="none" xmlns="http://www.w3.org/2000/svg">
<g clip-path="url(#clip0_22005_231)">
<path d="M8.95598 2.96216C8.95598 1.51737 7.99028 0.205026 6.15945 0.19437C4.92756 0.19437 1.23189 0.18219 0 0.18219V8.54495H1.46553V5.75431H5.34244L7.608 8.54495H9.34965V8.43838L6.99629 5.58684C8.47316 5.26408 8.96164 4.10703 8.96164 2.96216H8.95598ZM1.47119 4.33235V1.66048H6.16512C7.08549 1.66048 7.49614 2.32882 7.49614 2.99718C7.49614 3.66552 7.09683 4.33387 6.16512 4.33387L1.47119 4.33235Z" fill="#060B13"/>
<path d="M19.1084 0.185235C17.8879 0.185235 14.2035 0.197415 12.9829 0.197415V8.548H14.447V6.08772H19.1084C22.9145 6.08772 22.9032 0.18219 19.1084 0.18219V0.185235ZM19.1084 4.64445H14.447V1.68483H19.1084C20.9718 1.68483 20.9831 4.64445 19.1084 4.64445Z" fill="#060B13"/>
<path d="M45.8773 4.22715C46.598 3.88003 46.8869 3.2604 46.8869 2.61489C46.8869 0.940207 45.7442 0.194214 44.2121 0.194214H38.064V8.54477H44.2121C45.8206 8.54477 47.1191 7.94951 47.1191 6.08757C47.1191 5.56232 46.7863 4.52402 45.8773 4.22715ZM39.5054 1.62531H44.2107C45.1438 1.62531 45.4313 2.26929 45.4313 2.65143C45.4313 3.12795 45.1325 3.54662 44.2107 3.54662H39.5069L39.5054 1.62531ZM44.2107 7.07867H39.5069V4.93051H44.2121C44.8111 4.93051 45.6663 5.3233 45.6663 6.07539C45.6663 6.86249 44.8168 7.07867 44.2121 7.07867" fill="#060B13"/>
<path d="M52.0893 0.194214H50.6238V8.54629H58.5476V7.08932H52.0893V0.194214Z" fill="#060B13"/>
<path d="M63.5178 0.194214H62.0636V8.54629H63.5178V0.194214Z" fill="#060B13"/>
<path d="M74.4981 6.23827C74.2883 6.46239 74.0502 6.6531 73.7903 6.80462C73.4977 6.97147 73.187 7.09831 72.8655 7.18218C72.5002 7.27632 72.1255 7.32234 71.7498 7.31922C71.257 7.32793 70.7664 7.24762 70.2984 7.08169C69.9114 6.94165 69.5536 6.72187 69.2449 6.43465C68.9681 6.1716 68.7487 5.84621 68.6021 5.48161C68.4591 5.12592 68.3853 4.7425 68.3854 4.355C68.3846 3.9635 68.4584 3.57595 68.6021 3.21622C68.7487 2.85163 68.9681 2.52624 69.2449 2.26317C69.5537 1.97595 69.9129 1.75803 70.3012 1.62223C70.7694 1.45978 71.2593 1.38159 71.7512 1.39082C72.1093 1.38902 72.4666 1.43091 72.8161 1.51566C73.1261 1.59048 73.4273 1.70285 73.7141 1.8506C73.9718 1.98427 74.2106 2.15818 74.4218 2.36671C74.5489 2.4949 74.6643 2.63614 74.7659 2.78842L76.0007 2.0546C75.8439 1.81114 75.6639 1.58655 75.4621 1.38473C75.1768 1.09804 74.8574 0.85333 74.5126 0.657006C74.1286 0.44054 73.7199 0.277838 73.2974 0.172869C72.8154 0.0546434 72.3221 -0.00308796 71.8276 0.000833004C71.118 -0.0108282 70.4119 0.109704 69.7405 0.357086C69.1766 0.565935 68.6551 0.888922 68.2041 1.30861C67.8016 1.6891 67.4792 2.15748 67.2583 2.68253C67.0374 3.20757 66.9231 3.77722 66.9231 4.35349C66.9231 4.92975 67.0374 5.4994 67.2583 6.02445C67.4792 6.5495 67.8016 7.01787 68.2041 7.39834C68.6547 7.81873 69.1763 8.14177 69.7405 8.34989C70.4089 8.59779 71.1121 8.71982 71.8191 8.71067C72.3292 8.71518 72.8379 8.65333 73.3344 8.52651C73.7663 8.41428 74.183 8.2418 74.5736 8.01342C74.9249 7.80915 75.248 7.55289 75.5332 7.25221C75.7401 7.03164 75.9231 6.78588 76.077 6.51991L74.8364 5.78915C74.7398 5.95435 74.6266 6.10752 74.4981 6.24588" fill="#060B13"/>
<path d="M31.8708 0.185182C31.7061 0.184981 31.543 0.219683 31.3909 0.287305C31.2386 0.354926 31.1003 0.45414 30.9838 0.579273C30.8673 0.704406 30.7748 0.853002 30.7118 1.01658C30.6487 1.18014 30.6163 1.35547 30.6163 1.53254H32.954V4.41451C32.9106 4.79748 32.8318 5.17487 32.7189 5.54111C32.5724 5.9057 32.3529 6.2311 32.0761 6.49415C31.7671 6.7817 31.4087 7.0015 31.0212 7.14119C30.2481 7.47046 29.3872 7.47046 28.6141 7.14119C28.2266 7.0015 27.8682 6.7817 27.5592 6.49415C27.2824 6.2311 27.0629 5.9057 26.9163 5.54111C26.8035 5.17487 26.7247 4.79748 26.6813 4.41451V0.185182H25.2342V4.41451C25.2308 4.99066 25.3428 5.56085 25.5628 6.08627C25.7826 6.61169 26.1052 7.08001 26.5086 7.45936C26.9598 7.87822 27.4819 8.19973 28.0463 8.40633C29.1967 8.80791 30.4358 8.80791 31.5862 8.40633C32.1504 8.19821 32.6721 7.87517 33.1226 7.45478C33.5259 7.07544 33.8484 6.60712 34.0684 6.0817C34.2883 5.55628 34.4003 4.9861 34.3969 4.40994V0.185182H31.8708Z" fill="#060B13"/>
<path d="M83.1201 1.56898L79.6988 8.54477H78.2418L82.3085 0.245976V0.194214H84.4695L88.5631 8.54477H87.1061L86.2365 6.77875H83.6297C83.4605 6.77875 83.2928 6.74287 83.136 6.67318C82.9799 6.60347 82.8377 6.50132 82.7179 6.37253C82.5981 6.24373 82.503 6.09084 82.4384 5.92257C82.3731 5.7543 82.3397 5.57395 82.3397 5.39182H85.5541L83.6754 1.56898H83.1201Z" fill="#060B13"/>
</g>
<defs>
<clipPath id="clip0_22005_231">
<rect width="88.5631" height="8.71112" fill="white"/>
</clipPath>
</defs>
</svg>
