<svg width="77" height="14" viewBox="0 0 77 14" fill="none" xmlns="http://www.w3.org/2000/svg">
<g clip-path="url(#clip0_22005_263)">
<mask id="mask0_22005_263" style="mask-type:luminance" maskUnits="userSpaceOnUse" x="0" y="0" width="80" height="14">
<path d="M79.8519 0H0V13.0304H79.8519V0Z" fill="white"/>
</mask>
<g mask="url(#mask0_22005_263)">
<path fill-rule="evenodd" clip-rule="evenodd" d="M16.2991 0.00995703L0.105138 6.45986C0.0726341 6.47337 0.0455002 6.49726 0.0279544 6.52782C0.00956732 6.55543 -0.000163991 6.58791 8.48242e-06 6.6211C-0.000329094 6.65431 0.0094165 6.68684 0.0279544 6.71439C0.0465883 6.74245 0.073602 6.7639 0.105138 6.77569L4.91315 8.51211C4.93888 8.52245 4.96693 8.52563 4.99433 8.52139C5.02122 8.51716 5.04674 8.50665 5.06885 8.49077L14.1899 1.83565C14.1921 1.83466 14.1947 1.83415 14.1972 1.83415C14.1997 1.83415 14.2022 1.83466 14.2045 1.83565C14.2096 1.83701 14.2142 1.83978 14.2178 1.84365C14.2187 1.84575 14.2191 1.84802 14.2191 1.85031C14.2191 1.8526 14.2187 1.85486 14.2178 1.85697C14.2197 1.86168 14.2197 1.86692 14.2178 1.87163L6.1441 8.90392C6.12548 8.92012 6.11052 8.94008 6.10019 8.96255C6.09052 8.98519 6.08598 9.00979 6.08688 9.03446V12.7792C6.08592 12.813 6.09621 12.8463 6.11616 12.8738C6.13612 12.9016 6.16391 12.923 6.19601 12.935C6.22813 12.9465 6.26303 12.9475 6.29576 12.9379C6.32848 12.9284 6.35736 12.9087 6.37831 12.8818L8.70851 10.006C8.73018 9.97966 8.75943 9.9606 8.79227 9.95131C8.82519 9.94065 8.86055 9.94065 8.89347 9.95131L11.8637 11.0294C11.9029 11.0454 11.9469 11.0454 11.9861 11.0294C12.0247 11.0117 12.0554 10.9804 12.0726 10.9415L16.5147 0.225842C16.5266 0.196241 16.5294 0.163754 16.5227 0.132559C16.517 0.100688 16.5017 0.071347 16.4788 0.0486031C16.4565 0.0251251 16.4277 0.00888479 16.3962 0.00199274C16.3646 -0.00489929 16.3318 -0.00212432 16.3018 0.00995703" fill="#060B13"/>
<path d="M21.417 1.31012H19.9531L19.9745 10.2387H21.4383L21.417 1.31012Z" fill="#060B13"/>
<path d="M26.0255 3.81396C25.2857 3.81396 24.6083 4.08049 24.1838 4.61353V3.94722H22.8038L22.8198 10.2372H24.1998L24.1891 6.07276C24.3178 5.77223 24.533 5.51691 24.8073 5.33938C25.0815 5.16184 25.4023 5.07013 25.7288 5.07596C26.6071 5.07596 27.1101 5.70095 27.1128 6.69509L27.1208 10.2372H28.5008L28.4915 6.47521C28.4915 4.84941 27.5307 3.81929 26.0255 3.82329" fill="#060B13"/>
<path d="M34.2017 3.92069L32.2908 8.32899L30.3732 3.93135H28.8428L31.6933 10.2146H32.9109L35.7415 3.91669L34.2017 3.92069Z" fill="#060B13"/>
<path d="M39.1669 3.78334C38.3627 3.79668 37.5921 4.1088 37.0048 4.65909C36.4175 5.20939 36.0554 5.95862 35.9887 6.76128C35.922 7.56394 36.1556 8.36278 36.644 9.00273C37.1325 9.64261 37.8409 10.0779 38.6318 10.2242C39.4228 10.3704 40.2398 10.217 40.9242 9.79392C41.6086 9.37084 42.1116 8.70817 42.3355 7.93453C42.5593 7.16092 42.4882 6.33161 42.1358 5.60759C41.7834 4.88358 41.1749 4.31653 40.4284 4.01655C40.0278 3.85501 39.5988 3.77572 39.1669 3.78334ZM39.1789 9.04191C38.0637 9.04191 37.2826 8.17832 37.2812 7.05893C37.2799 5.93953 38.0504 5.06932 39.1695 5.06C40.2887 5.05067 41.0539 5.92487 41.0566 7.04427C41.0592 8.16366 40.2834 9.03254 39.1829 9.03523L39.1789 9.04191Z" fill="#060B13"/>
<path d="M44.8224 3.89001H43.4424L43.4597 10.18H44.8384L44.8224 3.89001Z" fill="#060B13"/>
<path d="M44.8224 1.46454H43.4424V2.74141H44.8224V1.46454Z" fill="#060B13"/>
<path d="M49.2221 5.04129C49.5846 5.03876 49.94 5.14151 50.2454 5.33712C50.5508 5.53271 50.7931 5.81277 50.9427 6.14336L52.1404 5.48771C51.8599 4.95626 51.4378 4.51303 50.9211 4.20722C50.4042 3.90141 49.8129 3.74499 49.2128 3.7553C47.3364 3.75797 45.9125 5.17455 45.9125 7.03889C45.9125 8.90322 47.3563 10.3051 49.2394 10.3025C49.8394 10.3108 50.43 10.1522 50.9453 9.84417C51.4606 9.53617 51.8803 9.09093 52.1577 8.55807L50.952 7.90243C50.8045 8.23427 50.5638 8.51597 50.2593 8.7133C49.9547 8.91063 49.5994 9.01503 49.2368 9.01381C48.1215 9.01381 47.3284 8.1503 47.3258 7.0309C47.3231 5.91149 48.1122 5.04129 49.2288 5.03196" fill="#060B13"/>
<path d="M56.1458 3.73938C54.2389 3.73938 52.8695 5.17062 52.8802 7.0203C52.8802 8.92727 54.2562 10.2879 56.1592 10.2839C57.47 10.2839 58.4547 9.71089 59.0149 8.81798L57.9664 8.06641C57.6416 8.61943 57.0494 9.02459 56.1751 9.0272C55.1345 9.0272 54.3041 8.35158 54.2389 7.32014L59.1627 7.30815C59.1746 7.10826 59.1746 6.99365 59.1746 6.85506C59.1746 4.83213 57.7867 3.74072 56.1445 3.74338L56.1458 3.73938ZM54.2961 6.31134C54.4824 5.3785 55.2942 4.91075 56.0993 4.91075C56.9044 4.91075 57.6297 5.39716 57.7827 6.30202L54.2961 6.31134Z" fill="#060B13"/>
<path d="M76.5851 3.6901H76.5358C76.1068 3.68673 75.6813 3.76883 75.2843 3.93161C74.8872 4.0944 74.5264 4.33463 74.2229 4.63832C73.9194 4.942 73.6792 5.30309 73.5163 5.70059C73.3534 6.09808 73.2711 6.52404 73.2741 6.95369V6.97101C73.2714 7.40168 73.3545 7.82858 73.5185 8.2267C73.6824 8.62486 73.9239 8.98629 74.229 9.2899C74.534 9.59351 74.8964 9.83319 75.295 9.99493C75.6936 10.1567 76.1204 10.2373 76.5504 10.2319H76.5744C77.0041 10.2379 77.4307 10.1577 77.829 9.99615C78.2274 9.83457 78.5894 9.59489 78.8939 9.29112C79.1982 8.98768 79.4392 8.62657 79.6028 8.22898C79.7664 7.83133 79.8493 7.40507 79.8468 6.97501V6.95369C79.8492 6.52468 79.7665 6.09944 79.6035 5.70274C79.4403 5.30603 79.2 4.94578 78.8966 4.64292C78.5934 4.33951 78.2331 4.09949 77.8365 3.93682C77.4399 3.77416 77.0149 3.69211 76.5864 3.69543L76.5851 3.6901ZM76.5691 8.95396C75.4525 8.95396 74.6741 8.09042 74.6715 6.97235C74.6688 5.85428 75.4446 4.98141 76.5584 4.97342C77.6723 4.96542 78.4427 5.83828 78.4454 6.95769C78.4481 8.07709 77.6723 8.94598 76.5691 8.94859V8.95396Z" fill="#060B13"/>
<path d="M70.8853 3.83008V4.40843C70.4448 3.95668 69.7914 3.70747 69.0395 3.70881C67.2217 3.70881 65.9069 5.11073 65.8936 6.87512C65.8849 7.29256 65.9606 7.70746 66.116 8.09488C66.2715 8.48233 66.5035 8.83431 66.7982 9.12961C67.0929 9.42499 67.4442 9.65767 67.8309 9.81371C68.2177 9.96966 68.632 10.0458 69.0488 10.0374C69.8034 10.0374 70.4541 9.77095 70.8919 9.30316V10.0481C70.8919 11.0276 70.3596 11.5513 69.6384 11.7112C67.8418 12.0337 66.7253 11.4913 66.7253 11.4913L66.2848 12.6214C66.9262 13.0212 68.9158 13.1358 69.8393 12.9319C71.17 12.6973 72.2772 11.8258 72.2732 10.0601L72.2612 3.82874L70.8853 3.83008ZM70.8946 7.88125C70.7164 8.16292 70.4676 8.39282 70.1729 8.54789C69.8782 8.70295 69.5478 8.77771 69.2151 8.76476C68.1253 8.76476 67.3322 7.95188 67.3188 6.87112C67.3121 6.61979 67.3574 6.36977 67.452 6.13685C67.5439 5.90341 67.6825 5.69121 67.8591 5.51318C68.0358 5.33513 68.2467 5.19489 68.4791 5.10097C68.7116 5.00704 68.9606 4.9614 69.2111 4.9668C69.542 4.95364 69.8707 5.02621 70.1654 5.17749C70.4601 5.32877 70.7107 5.55363 70.8933 5.83034L70.8946 7.88125Z" fill="#060B13"/>
<path d="M61.74 8.95414L63.6217 6.39549C64.001 5.89842 64.6065 5.06286 64.7196 4.88029C65.2439 4.01275 65.3078 3.10124 64.8526 2.19106C64.4814 1.45012 63.8253 1.08898 63.0175 0.991696C61.8851 0.847776 60.7073 1.37283 60.175 2.44692C60.0512 2.68074 59.9701 2.93481 59.9355 3.19719L61.1425 3.46372C61.1611 3.41174 61.1784 3.3691 61.1904 3.33045C61.2478 3.11088 61.3536 2.90699 61.5001 2.73379C61.6466 2.56059 61.8299 2.42249 62.0368 2.32965C62.4773 2.12843 63.1093 2.20705 63.45 2.50156C64.0209 2.99863 64.013 3.83419 63.599 4.36723C63.5299 4.45785 59.9581 9.01538 59.9581 9.01538C59.9245 9.05521 59.9065 9.10595 59.9075 9.15799V10.1668L65.208 10.1535V8.95414H61.74Z" fill="#060B13"/>
</g>
</g>
<defs>
<clipPath id="clip0_22005_263">
<rect width="79.8519" height="13.0304" fill="white"/>
</clipPath>
</defs>
</svg>
