<svg width="76" height="9" viewBox="0 0 76 9" fill="none" xmlns="http://www.w3.org/2000/svg">
<g clip-path="url(#clip0_22005_212)">
<mask id="mask0_22005_212" style="mask-type:luminance" maskUnits="userSpaceOnUse" x="0" y="0" width="76" height="9">
<path d="M75.4964 0H0V8.71112H75.4964V0Z" fill="white"/>
</mask>
<g mask="url(#mask0_22005_212)">
<path d="M3.45668 8.57685L0 0.134644H1.77067L4.30091 6.43267L6.8461 0.134644H8.61675L5.14267 8.57685H3.45668Z" fill="#060B13"/>
<path d="M10.141 3.61353H15.3334C15.183 3.04331 14.8484 2.53632 14.3796 2.1686C13.922 1.7986 13.3462 1.59865 12.7534 1.60384C12.1451 1.5888 11.5511 1.78635 11.0774 2.16127C10.6133 2.53297 10.2846 3.04263 10.141 3.61353ZM9.62047 7.44714C9.20539 7.04717 8.87756 6.56843 8.6571 6.04007C8.43656 5.51171 8.32796 4.94479 8.33791 4.37389C8.3284 3.802 8.43533 3.234 8.6526 2.7033C8.86987 2.17259 9.19305 1.68988 9.60305 1.28356C10.0004 0.868263 10.4821 0.539437 11.0171 0.31834C11.552 0.0972434 12.1283 -0.0112066 12.7086 -6.41547e-06C13.8419 -0.0128241 14.9372 0.400996 15.7693 1.15642C16.2011 1.542 16.5461 2.01198 16.782 2.53618C17.0179 3.06038 17.1395 3.62723 17.139 4.2003C17.1404 4.45377 17.1238 4.70703 17.0892 4.95822H10.141C10.1668 5.25588 10.2522 5.54561 10.3924 5.81077C10.5326 6.07593 10.7248 6.31131 10.9578 6.50339C11.4439 6.90719 12.0647 7.12051 12.7011 7.10238C13.0864 7.116 13.4702 7.04769 13.8261 6.90209C14.1821 6.75651 14.5017 6.5371 14.7632 6.25889L16.7754 6.276C16.4013 7.00259 15.8299 7.61352 15.1243 8.04124C14.4149 8.48282 13.5909 8.71461 12.751 8.70866C12.169 8.71969 11.5909 8.61342 11.0525 8.39644C10.5141 8.17946 10.0267 7.85635 9.62047 7.44714Z" fill="#060B13"/>
<path d="M18.282 8.57677V4.17597C18.282 2.82476 18.614 1.8085 19.2782 1.1272C19.6175 0.785382 20.0265 0.517692 20.4783 0.341593C20.9302 0.165495 21.4148 0.0849566 21.9006 0.105238H22.0724V1.71153H21.9006C20.6155 1.71153 19.9738 2.53301 19.9755 4.17597V8.57677H18.282Z" fill="#060B13"/>
<path d="M27.1079 1.60389C26.7378 1.59242 26.3692 1.6572 26.0261 1.79406C25.6829 1.93091 25.3728 2.13681 25.1156 2.39848C24.6041 2.92582 24.3187 3.62615 24.3187 4.35438C24.3187 5.08262 24.6041 5.78295 25.1156 6.31029C25.3692 6.57099 25.6753 6.77694 26.0145 6.91501C26.3537 7.05308 26.7185 7.12024 27.0856 7.11221C27.4489 7.12117 27.8101 7.05532 28.146 6.91889C28.4818 6.78245 28.7848 6.57847 29.0355 6.32007C29.5383 5.78832 29.8176 5.08965 29.8176 4.36416C29.8176 3.63868 29.5383 2.94001 29.0355 2.40825C28.7853 2.14905 28.4825 1.94436 28.1466 1.80748C27.8106 1.67059 27.4491 1.60456 27.0856 1.61367L27.1079 1.60389ZM23.9502 1.26649C24.6764 0.551383 25.6329 0.105701 26.6565 0.00540812C27.6801 -0.0948852 28.7074 0.156419 29.5634 0.71649C30.4193 1.27656 31.051 2.11072 31.3506 3.0768C31.6502 4.04288 31.5993 5.08107 31.2065 6.01441C30.8137 6.94775 30.1033 7.71846 29.1965 8.19517C28.2897 8.67189 27.2425 8.82513 26.2335 8.62877C25.2244 8.43233 24.316 7.89849 23.6631 7.11816C23.0101 6.33784 22.653 5.35935 22.6526 4.34949C22.6434 3.77591 22.7538 3.20654 22.9769 2.67637C23.2 2.14619 23.5312 1.66641 23.9502 1.26649Z" fill="#060B13"/>
<path d="M40.2548 8.57685H38.3297L36.1108 5.55495L33.8918 8.57685H31.9493L35.147 4.18826L32.2059 0.134644H34.116L36.0934 2.83624L38.1056 0.134644H40.0158L37.0746 4.18826L40.2548 8.57685Z" fill="#060B13"/>
<path d="M42.2096 8.54977V5.72593H40.6681V4.74798H42.2096V4.44726L42.2445 3.41796C42.3374 2.39274 42.6645 1.58756 43.2257 1.00242C43.8193 0.404123 44.618 0.0434314 45.467 -0.00976562V1.02198C44.9044 1.10681 44.387 1.37455 43.9977 1.78233C43.5927 2.23796 43.3589 2.8161 43.3353 3.4204L43.3004 4.4497V4.75043H46.0124V5.72838H43.3104V8.55224L42.2096 8.54977Z" fill="#060B13"/>
<path d="M48.8591 0.136902H47.7583V8.57907H48.8591V0.136902Z" fill="#060B13"/>
<path d="M57.5083 1.99996C57.2037 1.68691 56.836 1.43958 56.4287 1.27374C56.0214 1.10789 55.5833 1.02715 55.1425 1.03667C54.6996 1.02881 54.2598 1.11025 53.8503 1.27594C53.4407 1.44163 53.0702 1.68805 52.7616 1.99996C52.1363 2.63193 51.7866 3.47825 51.7866 4.35927C51.7866 5.24029 52.1363 6.08661 52.7616 6.71858C53.0675 7.03294 53.4362 7.28203 53.8445 7.4503C54.2529 7.61857 54.6922 7.70234 55.135 7.69654C55.5743 7.70474 56.0107 7.62365 56.4165 7.45829C56.8224 7.29292 57.1891 7.0469 57.4934 6.7357C58.1084 6.09662 58.4512 5.25073 58.4512 4.3715C58.4512 3.49227 58.1084 2.64636 57.4934 2.00729L57.5083 1.99996ZM51.9871 1.26649C52.7134 0.551383 53.6699 0.105701 54.6935 0.00540812C55.7171 -0.0948852 56.7444 0.156419 57.6004 0.71649C58.4563 1.27656 59.0879 2.11072 59.3876 3.0768C59.6872 4.04288 59.6362 5.08107 59.2434 6.01441C58.8506 6.94775 58.1403 7.71846 57.2335 8.19517C56.3267 8.67189 55.2794 8.82513 54.2705 8.62877C53.2614 8.43233 52.353 7.89849 51.7 7.11816C51.0471 6.33784 50.69 5.35935 50.6896 4.34949C50.6804 3.77591 50.7907 3.20654 51.0139 2.67637C51.237 2.14619 51.5682 1.66641 51.9871 1.26649Z" fill="#060B13"/>
<path d="M68.1845 1.99996C67.8799 1.68691 67.5122 1.43958 67.1049 1.27374C66.6975 1.10789 66.2594 1.02715 65.8186 1.03667C65.3757 1.02881 64.9359 1.11025 64.5264 1.27594C64.1169 1.44163 63.7464 1.68805 63.4378 1.99996C62.8125 2.63193 62.4627 3.47825 62.4627 4.35927C62.4627 5.24029 62.8125 6.08661 63.4378 6.71858C63.7435 7.03317 64.1121 7.28239 64.5205 7.45066C64.9288 7.61901 65.3682 7.70263 65.8111 7.69654C66.2502 7.70503 66.6861 7.62402 67.0917 7.45858C67.4972 7.29321 67.8633 7.04707 68.167 6.7357C68.7827 6.0969 69.1257 5.2509 69.1257 4.3715C69.1257 3.4921 68.7827 2.64608 68.167 2.00729L68.1845 1.99996ZM62.6657 1.26649C63.392 0.551383 64.3485 0.105701 65.3721 0.00540812C66.3957 -0.0948852 67.423 0.156419 68.279 0.71649C69.135 1.27656 69.7665 2.11072 70.0662 3.0768C70.3658 4.04288 70.3149 5.08107 69.9221 6.01441C69.5293 6.94775 68.8189 7.71846 67.9121 8.19517C67.0053 8.67189 65.9581 8.82513 64.9491 8.62877C63.94 8.43233 63.0316 7.89849 62.3786 7.11816C61.7257 6.33784 61.3686 5.35935 61.3682 4.34949C61.3589 3.77589 61.4691 3.20648 61.6923 2.67629C61.9154 2.14608 62.2467 1.66632 62.6657 1.26649Z" fill="#060B13"/>
<path d="M71.5389 8.57656V4.20024C71.5389 2.83926 71.8569 1.81485 72.4927 1.12703C72.8197 0.782618 73.2182 0.512152 73.6625 0.334406C74.106 0.156659 74.5837 0.0758978 75.0628 0.0977293C75.1463 0.0964459 75.229 0.10135 75.3118 0.112398V1.14414C75.2298 1.13088 75.1463 1.12515 75.0628 1.12703C74.7267 1.11339 74.3913 1.17652 74.0843 1.31142C73.7772 1.44632 73.5057 1.64933 73.2923 1.90449C72.8574 2.42118 72.6397 3.18643 72.6397 4.20024V8.57656H71.5389Z" fill="#060B13"/>
<path d="M74.3704 7.63798H74.5577C74.6208 7.64444 74.6847 7.63072 74.7391 7.59886C74.7551 7.58673 74.7674 7.57105 74.7754 7.5532C74.7841 7.53534 74.7878 7.51581 74.7863 7.49621C74.787 7.47008 74.7791 7.44452 74.7638 7.42282C74.7478 7.40082 74.7253 7.38391 74.6992 7.37396C74.6491 7.36162 74.5969 7.35669 74.5453 7.3593H74.3704V7.63798ZM74.2165 8.16363V7.23214H74.5453C74.6288 7.22768 74.713 7.23593 74.7943 7.25659C74.8422 7.27386 74.8843 7.30551 74.9134 7.34703C74.9424 7.38725 74.9576 7.43494 74.9584 7.48394C74.9591 7.51712 74.9526 7.55007 74.9395 7.58071C74.9271 7.61141 74.9075 7.63922 74.8836 7.66245C74.8299 7.71362 74.7595 7.74324 74.6847 7.74557C74.7152 7.75718 74.7428 7.77468 74.7667 7.79689C74.8197 7.85308 74.8662 7.91456 74.9061 7.98026L75.023 8.16363H74.8364L74.7515 8.01692C74.7123 7.93503 74.6571 7.86121 74.5896 7.79936C74.554 7.77518 74.5112 7.76393 74.4676 7.76756H74.3704V8.16363H74.2165ZM74.6048 6.96076C74.4778 6.96198 74.3537 6.99478 74.2433 7.05611C74.1272 7.11651 74.0306 7.20916 73.9675 7.32257C73.9021 7.43247 73.8673 7.55733 73.8673 7.68444C73.868 7.81046 73.9014 7.93423 73.9646 8.04385C74.0285 8.15659 74.1235 8.24907 74.239 8.31034C74.3493 8.37436 74.4763 8.40819 74.6048 8.40819C74.7333 8.40819 74.8596 8.37436 74.9707 8.31034C75.0861 8.24907 75.1812 8.15659 75.2451 8.04385C75.3061 7.93358 75.3387 7.8101 75.3395 7.68444C75.3395 7.55762 75.3061 7.43291 75.2422 7.32257C75.1783 7.20966 75.0818 7.11719 74.9656 7.05611C74.8604 6.99714 74.7413 6.96441 74.6194 6.96076H74.6048ZM74.6048 6.81895C74.7566 6.81949 74.9054 6.85732 75.0382 6.92898C75.1769 7.00277 75.2923 7.11384 75.3692 7.24926C75.4447 7.38231 75.4854 7.532 75.4861 7.68444C75.4868 7.83551 75.4462 7.98403 75.3692 8.11477C75.2945 8.2511 75.1812 8.36326 75.0433 8.43745C74.909 8.51113 74.758 8.54982 74.6048 8.54982C74.4509 8.54982 74.3007 8.51113 74.1664 8.43745C74.0314 8.3605 73.921 8.24783 73.8477 8.1123C73.77 7.98069 73.7294 7.83152 73.7294 7.67958C73.7294 7.52764 73.77 7.37839 73.8477 7.24681C73.9246 7.1114 74.0401 7.00032 74.1787 6.92653C74.3145 6.85453 74.4662 6.8175 74.6194 6.81895H74.6048Z" fill="#060B13"/>
</g>
</g>
<defs>
<clipPath id="clip0_22005_212">
<rect width="75.4964" height="8.71112" fill="white"/>
</clipPath>
</defs>
</svg>
