<svg width="56" height="9" viewBox="0 0 56 9" fill="none" xmlns="http://www.w3.org/2000/svg">
<g clip-path="url(#clip0_22005_184)">
<mask id="mask0_22005_184" style="mask-type:luminance" maskUnits="userSpaceOnUse" x="-26" y="0" width="82" height="9">
<path d="M55.5479 0H-25.7559V8.71112H55.5479V0Z" fill="white"/>
</mask>
<g mask="url(#mask0_22005_184)">
<path d="M-25.6631 0.242296C-25.4713 -0.0916066 -25.0264 -0.00263 -24.7308 0.133227C-22.5866 1.02299 -20.4503 1.93572 -18.3169 2.84941C-17.7732 3.00058 -18.0204 3.63681 -18.0204 4.03385C-19.1968 4.0463 -20.3742 4.03386 -21.5516 4.04343C-21.8768 4.03003 -22.2633 4.09892 -22.5085 3.83581C-23.4763 2.94605 -24.4105 2.01801 -25.3566 1.11006C-25.579 0.888094 -25.9053 0.56089 -25.6591 0.242296H-25.6631ZM-11.648 0.603943C-11.1299 0.402071 -10.6346 0.125573 -10.085 0.00980754C-9.74102 -0.0609912 -9.59076 0.285349 -9.4227 0.498702C-10.1503 1.54059 -11.1962 2.31651 -12.0819 3.22924C-12.4665 3.55932 -12.8046 4.10657 -13.3919 4.04247C-14.6622 4.04247 -15.9325 4.03481 -17.2048 4.04247C-17.2859 3.67412 -17.4875 3.09243 -17.0169 2.89438C-15.2375 2.11751 -13.4393 1.3636 -11.648 0.606814V0.603943ZM-1.12449 0.759895C-1.02569 0.526447 -0.751799 0.614468 -0.553112 0.590549C1.19274 0.601074 2.93758 0.590549 4.68633 0.597246C5.77377 0.614468 6.77025 1.45831 6.90963 2.50403C7.12218 3.70857 6.09906 4.95807 4.83363 5.01261C3.34286 5.04322 1.85014 4.99251 0.360321 5.03174C0.0696602 5.79713 0.405766 6.69743 0.19031 7.49918C-0.198206 7.78621 -0.642113 8.07803 -1.15026 8.09908C-1.15026 6.77205 -1.13639 5.4441 -1.14329 4.1171C-1.16108 3.93436 -1.11665 3.62629 -0.84675 3.67604C0.955437 3.65308 2.75958 3.68656 4.56177 3.66551C5.00466 3.68943 5.48021 3.36605 5.49502 2.91543C5.59389 2.39017 5.09961 1.92616 4.56968 1.94434C2.69142 1.91085 0.813082 1.97591 -1.05531 1.91659C-1.19962 1.55112 -1.15418 1.14259 -1.12057 0.759895H-1.12449ZM14.9468 8.09233C14.9379 5.59334 14.9083 3.09243 14.9626 0.594376C17.6585 0.603944 20.3574 0.574285 23.0532 0.608728C22.9079 1.07466 22.724 1.60852 22.3177 1.90798C20.3296 1.97878 18.3307 1.92042 16.3388 1.93477C16.3279 2.50881 16.3289 3.09434 16.3318 3.67508C18.2774 3.66934 20.2236 3.66934 22.1704 3.67508C22.1981 4.11996 22.199 4.56772 22.1842 5.01452C20.2328 5.03365 18.2833 5.01452 16.3318 5.02408C16.3318 5.59813 16.3318 6.17217 16.3318 6.74622C18.2101 6.73952 20.0815 6.74622 21.9558 6.74622C22.6479 6.70604 22.7645 7.54411 23.0997 7.96704C22.921 8.07092 22.7147 8.1218 22.5065 8.11338C19.9866 8.10286 17.4648 8.12681 14.9459 8.10097L14.9468 8.09233ZM31.0508 0.649867C31.2485 0.450865 31.4383 0.739802 31.6153 0.816336C33.716 2.38348 35.8286 3.9334 37.9244 5.50437C37.9551 4.10849 37.8849 2.70973 37.9551 1.31767C38.2695 0.923498 38.7845 0.733101 39.2531 0.558977C39.3588 0.845998 39.3371 1.15407 39.34 1.45353C39.3203 3.59663 39.3539 5.7426 39.3242 7.88573C39.4004 8.22343 38.9792 8.12108 38.8299 7.96508C36.6897 6.37787 34.5583 4.77821 32.4121 3.19863C32.3854 4.60408 32.4596 6.01431 32.3804 7.41693C32.07 7.79956 31.5273 8.03781 31.0231 8.11912C31.0014 5.89568 31.0231 3.67221 31.0093 1.44779C31.0003 1.18053 31.0142 0.913001 31.0508 0.647953V0.649867ZM47.4119 3.46556C47.801 1.81327 49.4714 0.553236 51.223 0.600116C52.6067 0.626905 53.9859 0.548453 55.363 0.638386C55.3492 1.12345 55.032 1.54442 54.7293 1.90989C53.4741 2.01896 52.2038 1.87258 50.9472 1.97495C49.9171 2.09742 48.9988 2.86376 48.7723 3.84921C48.4043 5.18864 49.5425 6.66011 50.9617 6.73856C52.0295 6.7577 53.0981 6.73856 54.1667 6.73856C54.1667 6.16452 54.1667 5.59622 54.1667 5.02504C53.3689 5.01356 52.5689 5.04418 51.7711 5.01738C51.4285 5.05375 51.3138 4.66818 51.1548 4.45004C51.0561 4.21372 50.7947 3.97167 50.9269 3.70187C52.2241 3.63394 53.5271 3.70187 54.8273 3.6703C55.0625 3.70092 55.3688 3.59663 55.5437 3.8052C55.5808 5.22692 55.5437 6.6515 55.5568 8.07418C54.5768 8.14017 53.5946 8.09618 52.6146 8.1067C51.5947 8.09233 50.5131 8.22438 49.5708 7.75274C47.9237 7.05812 46.9364 5.15037 47.417 3.46364L47.4119 3.46556ZM-22.5382 4.88248C-22.2851 4.61269 -21.8867 4.68349 -21.5496 4.67009C-20.3633 4.68827 -19.1829 4.65478 -18.0006 4.6921C-17.9897 5.05661 -17.7851 5.63066 -18.2408 5.81531C-20.0914 6.61993 -21.9519 7.40161 -23.8115 8.18895C-24.2969 8.38031 -24.7684 8.6444 -25.2943 8.71133C-25.5593 8.63387 -25.7955 8.38989 -25.7422 8.1038C-25.5771 7.74222 -25.2558 7.48197 -24.976 7.20354C-24.1545 6.43815 -23.3755 5.62779 -22.5332 4.88248H-22.5382ZM-17.2364 4.69114C-16.0037 4.66818 -14.7649 4.69114 -13.5362 4.67584C-13.2791 4.69496 -12.9697 4.64235 -12.771 4.84039C-11.8665 5.65841 -11.0034 6.51756 -10.1206 7.3566C-9.89325 7.59391 -9.62633 7.81394 -9.50277 8.12202C-9.43156 8.53725 -9.95749 8.86058 -10.3282 8.63866C-12.5594 7.74889 -14.7591 6.78066 -16.9655 5.83636C-17.4727 5.66797 -17.2878 5.07575 -17.2364 4.69305" fill="#060B13"/>
</g>
</g>
<defs>
<clipPath id="clip0_22005_184">
<rect width="81.3038" height="8.71112" fill="white" transform="translate(-25.7559)"/>
</clipPath>
</defs>
</svg>
