<svg width="64" height="64" viewBox="0 0 64 64" fill="none" xmlns="http://www.w3.org/2000/svg">
<g clip-path="url(#clip0_22005_603)">
<g clip-path="url(#clip1_22005_603)">
<g clip-path="url(#clip2_22005_603)">
<path d="M0 0H63.8816V63.8816H0V0Z" fill="white"/>
<path d="M31.9409 22.5037C30.146 22.5037 28.4245 23.2168 27.1553 24.486C25.8861 25.7552 25.1731 27.4766 25.1731 29.2715V29.2846C23.6287 29.3897 22.1854 30.0905 21.1477 31.2392C20.11 32.3878 19.5588 33.8945 19.6105 35.4417C19.6622 36.9888 20.3127 38.4554 21.4247 39.5322C22.5368 40.6091 24.0236 41.2119 25.5716 41.2138H38.3102C39.8582 41.2119 41.345 40.6091 42.4571 39.5322C43.5691 38.4554 44.2196 36.9888 44.2713 35.4417C44.323 33.8945 43.7719 32.3878 42.7341 31.2392C41.6964 30.0905 40.2531 29.3897 38.7087 29.2846V29.2715C38.7087 27.4766 37.9957 25.7552 36.7265 24.486C35.4573 23.2168 33.7358 22.5037 31.9409 22.5037Z" fill="#6E51E0"/>
<path d="M31.9409 22.5037C30.146 22.5037 28.4245 23.2168 27.1553 24.486C25.8861 25.7552 25.1731 27.4766 25.1731 29.2715V29.2846C23.6287 29.3897 22.1854 30.0905 21.1477 31.2392C20.11 32.3878 19.5588 33.8945 19.6105 35.4417C19.6622 36.9888 20.3127 38.4554 21.4247 39.5322C22.5368 40.6091 24.0236 41.2119 25.5716 41.2138H38.3102C39.8582 41.2119 41.345 40.6091 42.4571 39.5322C43.5691 38.4554 44.2196 36.9888 44.2713 35.4417C44.323 33.8945 43.7719 32.3878 42.7341 31.2392C41.6964 30.0905 40.2531 29.3897 38.7087 29.2846V29.2715C38.7087 27.4766 37.9957 25.7552 36.7265 24.486C35.4573 23.2168 33.7358 22.5037 31.9409 22.5037Z" fill="url(#paint0_linear_22005_603)" fill-opacity="0.48"/>
<path d="M31.9409 22.5037C30.146 22.5037 28.4245 23.2168 27.1553 24.486C25.8861 25.7552 25.1731 27.4766 25.1731 29.2715V29.2846C23.6287 29.3897 22.1854 30.0905 21.1477 31.2392C20.11 32.3878 19.5588 33.8945 19.6105 35.4417C19.6622 36.9888 20.3127 38.4554 21.4247 39.5322C22.5368 40.6091 24.0236 41.2119 25.5716 41.2138H38.3102C39.8582 41.2119 41.345 40.6091 42.4571 39.5322C43.5691 38.4554 44.2196 36.9888 44.2713 35.4417C44.323 33.8945 43.7718 32.3878 42.7341 31.2392C41.6964 30.0905 40.2531 29.3897 38.7087 29.2846V29.2715C38.7087 27.4766 37.9957 25.7552 36.7265 24.486C35.4573 23.2168 33.7358 22.5037 31.9409 22.5037Z" stroke="url(#paint1_linear_22005_603)" stroke-opacity="0.4" stroke-width="1.45185" stroke-linecap="round" stroke-linejoin="round"/>
</g>
</g>
</g>
<defs>
<linearGradient id="paint0_linear_22005_603" x1="31.9409" y1="22.5037" x2="31.9409" y2="36.7812" gradientUnits="userSpaceOnUse">
<stop stop-color="white"/>
<stop offset="1" stop-color="white" stop-opacity="0"/>
</linearGradient>
<linearGradient id="paint1_linear_22005_603" x1="31.9409" y1="11.7956" x2="31.9409" y2="42.135" gradientUnits="userSpaceOnUse">
<stop stop-color="white"/>
<stop offset="1" stop-color="white" stop-opacity="0"/>
</linearGradient>
<clipPath id="clip0_22005_603">
<rect width="63.8816" height="63.8816" rx="31.9408" fill="white"/>
</clipPath>
<clipPath id="clip1_22005_603">
<rect width="63.8816" height="63.8816" fill="white"/>
</clipPath>
<clipPath id="clip2_22005_603">
<rect width="63.8816" height="63.8816" fill="white"/>
</clipPath>
</defs>
</svg>
