<svg width="8" height="8" viewBox="0 0 8 8" fill="none" xmlns="http://www.w3.org/2000/svg">
<path d="M3.57292 7.14584C2.62532 7.14584 1.71654 6.76941 1.04648 6.09936C0.37643 5.42931 0 4.52052 0 3.57292C0 2.62532 0.37643 1.71654 1.04648 1.04648C1.71654 0.37643 2.62532 0 3.57292 0C4.52052 0 5.42931 0.37643 6.09936 1.04648C6.76941 1.71654 7.14584 2.62532 7.14584 3.57292C7.14584 4.52052 6.76941 5.42931 6.09936 6.09936C5.42931 6.76941 4.52052 7.14584 3.57292 7.14584ZM3.57292 6.43126C4.33108 6.43126 5.05819 6.13008 5.59429 5.59398C6.13039 5.05787 6.43158 4.33076 6.43158 3.5726C6.43158 2.81444 6.13039 2.08733 5.59429 1.55123C5.05819 1.01513 4.33108 0.713949 3.57292 0.713949C2.81476 0.713949 2.08765 1.01513 1.55155 1.55123C1.01545 2.08733 0.714264 2.81444 0.714264 3.5726C0.714264 4.33076 1.01545 5.05787 1.55155 5.59398C2.08765 6.13008 2.81476 6.43126 3.57292 6.43126ZM3.21595 3.85558C3.07505 3.79476 2.95223 3.69858 2.85941 3.57636C2.76659 3.45414 2.70692 3.31002 2.68616 3.15796C2.66539 3.0059 2.68425 2.85105 2.7409 2.70842C2.79755 2.56579 2.89008 2.44021 3.00952 2.34384C3.16904 2.21504 3.36789 2.14478 3.57292 2.14478C3.77796 2.14478 3.9768 2.21504 4.13633 2.34384C4.2551 2.4406 4.34701 2.56626 4.40323 2.70877C4.45945 2.85128 4.47808 3.00585 4.45735 3.15764C4.43662 3.30943 4.37723 3.45334 4.28486 3.57556C4.19249 3.69778 4.07026 3.79421 3.92989 3.85558V5.00209H3.21595V3.85558Z" fill="#6E51E0"/>
</svg>
