<svg width="8" height="8" viewBox="0 0 8 8" fill="none" xmlns="http://www.w3.org/2000/svg">
<path d="M5.3597 0.715224H6.78887C6.88344 0.715559 6.97404 0.753273 7.04092 0.820146C7.10779 0.88702 7.14551 0.977624 7.14584 1.0722V6.78887C7.14551 6.88355 7.1077 6.97425 7.04069 7.04114C6.97368 7.10803 6.88291 7.14567 6.78823 7.14584H0.357609C0.262927 7.14567 0.172161 7.10803 0.10515 7.04114C0.03814 6.97425 0.000335607 6.88355 0 6.78887V1.0722C0.000335607 0.977514 0.03814 0.886815 0.10515 0.819923C0.172161 0.753032 0.262927 0.715391 0.357609 0.715224H1.78678V0H2.50073V0.715224H4.64511V0H5.35906L5.3597 0.715224ZM4.64448 1.42917H2.50136V2.14439H1.78614V1.42917H0.714584V2.85834H6.43126V1.42917H5.35906V2.14439H4.64511L4.64448 1.42917ZM6.43126 3.57356H0.714584V6.4319H6.43126V3.57356Z" fill="#6E51E0"/>
</svg>
