<svg width="3" height="10" viewBox="0 0 3 10" fill="none" xmlns="http://www.w3.org/2000/svg">
<path d="M1.08889 0C0.49 0 0 0.490001 0 1.08889C0 1.68778 0.49 2.17778 1.08889 2.17778C1.68778 2.17778 2.17778 1.68778 2.17778 1.08889C2.17778 0.490001 1.68778 0 1.08889 0ZM1.08889 7.62223C0.49 7.62223 0 8.11223 0 8.71112C0 9.31001 0.49 9.80001 1.08889 9.80001C1.68778 9.80001 2.17778 9.31001 2.17778 8.71112C2.17778 8.11223 1.68778 7.62223 1.08889 7.62223ZM1.08889 3.81112C0.49 3.81112 0 4.30112 0 4.90001C0 5.4989 0.49 5.9889 1.08889 5.9889C1.68778 5.9889 2.17778 5.4989 2.17778 4.90001C2.17778 4.30112 1.68778 3.81112 1.08889 3.81112Z" fill="#979FB4"/>
</svg>
