<svg width="18" height="18" viewBox="0 0 18 18" fill="none" xmlns="http://www.w3.org/2000/svg">
<g clip-path="url(#clip0_22005_1149)">
<g clip-path="url(#clip1_22005_1149)">
<path d="M8.71098 3.26612C7.33923 3.2638 6.01716 3.77939 5.00914 4.70976C4.00112 5.64014 3.38145 6.91674 3.27405 8.28428C3.16664 9.65182 3.57942 11.0095 4.42984 12.0858C5.28025 13.1622 6.50563 13.8778 7.86092 14.0897V10.2844H6.47803V8.71057H7.86092V7.51134C7.86092 6.1466 8.6725 5.39309 9.91674 5.39309C10.512 5.39309 11.1356 5.4998 11.1356 5.4998V6.83913H10.4496C9.77301 6.83913 9.56176 7.25872 9.56176 7.68919V8.71057H11.0717L10.8307 10.2844H9.56176V14.089C10.9161 13.876 12.1403 13.16 12.9898 12.0838C13.8392 11.0077 14.2514 9.65069 14.1439 8.2839C14.0365 6.91711 13.4173 5.64117 12.4102 4.71097C11.403 3.78077 10.082 3.2648 8.71098 3.26612Z" fill="#6E51E0"/>
<path d="M8.71098 3.26612C7.33923 3.2638 6.01716 3.77939 5.00914 4.70976C4.00112 5.64014 3.38145 6.91674 3.27405 8.28428C3.16664 9.65182 3.57942 11.0095 4.42984 12.0858C5.28025 13.1622 6.50563 13.8778 7.86092 14.0897V10.2844H6.47803V8.71057H7.86092V7.51134C7.86092 6.1466 8.6725 5.39309 9.91674 5.39309C10.512 5.39309 11.1356 5.4998 11.1356 5.4998V6.83913H10.4496C9.77301 6.83913 9.56176 7.25872 9.56176 7.68919V8.71057H11.0717L10.8307 10.2844H9.56176V14.089C10.9161 13.876 12.1403 13.16 12.9898 12.0838C13.8392 11.0077 14.2514 9.65069 14.1439 8.2839C14.0365 6.91711 13.4173 5.64117 12.4102 4.71097C11.403 3.78077 10.082 3.2648 8.71098 3.26612Z" fill="url(#paint0_linear_22005_1149)" fill-opacity="0.24"/>
</g>
</g>
<defs>
<linearGradient id="paint0_linear_22005_1149" x1="8.71098" y1="3.26612" x2="8.71098" y2="14.089" gradientUnits="userSpaceOnUse">
<stop stop-color="white"/>
<stop offset="1" stop-color="white" stop-opacity="0"/>
</linearGradient>
<clipPath id="clip0_22005_1149">
<rect width="17.4222" height="17.4222" fill="white"/>
</clipPath>
<clipPath id="clip1_22005_1149">
<rect width="17.4222" height="17.4222" fill="white"/>
</clipPath>
</defs>
</svg>
