<svg width="18" height="18" viewBox="0 0 18 18" fill="none" xmlns="http://www.w3.org/2000/svg">
<g clip-path="url(#clip0_22005_1156)">
<g clip-path="url(#clip1_22005_1156)">
<path d="M14.244 5.25733C13.828 5.44099 13.3874 5.56222 12.9358 5.61594C13.4116 5.33134 13.7677 4.88344 13.9376 4.35573C13.4907 4.6211 13.0016 4.80795 12.4916 4.90816C12.1488 4.54209 11.6947 4.29942 11.1998 4.21784C10.705 4.13625 10.1971 4.22031 9.75487 4.45695C9.31268 4.6936 8.96099 5.06961 8.75438 5.5266C8.54776 5.98359 8.4978 6.49601 8.61223 6.98431C7.70678 6.93906 6.82097 6.70388 6.01232 6.29405C5.20367 5.88422 4.49025 5.3089 3.91838 4.60545C3.62642 5.10655 3.53671 5.70018 3.66757 6.26518C3.79843 6.83017 4.13999 7.32392 4.62253 7.64563C4.26116 7.63428 3.90773 7.53671 3.59172 7.36107V7.3901C3.59201 7.91585 3.77409 8.42532 4.1071 8.83215C4.44011 9.23899 4.90355 9.51815 5.41887 9.62233C5.08318 9.71337 4.73116 9.72677 4.38951 9.66153C4.53479 10.1141 4.81794 10.5099 5.19933 10.7935C5.58072 11.0771 6.04126 11.2344 6.51647 11.2433C6.04417 11.6142 5.5034 11.8884 4.92507 12.0502C4.34675 12.212 3.7422 12.2583 3.146 12.1863C4.18691 12.8557 5.39865 13.2111 6.63625 13.2099C10.8249 13.2099 13.1151 9.73993 13.1151 6.73096C13.1151 6.63296 13.1122 6.53351 13.1079 6.43696C13.5537 6.11467 13.9384 5.71473 14.244 5.25733Z" fill="#6E51E0"/>
<path d="M14.244 5.25733C13.828 5.44099 13.3874 5.56222 12.9358 5.61594C13.4116 5.33134 13.7677 4.88344 13.9376 4.35573C13.4907 4.6211 13.0016 4.80795 12.4916 4.90816C12.1488 4.54209 11.6947 4.29942 11.1998 4.21784C10.705 4.13625 10.1971 4.22031 9.75487 4.45695C9.31268 4.6936 8.96099 5.06961 8.75438 5.5266C8.54776 5.98359 8.4978 6.49601 8.61223 6.98431C7.70678 6.93906 6.82097 6.70388 6.01232 6.29405C5.20367 5.88422 4.49025 5.3089 3.91838 4.60545C3.62642 5.10655 3.53671 5.70018 3.66757 6.26518C3.79843 6.83017 4.13999 7.32392 4.62253 7.64563C4.26116 7.63428 3.90773 7.53671 3.59172 7.36107V7.3901C3.59201 7.91585 3.77409 8.42532 4.1071 8.83215C4.44011 9.23899 4.90355 9.51815 5.41887 9.62233C5.08318 9.71337 4.73116 9.72677 4.38951 9.66153C4.53479 10.1141 4.81794 10.5099 5.19933 10.7935C5.58072 11.0771 6.04126 11.2344 6.51647 11.2433C6.04417 11.6142 5.5034 11.8884 4.92507 12.0502C4.34675 12.212 3.7422 12.2583 3.146 12.1863C4.18691 12.8557 5.39865 13.2111 6.63625 13.2099C10.8249 13.2099 13.1151 9.73993 13.1151 6.73096C13.1151 6.63296 13.1122 6.53351 13.1079 6.43696C13.5537 6.11467 13.9384 5.71473 14.244 5.25733Z" fill="url(#paint0_linear_22005_1156)" fill-opacity="0.24"/>
</g>
</g>
<defs>
<linearGradient id="paint0_linear_22005_1156" x1="8.69498" y1="4.18659" x2="8.69498" y2="13.2099" gradientUnits="userSpaceOnUse">
<stop stop-color="white"/>
<stop offset="1" stop-color="white" stop-opacity="0"/>
</linearGradient>
<clipPath id="clip0_22005_1156">
<rect width="17.4222" height="17.4222" fill="white"/>
</clipPath>
<clipPath id="clip1_22005_1156">
<rect width="17.4222" height="17.4222" fill="white"/>
</clipPath>
</defs>
</svg>
