<svg width="18" height="18" viewBox="0 0 18 18" fill="none" xmlns="http://www.w3.org/2000/svg">
<g clip-path="url(#clip0_22005_884)">
<g clip-path="url(#clip1_22005_884)">
<path d="M6.28624 14.2533C11.2182 14.2533 13.9143 10.1663 13.9143 6.62305C13.9143 6.50691 13.9121 6.39076 13.907 6.27606C14.4317 5.89627 14.8845 5.42602 15.2442 4.88736C14.7552 5.10445 14.2365 5.24686 13.7052 5.30985C14.2648 4.97443 14.6835 4.44713 14.8834 3.82606C14.3572 4.13843 13.7814 4.35864 13.1811 4.47721C12.7774 4.04594 12.2426 3.76004 11.6597 3.66391C11.0768 3.56779 10.4785 3.66683 9.95773 3.94565C9.43693 4.22446 9.02277 4.66745 8.77957 5.20581C8.53638 5.74417 8.47776 6.34777 8.61283 6.92286C7.54679 6.86937 6.50392 6.59225 5.55194 6.10951C4.59997 5.62676 3.76017 4.94919 3.08708 4.12078C2.84893 4.5301 2.72368 4.99528 2.72411 5.46883C2.72411 6.39947 3.19742 7.22049 3.91681 7.70106C3.49098 7.68809 3.07448 7.57307 2.70234 7.36568V7.3998C2.7023 8.01897 2.91647 8.6191 3.30852 9.09834C3.70057 9.57759 4.24635 9.90644 4.85326 10.0291C4.45841 10.1365 4.04423 10.1522 3.64241 10.0748C3.81352 10.6077 4.14693 11.0737 4.596 11.4077C5.04506 11.7417 5.5873 11.927 6.14686 11.9376C5.19734 12.6834 4.02443 13.0879 2.81703 13.086C2.60361 13.086 2.38946 13.0736 2.17749 13.0482C3.40294 13.8361 4.82935 14.2545 6.28624 14.2533Z" fill="#1DA1F2"/>
</g>
</g>
<defs>
<clipPath id="clip0_22005_884">
<rect width="17.4222" height="17.4222" fill="white"/>
</clipPath>
<clipPath id="clip1_22005_884">
<rect width="17.4222" height="17.4222" fill="white"/>
</clipPath>
</defs>
</svg>
