<svg width="18" height="18" viewBox="0 0 18 18" fill="none" xmlns="http://www.w3.org/2000/svg">
<g clip-path="url(#clip0_22005_924)">
<g clip-path="url(#clip1_22005_924)">
<mask id="mask0_22005_924" style="mask-type:luminance" maskUnits="userSpaceOnUse" x="2" y="2" width="14" height="14">
<path d="M13.0668 2.17773H4.35564C3.15288 2.17773 2.17786 3.15276 2.17786 4.35551V13.0666C2.17786 14.2694 3.15288 15.2444 4.35564 15.2444H13.0668C14.2695 15.2444 15.2445 14.2694 15.2445 13.0666V4.35551C15.2445 3.15276 14.2695 2.17773 13.0668 2.17773Z" fill="white"/>
</mask>
<g mask="url(#mask0_22005_924)">
<path d="M2.66565 7.89098C2.66565 6.06164 2.66565 5.14698 3.02135 4.44791C3.33476 3.83297 3.83488 3.3331 4.44998 3.02001C5.14904 2.66431 6.06371 2.66431 7.89305 2.66431H9.5409C11.3702 2.66431 12.2849 2.66431 12.984 3.02001C13.5985 3.33335 14.0981 3.83319 14.4111 4.44791C14.7668 5.14698 14.7668 6.06164 14.7668 7.89098V9.53883C14.7668 11.3682 14.7668 12.2828 14.4111 12.9819C14.098 13.5963 13.5984 14.0959 12.984 14.4091C12.2849 14.7648 11.3702 14.7648 9.5409 14.7648H7.89305C6.06371 14.7648 5.14904 14.7648 4.44998 14.4091C3.83526 14.0961 3.33542 13.5965 3.02208 12.9819C2.66638 12.2828 2.66638 11.3682 2.66638 9.53883V7.89098H2.66565Z" fill="url(#paint0_radial_22005_924)"/>
<path d="M2.66565 7.89098C2.66565 6.06164 2.66565 5.14698 3.02135 4.44791C3.33476 3.83297 3.83488 3.3331 4.44998 3.02001C5.14904 2.66431 6.06371 2.66431 7.89305 2.66431H9.5409C11.3702 2.66431 12.2849 2.66431 12.984 3.02001C13.5985 3.33335 14.0981 3.83319 14.4111 4.44791C14.7668 5.14698 14.7668 6.06164 14.7668 7.89098V9.53883C14.7668 11.3682 14.7668 12.2828 14.4111 12.9819C14.098 13.5963 13.5984 14.0959 12.984 14.4091C12.2849 14.7648 11.3702 14.7648 9.5409 14.7648H7.89305C6.06371 14.7648 5.14904 14.7648 4.44998 14.4091C3.83526 14.0961 3.33542 13.5965 3.02208 12.9819C2.66638 12.2828 2.66638 11.3682 2.66638 9.53883V7.89098H2.66565Z" fill="url(#paint1_radial_22005_924)"/>
<path d="M8.71114 4.47705C7.56127 4.47705 7.41681 4.48141 6.96528 4.50246C6.51521 4.52278 6.20669 4.59465 5.93737 4.69846C5.65934 4.80735 5.42269 4.95181 5.18749 5.18701C4.95229 5.42293 4.8071 5.65886 4.69894 5.93762C4.59368 6.20621 4.52254 6.51473 4.50221 6.9648C4.48189 7.41705 4.47681 7.56151 4.47681 8.71138C4.47681 9.86125 4.48189 10.005 4.50221 10.4572C4.52254 10.9073 4.59441 11.2151 4.69821 11.4844C4.8071 11.7632 4.95229 11.9998 5.18749 12.235C5.42269 12.4702 5.65934 12.6154 5.93737 12.7236C6.20596 12.8281 6.51448 12.8993 6.96528 12.9196C7.41681 12.9414 7.56054 12.9457 8.71114 12.9457C9.86101 12.9457 10.0047 12.9406 10.457 12.9203C10.9071 12.9 11.2156 12.8281 11.4849 12.7236C11.7675 12.6173 12.0234 12.4506 12.2348 12.235C12.47 11.9991 12.6152 11.7632 12.7233 11.4844C12.8271 11.2158 12.899 10.9073 12.9201 10.4572C12.9404 10.005 12.9455 9.86198 12.9455 8.71138C12.9455 7.56151 12.9404 7.41705 12.9201 6.96553C12.8983 6.51473 12.8271 6.20693 12.7233 5.93762C12.617 5.65487 12.4503 5.39872 12.2348 5.18701C12.0234 4.97168 11.7674 4.80518 11.4849 4.69918C11.2149 4.59465 10.9071 4.52278 10.4563 4.50246C10.004 4.48141 9.86101 4.47705 8.71041 4.47705H8.71114ZM8.33148 5.23927H8.71186C9.84213 5.23927 9.97643 5.24363 10.4229 5.26396C10.8352 5.28283 11.0595 5.35179 11.2091 5.40987C11.4065 5.48682 11.5473 5.57828 11.6954 5.72637C11.8435 5.87519 11.935 6.01602 12.0127 6.21347C12.0707 6.36301 12.1397 6.58659 12.1578 6.99965C12.1782 7.44609 12.1832 7.58039 12.1832 8.71066C12.1832 9.8402 12.1782 9.97449 12.1578 10.4209C12.139 10.834 12.0707 11.0576 12.0127 11.2071C11.9447 11.391 11.8363 11.5572 11.6954 11.6935C11.5473 11.8416 11.4065 11.933 11.2091 12.01C11.0595 12.0681 10.8352 12.137 10.4229 12.1559C9.97643 12.1762 9.84213 12.1806 8.71186 12.1806C7.58087 12.1806 7.44657 12.1762 7.00013 12.1559C6.5878 12.137 6.36349 12.0681 6.21395 12.01C6.03022 11.9421 5.86403 11.834 5.72758 11.6935C5.58683 11.5571 5.47843 11.3909 5.41035 11.2071C5.35227 11.0576 5.28331 10.8333 5.26444 10.4202C5.24411 9.97449 5.23976 9.83947 5.23976 8.7092C5.23976 7.57821 5.24411 7.44464 5.26444 6.99892C5.28331 6.58514 5.35155 6.36156 5.40962 6.21274C5.47789 6.02884 5.58626 5.86245 5.72685 5.72565C5.8635 5.58486 6.02994 5.47647 6.21395 5.40841C6.36349 5.35034 6.5878 5.28138 7.00013 5.26323C7.44359 5.24243 7.88755 5.23493 8.33148 5.23927ZM10.9717 5.94342C10.8369 5.94342 10.7077 5.99696 10.6124 6.09226C10.5171 6.18755 10.4635 6.3168 10.4635 6.45157C10.4635 6.58634 10.5171 6.71559 10.6124 6.81089C10.7077 6.90618 10.8369 6.95972 10.9717 6.95972C11.1065 6.95972 11.2359 6.90615 11.3312 6.81078C11.4266 6.71542 11.4802 6.58607 11.4802 6.45121C11.4802 6.31634 11.4266 6.187 11.3312 6.09164C11.2359 5.99627 11.1065 5.9427 10.9717 5.9427V5.94342ZM8.71114 6.53578C8.13432 6.53578 7.58114 6.76492 7.17327 7.17279C6.7654 7.58065 6.53626 8.13384 6.53626 8.71066C6.53626 9.28747 6.7654 9.84066 7.17327 10.2485C7.58114 10.6564 8.13432 10.8855 8.71114 10.8855C9.28795 10.8855 9.84114 10.6564 10.249 10.2485C10.6569 9.84066 10.886 9.28747 10.886 8.71066C10.886 8.13384 10.6569 7.58065 10.249 7.17279C9.84114 6.76492 9.28795 6.53578 8.71114 6.53578ZM8.71114 7.29873C9.0856 7.29873 9.44473 7.44748 9.70952 7.71227C9.97431 7.97706 10.1231 8.33619 10.1231 8.71066C10.1231 9.08512 9.97431 9.44425 9.70952 9.70904C9.44473 9.97383 9.0856 10.1226 8.71114 10.1226C8.33667 10.1226 7.97754 9.97383 7.71275 9.70904C7.44797 9.44425 7.29921 9.08512 7.29921 8.71066C7.29921 8.33619 7.44797 7.97706 7.71275 7.71227C7.97754 7.44748 8.33667 7.29873 8.71114 7.29873Z" fill="white"/>
</g>
</g>
</g>
<defs>
<radialGradient id="paint0_radial_22005_924" cx="0" cy="0" r="1" gradientUnits="userSpaceOnUse" gradientTransform="translate(5.88005 15.6976) rotate(-90) scale(11.9932 11.1546)">
<stop stop-color="#FFDD55"/>
<stop offset="0.1" stop-color="#FFDD55"/>
<stop offset="0.5" stop-color="#FF543E"/>
<stop offset="1" stop-color="#C837AB"/>
</radialGradient>
<radialGradient id="paint1_radial_22005_924" cx="0" cy="0" r="1" gradientUnits="userSpaceOnUse" gradientTransform="translate(0.638862 3.53542) rotate(78.6806) scale(5.361 22.0983)">
<stop stop-color="#3771C8"/>
<stop offset="0.128" stop-color="#3771C8"/>
<stop offset="1" stop-color="#6600FF" stop-opacity="0"/>
</radialGradient>
<clipPath id="clip0_22005_924">
<rect width="17.4222" height="17.4222" fill="white"/>
</clipPath>
<clipPath id="clip1_22005_924">
<rect width="17.4222" height="17.4222" fill="white"/>
</clipPath>
</defs>
</svg>
