<svg width="10" height="12" viewBox="0 0 10 12" fill="none" xmlns="http://www.w3.org/2000/svg">
<path d="M8.36486 8.36481L4.90001 11.8297L1.43516 8.36481C0.749889 7.67953 0.283213 6.80644 0.0941499 5.85593C-0.0949131 4.90542 0.00212752 3.9202 0.372999 3.02484C0.743871 2.12949 1.37192 1.36421 2.17772 0.825795C2.98352 0.287378 3.93088 0 4.90001 0C5.86914 0 6.8165 0.287378 7.6223 0.825795C8.4281 1.36421 9.05615 2.12949 9.42702 3.02484C9.79789 3.9202 9.89493 4.90542 9.70587 5.85593C9.5168 6.80644 9.05013 7.67953 8.36486 8.36481ZM4.90001 5.98885C5.18899 5.98885 5.46614 5.87405 5.67048 5.66971C5.87483 5.46537 5.98962 5.18821 5.98962 4.89923C5.98962 4.61025 5.87483 4.33311 5.67048 4.12876C5.46614 3.92442 5.18899 3.80962 4.90001 3.80962C4.61102 3.80962 4.33388 3.92442 4.12953 4.12876C3.92519 4.33311 3.81039 4.61025 3.81039 4.89923C3.81039 5.18821 3.92519 5.46537 4.12953 5.66971C4.33388 5.87405 4.61102 5.98885 4.90001 5.98885Z" fill="#6E51E0"/>
</svg>
