<svg width="83" height="24" viewBox="0 0 83 24" fill="none" xmlns="http://www.w3.org/2000/svg">
<g clip-path="url(#clip0_22005_1415)">
<g clip-path="url(#clip1_22005_1415)">
<path d="M12.7269 5.08145C11.4039 5.08145 10.135 5.60703 9.1995 6.54257C8.26396 7.47811 7.73838 8.74697 7.73838 10.07V10.0802C6.5999 10.1577 5.536 10.6742 4.77099 11.5209C4.00599 12.3676 3.59967 13.4783 3.6377 14.6188C3.67574 15.7592 4.15516 16.8404 4.97487 17.6342C5.79459 18.4281 6.89054 18.8726 8.03165 18.8741H17.4222C18.5634 18.8726 19.6593 18.4281 20.479 17.6342C21.2987 16.8404 21.7782 15.7592 21.8162 14.6188C21.8542 13.4783 21.4479 12.3676 20.6829 11.5209C19.9179 10.6742 18.854 10.1577 17.7155 10.0802V10.07C17.7155 8.74697 17.1899 7.47811 16.2544 6.54257C15.3189 5.60703 14.05 5.08145 12.7269 5.08145Z" fill="#6E51E0"/>
<path d="M12.7269 5.08145C11.4039 5.08145 10.135 5.60703 9.1995 6.54257C8.26396 7.47811 7.73838 8.74697 7.73838 10.07V10.0802C6.5999 10.1577 5.536 10.6742 4.77099 11.5209C4.00599 12.3676 3.59967 13.4783 3.6377 14.6188C3.67574 15.7592 4.15516 16.8404 4.97487 17.6342C5.79459 18.4281 6.89054 18.8726 8.03165 18.8741H17.4222C18.5634 18.8726 19.6593 18.4281 20.479 17.6342C21.2987 16.8404 21.7782 15.7592 21.8162 14.6188C21.8542 13.4783 21.4479 12.3676 20.6829 11.5209C19.9179 10.6742 18.854 10.1577 17.7155 10.0802V10.07C17.7155 8.74697 17.1899 7.47811 16.2544 6.54257C15.3189 5.60703 14.05 5.08145 12.7269 5.08145Z" fill="url(#paint0_linear_22005_1415)" fill-opacity="0.4"/>
<path d="M12.7269 5.08145C11.4039 5.08145 10.135 5.60703 9.1995 6.54257C8.26396 7.47811 7.73838 8.74697 7.73838 10.07V10.0802C6.5999 10.1577 5.536 10.6742 4.77099 11.5209C4.00599 12.3676 3.59967 13.4783 3.6377 14.6188C3.67574 15.7592 4.15516 16.8404 4.97487 17.6342C5.79459 18.4281 6.89054 18.8726 8.03165 18.8741H17.4222C18.5634 18.8726 19.6593 18.4281 20.479 17.6342C21.2987 16.8404 21.7782 15.7592 21.8162 14.6188C21.8542 13.4783 21.4479 12.3676 20.6829 11.5209C19.9179 10.6742 18.854 10.1577 17.7155 10.0802V10.07C17.7155 8.74697 17.1899 7.47811 16.2544 6.54257C15.3189 5.60703 14.05 5.08145 12.7269 5.08145Z" stroke="url(#paint1_linear_22005_1415)" stroke-opacity="0.32" stroke-width="1.08889" stroke-linecap="round" stroke-linejoin="round"/>
<path d="M34.8822 19.1034C33.7207 19.1034 32.7189 18.9154 31.8768 18.5394C31.0413 18.1626 30.3967 17.6204 29.9437 16.9119C29.4907 16.1976 29.2577 15.3395 29.2454 14.3377H31.8006C31.8195 14.88 31.9567 15.3424 32.2122 15.7257C32.467 16.1083 32.822 16.4015 33.2743 16.6055C33.7338 16.8037 34.2731 16.9032 34.8916 16.9032C35.4724 16.9032 35.9762 16.8197 36.4037 16.6534C36.8378 16.4879 37.1761 16.2549 37.4186 15.9551C37.661 15.6488 37.7815 15.2916 37.7815 14.8829C37.7815 14.5453 37.6864 14.255 37.4948 14.0118C37.3097 13.7635 37.0258 13.553 36.6433 13.3802C36.26 13.2024 35.7693 13.0427 35.1697 12.9018L33.6191 12.5389C32.2667 12.226 31.2489 11.7534 30.5658 11.1219C29.89 10.4838 29.5517 9.65768 29.5517 8.64356C29.5517 7.79422 29.7746 7.0516 30.2217 6.41351C30.6682 5.77542 31.2867 5.28106 32.0779 4.92972C32.8692 4.57256 33.7846 4.39398 34.8248 4.39398C35.8774 4.39398 36.7899 4.57546 37.5616 4.93988C38.3405 5.30284 38.9466 5.8168 39.38 6.4803C39.8141 7.14379 40.0435 7.92852 40.0697 8.83448H37.5812C37.5304 8.13323 37.2552 7.58443 36.758 7.1888C36.2665 6.79317 35.6161 6.59499 34.8052 6.59499C34.2891 6.59499 33.8325 6.67847 33.4369 6.84398C33.0412 7.00369 32.7327 7.22727 32.5084 7.51401C32.2863 7.79773 32.1682 8.149 32.1738 8.50926C32.1738 8.84754 32.2696 9.13501 32.4612 9.37094C32.6521 9.60033 32.936 9.80141 33.3127 9.97346C33.6888 10.1397 34.1519 10.2856 34.7 10.4141L36.1068 10.7487C36.7892 10.9019 37.3961 11.0972 37.9253 11.3324C38.4552 11.5625 38.9016 11.8405 39.2653 12.165C39.6356 12.4902 39.9129 12.8706 40.098 13.3047C40.2896 13.7316 40.3854 14.2194 40.3854 14.7682C40.3854 15.6488 40.1618 16.4146 39.7154 17.065C39.2748 17.7097 38.6432 18.2105 37.8207 18.5677C37.0033 18.9249 36.0241 19.1034 34.8822 19.1034ZM46.7787 8.60508V10.5956H40.6823V8.60508H46.7787ZM42.185 5.90609H44.7018V15.7163C44.7018 16.1315 44.7889 16.4277 44.9602 16.6062C45.133 16.7856 45.4234 16.8748 45.8313 16.8748H46.2908C46.4506 16.8676 46.5907 16.8618 46.7119 16.8552L46.8266 18.8457C46.6357 18.8719 46.4055 18.8878 46.1377 18.8936C45.8691 18.9067 45.6019 18.9132 45.3334 18.9132C44.3192 18.9132 43.5403 18.6737 42.9988 18.1953C42.4565 17.7162 42.1857 17.0309 42.1857 16.138L42.185 5.90609ZM52.1578 19.1034C51.1313 19.1034 50.2413 18.8769 49.4878 18.424C48.7387 17.9752 48.134 17.3209 47.7456 16.5387C47.3376 15.7351 47.1336 14.8096 47.1336 13.7635C47.1336 12.7175 47.3413 11.7919 47.7558 10.9883C48.1703 10.1774 48.7445 9.54588 49.4784 9.09363C50.2188 8.63412 51.0733 8.404 52.0431 8.404C52.7516 8.404 53.402 8.52523 53.9958 8.76769C54.5853 8.99699 55.1152 9.35686 55.5457 9.82028C55.9863 10.2798 56.3246 10.8351 56.5605 11.4856C56.803 12.1367 56.9235 12.8735 56.9235 13.6967V14.3951H48.1579V12.7109H55.68L54.541 13.161C54.541 12.5926 54.4423 12.1011 54.2448 11.6874C54.0635 11.2846 53.7669 10.9446 53.3926 10.7103C53.0296 10.4809 52.589 10.3662 52.0714 10.3662C51.5618 10.3662 51.1212 10.4809 50.7509 10.7103C50.3807 10.9404 50.094 11.262 49.89 11.6772C49.6925 12.0852 49.5931 12.5643 49.5931 13.1131V14.2325C49.5931 14.8197 49.6947 15.333 49.8994 15.7729C50.0954 16.1908 50.408 16.5432 50.7996 16.7877C51.1945 17.0302 51.6671 17.1514 52.2151 17.1514C52.5984 17.1514 52.9396 17.0933 53.2394 16.9794C53.528 16.8758 53.7897 16.7089 54.0053 16.4908C54.2158 16.2745 54.3682 16.0219 54.4648 15.7351L56.8095 15.8114C56.6822 16.4486 56.3921 17.0421 55.9675 17.534C55.5392 18.0254 54.9976 18.4116 54.3399 18.6926C53.6895 18.9662 52.9614 19.1034 52.1578 19.1034ZM60.4087 4.61394V18.874H57.9013V4.61394H60.4087ZM64.3904 4.61394V18.874H61.883V4.61394H64.3904ZM68.8984 19.0563C68.2233 19.0563 67.62 18.9408 67.0908 18.7114C66.5802 18.4976 66.1439 18.1381 65.8364 17.6777C65.5301 17.2182 65.3769 16.6505 65.3769 15.974C65.3769 15.3874 65.4858 14.9054 65.7021 14.5294C65.9257 14.1461 66.2226 13.8397 66.5928 13.6103C66.9905 13.372 67.4231 13.1976 67.8748 13.0935C68.3686 12.97 68.8709 12.8836 69.3775 12.8351C70.0025 12.7646 70.5005 12.7044 70.8707 12.6536C71.241 12.5955 71.5088 12.5127 71.6743 12.4046C71.8398 12.2957 71.9233 12.1273 71.9233 11.8972V11.8304C71.9233 11.5306 71.85 11.2685 71.7034 11.0456C71.5625 10.8221 71.3549 10.65 71.0812 10.5288C70.8127 10.4076 70.4874 10.3473 70.1049 10.3473C69.7158 10.3473 69.3746 10.4076 69.0813 10.5288C68.7939 10.65 68.5608 10.8192 68.3822 11.0362C68.2102 11.2467 68.1013 11.4863 68.057 11.7534L65.6833 11.6199C65.766 10.9941 65.9954 10.4424 66.3729 9.96474C66.7554 9.4791 67.2621 9.09944 67.8944 8.82504C68.5318 8.55064 69.2751 8.41344 70.1237 8.41344C70.7364 8.41344 71.3041 8.49039 71.8275 8.64356C72.3502 8.796 72.8039 9.02322 73.1864 9.32303C73.5755 9.6163 73.8753 9.97636 74.0859 10.4047C74.3029 10.8315 74.4118 11.3193 74.4118 11.8689V18.874H71.9712V17.4295H71.9132C71.7503 17.7399 71.5368 18.021 71.2816 18.2614C71.0203 18.5038 70.6951 18.6984 70.306 18.845C69.9169 18.9858 69.4479 19.0555 68.8991 19.0555L68.8984 19.0563ZM69.5401 17.2182C70.0439 17.2182 70.4751 17.1224 70.8323 16.9315C71.1952 16.7398 71.4703 16.4879 71.6555 16.175C71.8398 15.8556 71.9328 15.5021 71.9328 15.113V13.9835C71.8219 14.0498 71.7028 14.1013 71.5785 14.1366C71.4261 14.1817 71.2439 14.2259 71.0333 14.2709C70.8286 14.3087 70.6123 14.3472 70.3822 14.3856L69.7121 14.4815C69.3615 14.5323 69.0428 14.615 68.7554 14.7297C68.4686 14.8386 68.2385 14.9911 68.0657 15.1892C67.8944 15.3809 67.808 15.6299 67.808 15.9362C67.808 16.3442 67.9641 16.66 68.277 16.8836C68.5964 17.1064 69.0174 17.2182 69.5401 17.2182ZM75.8666 18.874V8.60508H78.2882V10.3183H78.3456C78.5307 9.72519 78.8334 9.27511 79.2545 8.96877C79.6762 8.65662 80.2083 8.49982 80.8529 8.49982C81.0061 8.49982 81.1564 8.50273 81.303 8.50926C81.4497 8.51579 81.5738 8.52523 81.6761 8.5383V10.7683C81.5803 10.7553 81.4206 10.7393 81.1978 10.7204C80.9722 10.6947 80.7453 10.6819 80.5183 10.682C80.1161 10.682 79.7524 10.7742 79.4272 10.9593C79.0971 11.143 78.8276 11.4189 78.6519 11.7534C78.4668 12.1048 78.3746 12.5323 78.3746 13.0361V18.874H75.8666Z" fill="#060B13"/>
</g>
</g>
<defs>
<linearGradient id="paint0_linear_22005_1415" x1="12.7269" y1="5.08145" x2="12.7269" y2="15.6059" gradientUnits="userSpaceOnUse">
<stop stop-color="white"/>
<stop offset="1" stop-color="white" stop-opacity="0"/>
</linearGradient>
<linearGradient id="paint1_linear_22005_1415" x1="12.7269" y1="-2.81228" x2="12.7269" y2="19.5535" gradientUnits="userSpaceOnUse">
<stop stop-color="white"/>
<stop offset="1" stop-color="white" stop-opacity="0"/>
</linearGradient>
<clipPath id="clip0_22005_1415">
<rect width="82.7557" height="23.2297" fill="white"/>
</clipPath>
<clipPath id="clip1_22005_1415">
<rect width="82.7557" height="23.2297" fill="white"/>
</clipPath>
</defs>
</svg>
