<svg width="8" height="7" viewBox="0 0 8 7" fill="none" xmlns="http://www.w3.org/2000/svg">
<path d="M0.357612 5.65328e-07H6.78823C6.83516 -8.29437e-05 6.88165 0.00908615 6.92503 0.0269884C6.96842 0.0448907 7.00784 0.0711706 7.04106 0.104327C7.07427 0.137484 7.10063 0.176865 7.11861 0.220216C7.13659 0.263568 7.14584 0.310041 7.14584 0.356973V6.07365C7.14584 6.12058 7.13659 6.16705 7.11861 6.2104C7.10063 6.25375 7.07427 6.29314 7.04106 6.32629C7.00784 6.35945 6.96842 6.38573 6.92503 6.40363C6.88165 6.42153 6.83516 6.4307 6.78823 6.43062H0.357612C0.31068 6.4307 0.26419 6.42153 0.220807 6.40363C0.177423 6.38573 0.137997 6.35945 0.104782 6.32629C0.0715666 6.29314 0.0452143 6.25375 0.027235 6.2104C0.00925564 6.16705 -7.42959e-08 6.12058 0 6.07365V0.356973C-7.42959e-08 0.310041 0.00925564 0.263568 0.027235 0.220216C0.0452143 0.176865 0.0715666 0.137484 0.104782 0.104327C0.137997 0.0711706 0.177423 0.0448907 0.220807 0.0269884C0.26419 0.00908615 0.31068 -8.29437e-05 0.357612 5.65328e-07ZM6.43126 1.51365L3.59832 4.05058L0.714584 1.50602V5.71667H6.43126V1.51365ZM0.896884 0.713945L3.59451 3.09462L6.25341 0.713945H0.896884Z" fill="#6E51E0"/>
</svg>
