<svg width="131" height="25" viewBox="0 0 131 25" fill="none" xmlns="http://www.w3.org/2000/svg">
<path d="M0 2.04806L16.6963 15.7761C17.2159 16.2033 17.8678 16.4369 18.5405 16.4369C19.2133 16.4369 19.8651 16.2033 20.3847 15.7761L31.7056 6.46823C32.2252 6.04096 32.8771 5.80737 33.5498 5.80737C34.2225 5.80737 34.8744 6.04096 35.394 6.46823L39.6516 9.96864C40.1712 10.3959 40.8231 10.6295 41.4958 10.6295C42.1685 10.6295 42.8204 10.3959 43.34 9.96864L54.2187 1.02378C54.7384 0.596508 55.3902 0.362915 56.063 0.362915C56.7357 0.362915 57.3876 0.596508 57.9072 1.02378L81.5884 20.4946C82.108 20.9218 82.7598 21.1554 83.4326 21.1554C84.1053 21.1554 84.7572 20.9218 85.2768 20.4946L94.3901 13.0016C94.9097 12.5743 95.5616 12.3407 96.2343 12.3407C96.907 12.3407 97.5589 12.5743 98.0785 13.0016L100.129 14.6872C100.649 15.1145 101.3 15.3482 101.973 15.3482C102.646 15.3482 103.298 15.1145 103.817 14.6872L114.696 5.7423C115.216 5.31503 115.868 5.08144 116.541 5.08144C117.213 5.08144 117.865 5.31503 118.385 5.7423L130.667 15.8407" stroke="#505A71" stroke-width="0.725927"/>
<path d="M16.6963 15.7761L0 2.04806V24.9148H130.667V15.8407L118.385 5.7423C117.865 5.31503 117.213 5.08144 116.541 5.08144C115.868 5.08144 115.216 5.31503 114.696 5.7423L103.817 14.6872C103.298 15.1145 102.646 15.3482 101.973 15.3482C101.3 15.3482 100.649 15.1145 100.129 14.6872L98.0785 13.0016C97.5589 12.5743 96.907 12.3407 96.2343 12.3407C95.5616 12.3407 94.9097 12.5743 94.3901 13.0016L85.2768 20.4946C84.7572 20.9218 84.1053 21.1554 83.4326 21.1554C82.7598 21.1554 82.108 20.9218 81.5884 20.4946L57.9072 1.02378C57.3876 0.596508 56.7357 0.362915 56.063 0.362915C55.3902 0.362915 54.7384 0.596508 54.2187 1.02378L43.34 9.96864C42.8204 10.3959 42.1685 10.6295 41.4958 10.6295C40.8231 10.6295 40.1712 10.3959 39.6516 9.96864L35.394 6.46823C34.8744 6.04096 34.2225 5.80737 33.5498 5.80737C32.8771 5.80737 32.2252 6.04096 31.7056 6.46823L20.3847 15.7761C19.8651 16.2033 19.2133 16.4369 18.5405 16.4369C17.8678 16.4369 17.2159 16.2033 16.6963 15.7761Z" fill="url(#paint0_linear_22005_639)"/>
<defs>
<linearGradient id="paint0_linear_22005_639" x1="65.3334" y1="22.011" x2="65.3334" y2="-7.02603" gradientUnits="userSpaceOnUse">
<stop stop-color="#F7F8FA" stop-opacity="0.35"/>
<stop offset="1" stop-color="#6B7094" stop-opacity="0"/>
</linearGradient>
</defs>
</svg>
