<svg width="131" height="35" viewBox="0 0 131 35" fill="none" xmlns="http://www.w3.org/2000/svg">
<mask id="mask0_22005_630" style="mask-type:luminance" maskUnits="userSpaceOnUse" x="0" y="0" width="131" height="35">
<path d="M0 0H130.667V34.8445H0V0Z" fill="white"/>
</mask>
<g mask="url(#mask0_22005_630)">
<path d="M0 22.8667L16.6963 9.13866C17.2159 8.71139 17.8678 8.4778 18.5405 8.4778C19.2133 8.4778 19.8651 8.71139 20.3847 9.13866L31.7056 18.4465C32.2252 18.8738 32.8771 19.1074 33.5498 19.1074C34.2225 19.1074 34.8744 18.8738 35.394 18.4465L39.6516 14.9461C40.1712 14.5188 40.8231 14.2852 41.4958 14.2852C42.1685 14.2852 42.8204 14.5188 43.34 14.9461L54.2187 23.8909C54.7384 24.3182 55.3902 24.5518 56.063 24.5518C56.7357 24.5518 57.3876 24.3182 57.9072 23.8909L81.5884 4.42013C82.108 3.99286 82.7598 3.75928 83.4326 3.75928C84.1053 3.75928 84.7572 3.99286 85.2768 4.42013L94.3901 11.9132C94.9097 12.3404 95.5616 12.574 96.2343 12.574C96.907 12.574 97.5589 12.3404 98.0785 11.9132L100.129 10.2275C100.649 9.80021 101.3 9.56656 101.973 9.56656C102.646 9.56656 103.298 9.80021 103.817 10.2275L114.696 19.1724C115.216 19.5997 115.868 19.8333 116.541 19.8333C117.213 19.8333 117.865 19.5997 118.385 19.1724L130.667 9.07405" stroke="#6E51E0" stroke-width="0.725927"/>
<path d="M16.6963 9.13866L0 22.8667V31.9408H130.667V9.07405L118.385 19.1724C117.865 19.5997 117.213 19.8333 116.541 19.8333C115.868 19.8333 115.216 19.5997 114.696 19.1724L103.817 10.2275C103.298 9.80021 102.646 9.56657 101.973 9.56657C101.3 9.56657 100.649 9.80021 100.129 10.2275L98.0785 11.9132C97.5589 12.3404 96.907 12.574 96.2343 12.574C95.5616 12.574 94.9097 12.3404 94.3901 11.9132L85.2768 4.42013C84.7572 3.99286 84.1053 3.75928 83.4326 3.75928C82.7598 3.75928 82.108 3.99286 81.5884 4.42013L57.9072 23.8909C57.3876 24.3182 56.7357 24.5518 56.063 24.5518C55.3902 24.5518 54.7384 24.3182 54.2187 23.8909L43.34 14.9461C42.8204 14.5188 42.1685 14.2852 41.4958 14.2852C40.8231 14.2852 40.1712 14.5188 39.6516 14.9461L35.394 18.4465C34.8744 18.8738 34.2225 19.1074 33.5498 19.1074C32.8771 19.1074 32.2252 18.8738 31.7056 18.4465L20.3847 9.13866C19.8651 8.71139 19.2133 8.4778 18.5405 8.4778C17.8678 8.4778 17.2159 8.71139 16.6963 9.13866Z" fill="url(#paint0_linear_22005_630)"/>
</g>
<defs>
<linearGradient id="paint0_linear_22005_630" x1="65.3334" y1="2.90367" x2="65.3334" y2="31.9407" gradientUnits="userSpaceOnUse">
<stop stop-color="#642EFF" stop-opacity="0.12"/>
<stop offset="1" stop-color="#642EFF" stop-opacity="0"/>
</linearGradient>
</defs>
</svg>
