<svg width="33" height="7" viewBox="0 0 33 7" fill="none" xmlns="http://www.w3.org/2000/svg">
<path d="M2.41951 1.9059L4.83903 4.32541H0L2.41951 1.9059ZM12.1121 5.235V4.90035C12.1121 4.6695 12.16 4.45826 12.2544 4.26661C12.3516 4.07279 12.4917 3.91817 12.6754 3.80275C12.8605 3.68515 13.0856 3.62635 13.3498 3.62635C13.6184 3.62635 13.8427 3.68515 14.0242 3.80275C14.2057 3.91817 14.3429 4.07279 14.4358 4.26661C14.528 4.45826 14.5744 4.6695 14.5744 4.90035V5.235C14.5744 5.46584 14.5272 5.67781 14.4321 5.87164C14.3408 6.06242 14.1973 6.22348 14.0184 6.33623C13.8369 6.45165 13.614 6.50901 13.3498 6.50901C13.0812 6.50901 12.8562 6.45165 12.6725 6.33623C12.4927 6.22321 12.3479 6.06233 12.2544 5.87164C12.1584 5.67325 12.1097 5.45535 12.1121 5.235ZM12.7436 4.90035V5.235C12.7436 5.42664 12.7887 5.59869 12.8794 5.75113C12.9701 5.90213 13.1269 5.9769 13.3498 5.9769C13.5661 5.9769 13.7186 5.90213 13.8071 5.75113C13.8986 5.59869 13.9436 5.42664 13.9436 5.235V4.90035C13.9436 4.7087 13.9 4.53738 13.8137 4.38712C13.7266 4.23467 13.5727 4.15845 13.3491 4.15845C13.1335 4.15845 12.9774 4.23467 12.8823 4.38712C12.7885 4.54166 12.7405 4.71961 12.7436 4.90035ZM8.95721 1.609V1.27507C8.95721 1.04422 9.0044 0.832983 9.09949 0.641338C9.19604 0.44679 9.33614 0.292168 9.52053 0.176745C9.70564 0.0591452 9.93068 0.000342328 10.1942 0.000342328C10.4628 0.000342328 10.6878 0.0591452 10.8693 0.176745C11.0508 0.292168 11.1873 0.44679 11.2802 0.641338C11.3731 0.832983 11.4196 1.04422 11.4196 1.27507V1.609C11.4196 1.83984 11.3716 2.05254 11.2773 2.24636C11.1855 2.43689 11.0418 2.59766 10.8628 2.71023C10.6813 2.82565 10.4584 2.88372 10.1949 2.88372C9.92632 2.88372 9.70056 2.82565 9.5169 2.71023C9.33754 2.59718 9.19306 2.43661 9.09949 2.24636C9.00354 2.04772 8.95484 1.82958 8.95721 1.609ZM9.58804 1.27507V1.609C9.58804 1.80137 9.63378 1.97341 9.72452 2.12586C9.81453 2.27612 9.97133 2.35162 10.1942 2.35162C10.4112 2.35162 10.5637 2.27612 10.6515 2.12586C10.743 1.97341 10.788 1.80137 10.788 1.609V1.27507C10.788 1.08342 10.7444 0.912109 10.6581 0.761842C10.5717 0.608672 10.417 0.532448 10.1942 0.532448C9.97786 0.532448 9.82179 0.608672 9.72742 0.761842C9.63339 0.91631 9.58507 1.09426 9.58804 1.27507ZM9.19169 6.42262L13.5472 0.0874555H14.2528L9.89729 6.42262H9.19169ZM15.9675 6.42262V5.86583L18.0589 3.57699C18.3042 3.30839 18.5068 3.07537 18.665 2.87719C18.824 2.67756 18.9416 2.48955 19.0178 2.3146C19.0962 2.13747 19.1354 1.95163 19.1354 1.75781C19.1404 1.55792 19.0869 1.36093 18.9814 1.19108C18.8759 1.02122 18.723 0.885905 18.5416 0.801768C18.3482 0.71106 18.1367 0.665623 17.9231 0.668919C17.6792 0.668919 17.4672 0.719008 17.2858 0.820638C17.1091 0.916605 16.9639 1.06155 16.8676 1.23805C16.7671 1.43282 16.7172 1.64975 16.7225 1.86888H15.9929C15.9929 1.49793 16.0778 1.17199 16.2491 0.891778C16.4205 0.610845 16.6535 0.392341 16.9482 0.235541C17.2569 0.0759154 17.6003 -0.00488161 17.9478 0.000342328C18.3188 0.000342328 18.6476 0.0787406 18.9343 0.235541C19.2211 0.392341 19.4461 0.603586 19.6087 0.870001C19.7713 1.13569 19.8534 1.43187 19.8534 1.75781C19.8534 1.99083 19.8105 2.21877 19.7263 2.44163C19.6436 2.66232 19.4991 2.9084 19.293 3.18063C19.089 3.45067 18.8059 3.78097 18.4429 4.17079L17.0194 5.69234V5.7417H19.9644V6.42262H15.9675ZM21.7938 6.47198C21.7206 6.473 21.6479 6.45896 21.5804 6.43074C21.5128 6.40252 21.4518 6.36072 21.4011 6.30792C21.3483 6.2572 21.3064 6.19616 21.2782 6.1286C21.25 6.06104 21.236 5.98841 21.237 5.9152C21.237 5.76275 21.2914 5.63208 21.4011 5.52247C21.4518 5.46967 21.5128 5.42787 21.5804 5.39964C21.6479 5.37142 21.7206 5.35738 21.7938 5.35841C21.9462 5.35841 22.0776 5.41285 22.1865 5.52247C22.2393 5.57322 22.281 5.63426 22.3093 5.70181C22.3375 5.76937 22.3515 5.84199 22.3506 5.9152C22.3514 6.01347 22.3248 6.11002 22.2736 6.19395C22.2244 6.27748 22.1553 6.34756 22.0725 6.39794C21.9882 6.44774 21.8917 6.47336 21.7938 6.47198ZM23.7262 6.42262L26.5595 0.81701V0.767646H23.2928V0.0874555H27.3515V0.804671L24.5305 6.42262H23.7262ZM30.4134 6.50901C29.9888 6.50901 29.6135 6.43423 29.2875 6.28324C28.9826 6.14659 28.7206 5.92952 28.5297 5.65531C28.3475 5.38532 28.2534 5.06554 28.2603 4.73992C28.2559 4.49016 28.3073 4.24256 28.4106 4.01515C28.514 3.78773 28.6667 3.58622 28.8578 3.42527C29.0377 3.27399 29.2543 3.17262 29.4857 3.13127V3.09424C29.1892 3.02044 28.931 2.8384 28.7619 2.58391C28.5817 2.31885 28.4886 2.00421 28.4955 1.68377C28.4934 1.36146 28.5747 1.07399 28.7402 0.820638C28.905 0.566563 29.1314 0.366936 29.4204 0.220299C29.7294 0.0696224 30.0697 -0.00575283 30.4134 0.000342328C30.7808 0.000342328 31.1081 0.0736619 31.3971 0.220299C31.686 0.366936 31.9125 0.566563 32.078 0.820638C32.2449 1.07399 32.3292 1.36146 32.3313 1.68377C32.3338 2.00489 32.2378 2.31906 32.0562 2.58391C31.8769 2.84525 31.6388 3.01584 31.3412 3.09424V3.13127C31.5706 3.17265 31.7767 3.27064 31.9604 3.42527C32.1505 3.58748 32.3032 3.78904 32.4079 4.01601C32.5125 4.24299 32.5666 4.48998 32.5665 4.73992C32.5692 5.06634 32.4719 5.38576 32.2878 5.65531C32.1063 5.92173 31.8537 6.13079 31.5299 6.28324C31.2083 6.43423 30.8359 6.50901 30.4134 6.50901ZM30.4134 5.82881C30.7002 5.82881 30.9477 5.78235 31.1561 5.68943C31.3644 5.59651 31.5248 5.46584 31.6388 5.2967C31.752 5.12756 31.8094 4.92938 31.8116 4.70289C31.8136 4.4778 31.7492 4.25711 31.6265 4.06844C31.5018 3.8823 31.3296 3.73291 31.1277 3.63579C30.9055 3.52718 30.6607 3.47294 30.4134 3.47753C30.1434 3.47753 29.9024 3.53053 29.6897 3.63579C29.4879 3.73275 29.3159 3.88219 29.1917 4.06844C29.0704 4.25736 29.0089 4.47848 29.0153 4.70289C29.0131 4.92938 29.0676 5.12756 29.1794 5.2967C29.2926 5.46584 29.4545 5.59651 29.665 5.68943C29.8755 5.78235 30.1245 5.82881 30.4134 5.82881ZM30.4134 2.82202C30.6406 2.82202 30.8417 2.77628 31.0167 2.68554C31.1938 2.5948 31.3332 2.4685 31.4341 2.30516C31.5357 2.14255 31.5873 1.95163 31.5887 1.73313C31.5918 1.53588 31.5395 1.34171 31.4377 1.17271C31.3386 1.01239 31.1958 0.883694 31.0261 0.801768C30.8352 0.709771 30.6253 0.664245 30.4134 0.668919C30.1988 0.663964 29.9859 0.70947 29.792 0.801768C29.6142 0.888154 29.477 1.01228 29.3804 1.17271C29.2805 1.34212 29.2311 1.53658 29.2382 1.73313C29.2314 1.93371 29.2818 2.13208 29.3833 2.30516C29.4842 2.4685 29.6236 2.5948 29.8007 2.68554C29.9786 2.77628 30.1826 2.82202 30.4134 2.82202Z" fill="#6E51E0"/>
</svg>
