<svg width="61" height="7" viewBox="0 0 61 7" fill="none" xmlns="http://www.w3.org/2000/svg">
<path d="M0 0.767561V0.0873588H4.75119V0.767561H2.75925V6.42252H1.99194V0.767561H0ZM9.40729 1.67134C9.39297 1.52316 9.34481 1.38025 9.26653 1.25363C9.18824 1.12701 9.08192 1.02008 8.95576 0.941056C8.69152 0.767559 8.36776 0.681173 7.98374 0.681173C7.70353 0.681173 7.45817 0.726178 7.24765 0.816919C7.05441 0.896151 6.88578 1.02545 6.7591 1.1915C6.6438 1.34828 6.58288 1.53844 6.58561 1.73303C6.58561 1.90217 6.62626 2.04737 6.70684 2.16932C6.78887 2.28838 6.89413 2.38855 7.02189 2.46913C7.14965 2.54753 7.28395 2.61214 7.42405 2.66368C7.56416 2.71377 7.69337 2.75369 7.81097 2.7849L8.45415 2.95768C8.61893 3.00124 8.80259 3.06076 9.00512 3.13698C9.20911 3.21393 9.40438 3.31774 9.58949 3.44985C9.77751 3.57979 9.93213 3.74676 10.0541 3.95075C10.1753 4.15473 10.2356 4.4059 10.2356 4.7028C10.2356 5.04471 10.1463 5.35396 9.96698 5.63054C9.78985 5.90711 9.52997 6.12635 9.18733 6.28968C8.8476 6.45229 8.43382 6.53359 7.94672 6.53359C7.49302 6.53359 7.10029 6.461 6.76854 6.31436C6.45848 6.18364 6.18922 5.97204 5.9889 5.70168C5.79902 5.43352 5.68857 5.11726 5.67021 4.78919H6.46147C6.48325 5.02875 6.5631 5.22619 6.70321 5.38299C6.85126 5.5413 7.03636 5.6603 7.24185 5.72926C7.45962 5.80403 7.69555 5.84106 7.94672 5.84106C8.24 5.84106 8.50278 5.79388 8.7358 5.69878C8.96883 5.60151 9.15321 5.46793 9.28968 5.29662C9.42543 5.12312 9.49367 4.92131 9.49367 4.69046C9.49367 4.47994 9.4356 4.30863 9.31727 4.17651C9.18817 4.03652 9.02979 3.92671 8.8534 3.85492C8.65122 3.76867 8.44336 3.69639 8.23128 3.63859L7.45237 3.41574C6.95728 3.27346 6.56528 3.0702 6.27636 2.80596C5.98745 2.54245 5.84371 2.19691 5.84371 1.77006C5.84371 1.41508 5.93953 1.10583 6.13118 0.841598C6.325 0.575909 6.58488 0.369753 6.91082 0.223116C7.25675 0.0710435 7.63131 -0.0049618 8.00915 0.00025111C8.41712 0.00025111 8.78008 0.0735652 9.09804 0.220202C9.39669 0.349721 9.65677 0.554287 9.853 0.814017C10.0403 1.06591 10.139 1.3512 10.1499 1.67134H9.40729ZM11.7644 6.42252H10.96L13.2866 0.0873588H14.0779L16.4052 6.42252H15.6002L13.707 1.08914H13.6576L11.7644 6.42252ZM12.062 3.94784H15.3033V4.62803H12.0613L12.062 3.94784ZM31.5197 5.13183L33.9393 2.71232H29.1002L31.5197 5.13183ZM41.2123 5.23491V4.90026C41.2123 4.66941 41.2602 4.45817 41.3546 4.26652C41.4519 4.0727 41.592 3.91808 41.7756 3.80266C41.9607 3.68506 42.1858 3.62625 42.45 3.62625C42.7186 3.62625 42.9429 3.68506 43.1244 3.80266C43.3059 3.91808 43.4431 4.0727 43.536 4.26652C43.6282 4.45817 43.6747 4.66941 43.6747 4.90026V5.23491C43.6747 5.46575 43.6275 5.67772 43.5324 5.87154C43.441 6.06233 43.2976 6.22339 43.1186 6.33614C42.9371 6.45156 42.7143 6.50891 42.45 6.50891C42.1814 6.50891 41.9564 6.45156 41.7727 6.33614C41.5929 6.22312 41.4481 6.06224 41.3546 5.87154C41.2587 5.67316 41.21 5.45526 41.2123 5.23491ZM41.8439 4.90026V5.23491C41.8439 5.42655 41.8889 5.5986 41.9796 5.75104C42.0704 5.90203 42.2272 5.97681 42.45 5.97681C42.6663 5.97681 42.8188 5.90203 42.9074 5.75104C42.9988 5.5986 43.0438 5.42655 43.0438 5.23491V4.90026C43.0438 4.70861 43.0003 4.53729 42.9139 4.38703C42.8268 4.23458 42.6729 4.15836 42.4493 4.15836C42.2337 4.15836 42.0776 4.23458 41.9825 4.38703C41.8888 4.54157 41.8407 4.71952 41.8439 4.90026ZM38.0574 1.60891V1.27498C38.0574 1.04413 38.1046 0.832886 38.1997 0.641241C38.2963 0.446693 38.4364 0.292071 38.6208 0.176649C38.8059 0.0590484 39.0309 0.00025111 39.2944 0.00025111C39.563 0.00025111 39.788 0.0590484 39.9695 0.176649C40.151 0.292071 40.2875 0.446693 40.3804 0.641241C40.4733 0.832886 40.5198 1.04413 40.5198 1.27498V1.60891C40.5198 1.83975 40.4719 2.05244 40.3775 2.24626C40.2857 2.43679 40.142 2.59757 39.963 2.71014C39.7815 2.82556 39.5587 2.88363 39.2951 2.88363C39.0266 2.88363 38.8008 2.82556 38.6171 2.71014C38.4378 2.59709 38.2933 2.43651 38.1997 2.24626C38.1038 2.04763 38.0551 1.82949 38.0574 1.60891ZM38.6883 1.27498V1.60891C38.6883 1.80128 38.734 1.97332 38.8247 2.12576C38.9148 2.27603 39.0716 2.35153 39.2944 2.35153C39.5115 2.35153 39.6639 2.27603 39.7517 2.12576C39.8432 1.97332 39.8882 1.80128 39.8882 1.60891V1.27498C39.8882 1.08333 39.8447 0.912012 39.7583 0.761745C39.6719 0.608575 39.5173 0.532357 39.2944 0.532357C39.0781 0.532357 38.922 0.608575 38.8276 0.761745C38.7336 0.916213 38.6853 1.09417 38.6883 1.27498ZM38.2919 6.42252L42.6475 0.0873588H43.3531L38.9975 6.42252H38.2919ZM47.0974 0.0873588V6.42252H46.3301V1.20094H46.2807C46.2517 1.25829 46.1777 1.32434 46.0579 1.39911C45.9116 1.48214 45.7555 1.54652 45.5933 1.59075C45.3817 1.64724 45.1633 1.67436 44.9443 1.67134V1.02743C45.1897 1.02743 45.4016 0.983152 45.5817 0.894589C45.761 0.806026 45.9105 0.701498 46.0303 0.582446C46.1515 0.462668 46.2437 0.354506 46.3054 0.257232C46.3693 0.160684 46.4071 0.103329 46.4165 0.0873588H47.0974ZM49.0908 6.47188C49.0176 6.47286 48.945 6.45881 48.8774 6.43059C48.8099 6.40237 48.7488 6.36059 48.6981 6.30783C48.6453 6.25707 48.6035 6.19603 48.5753 6.12848C48.5471 6.06093 48.533 5.9883 48.534 5.9151C48.534 5.76265 48.5885 5.63199 48.6973 5.52237C48.7482 5.46952 48.8093 5.42769 48.877 5.39946C48.9447 5.37124 49.0175 5.35723 49.0908 5.35831C49.2432 5.35831 49.3739 5.41276 49.4828 5.52237C49.5356 5.57314 49.5774 5.63418 49.6058 5.70172C49.6341 5.76925 49.6483 5.84186 49.6476 5.9151C49.6455 6.01243 49.6189 6.10768 49.5703 6.19204C49.5217 6.2764 49.4527 6.34718 49.3696 6.39785C49.2852 6.44772 49.1888 6.47334 49.0908 6.47188ZM50.6152 4.83855H51.3949C51.4174 5.05342 51.4907 5.2349 51.6141 5.38299C51.7404 5.52963 51.903 5.6407 52.1034 5.71692C52.303 5.79169 52.5252 5.82872 52.7683 5.82872C53.0319 5.82872 53.2692 5.78443 53.4798 5.69587C53.6903 5.60658 53.8572 5.47519 53.9806 5.29952C54.1048 5.12239 54.1665 4.90243 54.1665 4.64037C54.1665 4.41171 54.1128 4.19901 54.0053 4.00374C53.8986 3.80556 53.7258 3.64586 53.4892 3.5239C53.2518 3.40195 52.9375 3.34169 52.5455 3.34169H52.0381V2.72248L53.622 0.816919V0.767561H50.9245V0.0873588H54.6739V0.644143L52.9789 2.6978V2.74789C53.2511 2.76023 53.5044 2.81539 53.7396 2.91485C53.977 3.01357 54.1832 3.14787 54.3581 3.31701C54.5379 3.48703 54.6808 3.6923 54.7777 3.92C54.8746 4.14769 54.9235 4.39292 54.9214 4.64037C54.9214 5.00188 54.8285 5.32347 54.6427 5.60586C54.459 5.88606 54.2042 6.10675 53.879 6.2679C53.5552 6.42906 53.1807 6.50891 52.756 6.50891C52.4008 6.51268 52.0484 6.44555 51.7194 6.31146C51.418 6.18962 51.1531 5.99239 50.9499 5.7387C50.7483 5.48028 50.6314 5.1659 50.6152 4.83855ZM56.043 5.12312V4.49229L58.5794 0.0873588H59.3344L56.8597 4.39356V4.44292H60.6214V5.12312H56.043ZM59.0251 6.42252V2.46259H59.7547V6.42252H59.0251Z" fill="#505A71"/>
</svg>
