<svg width="24" height="24" viewBox="0 0 24 24" fill="none" xmlns="http://www.w3.org/2000/svg">
<g clip-path="url(#clip0_22005_653)">
<g clip-path="url(#clip1_22005_653)">
<path d="M11.6148 19.5999C10.5238 19.5998 9.45804 19.2719 8.55564 18.6588C7.65324 18.0458 6.95584 17.1757 6.55385 16.1615C6.15187 15.1473 6.06384 14.0358 6.30118 12.9709C6.53853 11.9061 7.0903 10.9371 7.88495 10.1897C8.85915 9.27282 11.2518 7.62207 10.8888 3.99243C15.2444 6.89614 17.4222 9.79985 13.0666 14.1554C13.7925 14.1554 14.8814 14.1554 16.6963 12.3624C16.8923 12.9235 17.0592 13.5268 17.0592 14.1554C17.0592 15.5994 16.4856 16.9842 15.4646 18.0052C14.4435 19.0262 13.0587 19.5999 11.6148 19.5999Z" fill="#6E51E0"/>
<path d="M11.6148 19.5999C10.5238 19.5998 9.45804 19.2719 8.55564 18.6588C7.65324 18.0458 6.95584 17.1757 6.55385 16.1615C6.15187 15.1473 6.06384 14.0358 6.30118 12.9709C6.53853 11.9061 7.0903 10.9371 7.88495 10.1897C8.85915 9.27282 11.2518 7.62207 10.8888 3.99243C15.2444 6.89614 17.4222 9.79985 13.0666 14.1554C13.7925 14.1554 14.8814 14.1554 16.6963 12.3624C16.8923 12.9235 17.0592 13.5268 17.0592 14.1554C17.0592 15.5994 16.4856 16.9842 15.4646 18.0052C14.4435 19.0262 13.0587 19.5999 11.6148 19.5999Z" fill="url(#paint0_linear_22005_653)" fill-opacity="0.24"/>
</g>
</g>
<defs>
<linearGradient id="paint0_linear_22005_653" x1="11.6148" y1="3.99243" x2="11.6148" y2="19.5999" gradientUnits="userSpaceOnUse">
<stop stop-color="white"/>
<stop offset="1" stop-color="white" stop-opacity="0"/>
</linearGradient>
<clipPath id="clip0_22005_653">
<rect width="23.2297" height="23.2297" fill="white"/>
</clipPath>
<clipPath id="clip1_22005_653">
<rect width="23.2297" height="23.2297" fill="white"/>
</clipPath>
</defs>
</svg>
