<svg width="21" height="22" viewBox="0 0 21 22" fill="none" xmlns="http://www.w3.org/2000/svg">
<path d="M1.29796 19.6V13.0667C1.29796 10.7563 2.21573 8.54064 3.84938 6.90699C5.48304 5.27334 7.69874 4.35556 10.0091 4.35556C12.3194 4.35556 14.5351 5.27334 16.1688 6.90699C17.8024 8.54064 18.7202 10.7563 18.7202 13.0667V19.6H19.8091V21.7778H0.209066V19.6H1.29796ZM3.47574 13.0667H5.65352C5.65352 11.9115 6.1124 10.8037 6.92923 9.98683C7.74606 9.17001 8.85391 8.71112 10.0091 8.71112V6.53334C8.27633 6.53334 6.61455 7.22167 5.38931 8.44691C4.16407 9.67215 3.47574 11.3339 3.47574 13.0667ZM8.92019 0H11.098V3.26667H8.92019V0ZM18.4785 3.0576L20.0174 4.59729L17.709 6.90647L16.1686 5.3675L18.4785 3.0576ZM0 4.59729L1.53896 3.0576L3.84886 5.36605L2.3099 6.90792L0 4.59729Z" fill="#6E51E0"/>
</svg>
