<svg width="24" height="24" viewBox="0 0 24 24" fill="none" xmlns="http://www.w3.org/2000/svg">
<g clip-path="url(#clip0_22005_1332)">
<g clip-path="url(#clip1_22005_1332)">
<path d="M7.8037 4.71912C8.62194 4.71912 9.40667 5.04416 9.98525 5.62275C10.5638 6.20133 10.8889 6.98606 10.8889 7.80431V10.8895H7.8037C6.98545 10.8895 6.20072 10.5644 5.62214 9.98586C5.04355 9.40728 4.71851 8.62255 4.71851 7.80431C4.71851 6.98606 5.04355 6.20133 5.62214 5.62275C6.20072 5.04416 6.98545 4.71912 7.8037 4.71912ZM7.8037 12.3413H10.8889V15.4265C10.8889 16.0367 10.7079 16.6332 10.3689 17.1406C10.0299 17.6479 9.54809 18.0434 8.98435 18.2769C8.4206 18.5104 7.80027 18.5715 7.20181 18.4524C6.60334 18.3334 6.05361 18.0396 5.62214 17.6081C5.19067 17.1766 4.89683 16.6269 4.77779 16.0284C4.65875 15.43 4.71984 14.8096 4.95335 14.2459C5.18686 13.6821 5.5823 13.2003 6.08966 12.8613C6.59701 12.5223 7.1935 12.3413 7.8037 12.3413ZM15.4259 4.71912C16.2442 4.71912 17.0289 5.04416 17.6075 5.62275C18.1861 6.20133 18.5111 6.98606 18.5111 7.80431C18.5111 8.62255 18.1861 9.40728 17.6075 9.98586C17.0289 10.5644 16.2442 10.8895 15.4259 10.8895H12.3407V7.80431C12.3407 6.98606 12.6658 6.20133 13.2444 5.62275C13.823 5.04416 14.6077 4.71912 15.4259 4.71912ZM12.3407 12.3413H15.4259C16.0361 12.3413 16.6326 12.5223 17.14 12.8613C17.6473 13.2003 18.0428 13.6821 18.2763 14.2459C18.5098 14.8096 18.5709 15.43 18.4518 16.0284C18.3328 16.6269 18.039 17.1766 17.6075 17.6081C17.176 18.0396 16.6263 18.3334 16.0278 18.4524C15.4294 18.5715 14.809 18.5104 14.2453 18.2769C13.6815 18.0434 13.1997 17.6479 12.8607 17.1406C12.5217 16.6332 12.3407 16.0367 12.3407 15.4265V12.3413Z" fill="#6E51E0"/>
<path d="M7.8037 4.71912C8.62194 4.71912 9.40667 5.04416 9.98525 5.62275C10.5638 6.20133 10.8889 6.98606 10.8889 7.80431V10.8895H7.8037C6.98545 10.8895 6.20072 10.5644 5.62214 9.98586C5.04355 9.40728 4.71851 8.62255 4.71851 7.80431C4.71851 6.98606 5.04355 6.20133 5.62214 5.62275C6.20072 5.04416 6.98545 4.71912 7.8037 4.71912ZM7.8037 12.3413H10.8889V15.4265C10.8889 16.0367 10.7079 16.6332 10.3689 17.1406C10.0299 17.6479 9.54809 18.0434 8.98435 18.2769C8.4206 18.5104 7.80027 18.5715 7.20181 18.4524C6.60334 18.3334 6.05361 18.0396 5.62214 17.6081C5.19067 17.1766 4.89683 16.6269 4.77779 16.0284C4.65875 15.43 4.71984 14.8096 4.95335 14.2459C5.18686 13.6821 5.5823 13.2003 6.08966 12.8613C6.59701 12.5223 7.1935 12.3413 7.8037 12.3413ZM15.4259 4.71912C16.2442 4.71912 17.0289 5.04416 17.6075 5.62275C18.1861 6.20133 18.5111 6.98606 18.5111 7.80431C18.5111 8.62255 18.1861 9.40728 17.6075 9.98586C17.0289 10.5644 16.2442 10.8895 15.4259 10.8895H12.3407V7.80431C12.3407 6.98606 12.6658 6.20133 13.2444 5.62275C13.823 5.04416 14.6077 4.71912 15.4259 4.71912ZM12.3407 12.3413H15.4259C16.0361 12.3413 16.6326 12.5223 17.14 12.8613C17.6473 13.2003 18.0428 13.6821 18.2763 14.2459C18.5098 14.8096 18.5709 15.43 18.4518 16.0284C18.3328 16.6269 18.039 17.1766 17.6075 17.6081C17.176 18.0396 16.6263 18.3334 16.0278 18.4524C15.4294 18.5715 14.809 18.5104 14.2453 18.2769C13.6815 18.0434 13.1997 17.6479 12.8607 17.1406C12.5217 16.6332 12.3407 16.0367 12.3407 15.4265V12.3413Z" fill="url(#paint0_linear_22005_1332)" fill-opacity="0.24"/>
</g>
</g>
<defs>
<linearGradient id="paint0_linear_22005_1332" x1="11.6148" y1="4.71912" x2="11.6148" y2="18.5117" gradientUnits="userSpaceOnUse">
<stop stop-color="white"/>
<stop offset="1" stop-color="white" stop-opacity="0"/>
</linearGradient>
<clipPath id="clip0_22005_1332">
<rect width="23.2297" height="23.2297" fill="white"/>
</clipPath>
<clipPath id="clip1_22005_1332">
<rect width="23.2297" height="23.2297" fill="white"/>
</clipPath>
</defs>
</svg>
