<svg width="12" height="11" viewBox="0 0 12 11" fill="none" xmlns="http://www.w3.org/2000/svg">
<path d="M6.69087 2.20526L9.3797 0.113863C9.48455 0.0328788 9.61528 -0.00721295 9.74751 0.00106794C9.87973 0.00934883 10.0044 0.0654346 10.0984 0.158868L11.7288 1.78857C11.8223 1.88262 11.8784 2.00745 11.8867 2.1398C11.895 2.27215 11.8548 2.40299 11.7738 2.50796L9.68314 5.1968C9.90588 6.10365 9.81107 7.05944 9.41452 7.90486C9.01796 8.75028 8.34362 9.43424 7.50391 9.84273C6.9475 10.1136 6.33695 10.2548 5.71812 10.2558C3.81111 10.2558 1.36111 9.43766 0 8.62099C2.16689 6.98766 1.65874 6.00258 1.90556 5.0821C2.48194 2.93191 4.54212 1.67533 6.69087 2.20526ZM8.54924 3.22808C8.58408 3.26293 8.61966 3.29777 8.65377 3.33407L9.27226 3.95111L10.6196 2.21905L9.66862 1.26808L7.93656 2.61613L8.54924 3.22808Z" fill="#6E51E0"/>
</svg>
