<svg width="24" height="24" viewBox="0 0 24 24" fill="none" xmlns="http://www.w3.org/2000/svg">
<g clip-path="url(#clip0_22005_1365)">
<g clip-path="url(#clip1_22005_1365)">
<path d="M18.1481 9.80019V11.978C18.1481 13.7819 15.2226 15.2446 11.6148 15.2446C8.00691 15.2446 5.08142 13.7819 5.08142 11.978V9.80019C5.08142 11.6041 8.00691 13.0669 11.6148 13.0669C15.2226 13.0669 18.1481 11.6041 18.1481 9.80019ZM5.08142 13.4298C5.08142 15.2338 8.00691 16.6965 11.6148 16.6965C15.2226 16.6965 18.1481 15.2338 18.1481 13.4298V15.6076C18.1481 17.4115 15.2226 18.8743 11.6148 18.8743C8.00691 18.8743 5.08142 17.4115 5.08142 15.6076V13.4298ZM11.6148 11.615C8.00691 11.615 5.08142 10.1523 5.08142 8.34834C5.08142 6.54441 8.00691 5.08167 11.6148 5.08167C15.2226 5.08167 18.1481 6.54441 18.1481 8.34834C18.1481 10.1523 15.2226 11.615 11.6148 11.615Z" fill="#6E51E0"/>
<path d="M18.1481 9.80019V11.978C18.1481 13.7819 15.2226 15.2446 11.6148 15.2446C8.00691 15.2446 5.08142 13.7819 5.08142 11.978V9.80019C5.08142 11.6041 8.00691 13.0669 11.6148 13.0669C15.2226 13.0669 18.1481 11.6041 18.1481 9.80019ZM5.08142 13.4298C5.08142 15.2338 8.00691 16.6965 11.6148 16.6965C15.2226 16.6965 18.1481 15.2338 18.1481 13.4298V15.6076C18.1481 17.4115 15.2226 18.8743 11.6148 18.8743C8.00691 18.8743 5.08142 17.4115 5.08142 15.6076V13.4298ZM11.6148 11.615C8.00691 11.615 5.08142 10.1523 5.08142 8.34834C5.08142 6.54441 8.00691 5.08167 11.6148 5.08167C15.2226 5.08167 18.1481 6.54441 18.1481 8.34834C18.1481 10.1523 15.2226 11.615 11.6148 11.615Z" fill="url(#paint0_linear_22005_1365)" fill-opacity="0.24"/>
</g>
</g>
<defs>
<linearGradient id="paint0_linear_22005_1365" x1="11.6148" y1="5.08167" x2="11.6148" y2="18.8743" gradientUnits="userSpaceOnUse">
<stop stop-color="white"/>
<stop offset="1" stop-color="white" stop-opacity="0"/>
</linearGradient>
<clipPath id="clip0_22005_1365">
<rect width="23.2297" height="23.2297" fill="white"/>
</clipPath>
<clipPath id="clip1_22005_1365">
<rect width="23.2297" height="23.2297" fill="white"/>
</clipPath>
</defs>
</svg>
