<svg width="24" height="24" viewBox="0 0 24 24" fill="none" xmlns="http://www.w3.org/2000/svg">
<g clip-path="url(#clip0_22005_1406)">
<g clip-path="url(#clip1_22005_1406)">
<path d="M9.67685 11.2521H11.2521C11.6811 11.2521 12.1059 11.3366 12.5022 11.5008C12.8985 11.6649 13.2587 11.9056 13.562 12.2089C13.8653 12.5122 14.106 12.8724 14.2701 13.2687C14.4343 13.665 14.5188 14.0898 14.5188 14.5188H9.43657L9.4373 15.2447H15.2447V14.5188C15.2424 13.7464 15.0193 12.9907 14.6015 12.341H16.6966C17.3828 12.3408 18.0549 12.5352 18.6352 12.9015C19.2154 13.2678 19.6799 13.7911 19.9749 14.4106C18.258 16.6762 15.4785 18.1484 12.341 18.1484C10.3367 18.1484 8.63878 17.7201 7.25952 16.9688V10.2148C8.14271 10.3412 8.97671 10.6991 9.67685 11.2521ZM5.80766 9.4373C5.98547 9.43733 6.15708 9.50261 6.28995 9.62076C6.42282 9.73891 6.50771 9.90172 6.52851 10.0783L6.53359 10.1632V16.6966C6.53359 16.8891 6.45711 17.0737 6.32097 17.2099C6.18483 17.346 6.00019 17.4225 5.80766 17.4225H4.35581C4.16328 17.4225 3.97864 17.346 3.8425 17.2099C3.70636 17.0737 3.62988 16.8891 3.62988 16.6966V10.1632C3.62988 9.9707 3.70636 9.78606 3.8425 9.64992C3.97864 9.51379 4.16328 9.4373 4.35581 9.4373H5.80766ZM12.81 5.49915L13.0669 5.75686L13.3239 5.49988C13.4922 5.33017 13.6923 5.19537 13.9128 5.10322C14.1334 5.01106 14.3699 4.96338 14.6089 4.96289C14.8479 4.9624 15.0846 5.00912 15.3055 5.10037C15.5264 5.19161 15.7271 5.32559 15.8961 5.49461C16.065 5.66363 16.1989 5.86436 16.2901 6.08527C16.3813 6.30619 16.428 6.54294 16.4274 6.78193C16.4269 7.02092 16.3791 7.25745 16.2869 7.47794C16.1947 7.69842 16.0598 7.89853 15.8901 8.06676L13.0669 10.8892L10.2431 8.0653C10.0734 7.89703 9.93857 7.69689 9.84642 7.47637C9.75426 7.25586 9.70657 7.01932 9.70609 6.78032C9.7056 6.54133 9.75232 6.3046 9.84357 6.08371C9.93481 5.86282 10.0688 5.66213 10.2378 5.49316C10.4068 5.32419 10.6076 5.19027 10.8285 5.09908C11.0494 5.00789 11.2861 4.96124 11.5251 4.9618C11.7641 4.96235 12.0006 5.01011 12.2211 5.10232C12.4416 5.19454 12.6417 5.3294 12.81 5.49915Z" fill="#6E51E0"/>
<path d="M9.67685 11.2521H11.2521C11.6811 11.2521 12.1059 11.3366 12.5022 11.5008C12.8985 11.6649 13.2587 11.9056 13.562 12.2089C13.8653 12.5122 14.106 12.8724 14.2701 13.2687C14.4343 13.665 14.5188 14.0898 14.5188 14.5188H9.43657L9.4373 15.2447H15.2447V14.5188C15.2424 13.7464 15.0193 12.9907 14.6015 12.341H16.6966C17.3828 12.3408 18.0549 12.5352 18.6352 12.9015C19.2154 13.2678 19.6799 13.7911 19.9749 14.4106C18.258 16.6762 15.4785 18.1484 12.341 18.1484C10.3367 18.1484 8.63878 17.7201 7.25952 16.9688V10.2148C8.14271 10.3412 8.97671 10.6991 9.67685 11.2521ZM5.80766 9.4373C5.98547 9.43733 6.15708 9.50261 6.28995 9.62076C6.42282 9.73891 6.50771 9.90172 6.52851 10.0783L6.53359 10.1632V16.6966C6.53359 16.8891 6.45711 17.0737 6.32097 17.2099C6.18483 17.346 6.00019 17.4225 5.80766 17.4225H4.35581C4.16328 17.4225 3.97864 17.346 3.8425 17.2099C3.70636 17.0737 3.62988 16.8891 3.62988 16.6966V10.1632C3.62988 9.9707 3.70636 9.78606 3.8425 9.64992C3.97864 9.51379 4.16328 9.4373 4.35581 9.4373H5.80766ZM12.81 5.49915L13.0669 5.75686L13.3239 5.49988C13.4922 5.33017 13.6923 5.19537 13.9128 5.10322C14.1334 5.01106 14.3699 4.96338 14.6089 4.96289C14.8479 4.9624 15.0846 5.00912 15.3055 5.10037C15.5264 5.19161 15.7271 5.32559 15.8961 5.49461C16.065 5.66363 16.1989 5.86436 16.2901 6.08527C16.3813 6.30619 16.428 6.54294 16.4274 6.78193C16.4269 7.02092 16.3791 7.25745 16.2869 7.47794C16.1947 7.69842 16.0598 7.89853 15.8901 8.06676L13.0669 10.8892L10.2431 8.0653C10.0734 7.89703 9.93857 7.69689 9.84642 7.47637C9.75426 7.25586 9.70657 7.01932 9.70609 6.78032C9.7056 6.54133 9.75232 6.3046 9.84357 6.08371C9.93481 5.86282 10.0688 5.66213 10.2378 5.49316C10.4068 5.32419 10.6076 5.19027 10.8285 5.09908C11.0494 5.00789 11.2861 4.96124 11.5251 4.9618C11.7641 4.96235 12.0006 5.01011 12.2211 5.10232C12.4416 5.19454 12.6417 5.3294 12.81 5.49915Z" fill="url(#paint0_linear_22005_1406)" fill-opacity="0.24"/>
</g>
</g>
<defs>
<linearGradient id="paint0_linear_22005_1406" x1="11.8024" y1="4.96197" x2="11.8024" y2="18.1484" gradientUnits="userSpaceOnUse">
<stop stop-color="white"/>
<stop offset="1" stop-color="white" stop-opacity="0"/>
</linearGradient>
<clipPath id="clip0_22005_1406">
<rect width="23.2297" height="23.2297" fill="white"/>
</clipPath>
<clipPath id="clip1_22005_1406">
<rect width="23.2297" height="23.2297" fill="white"/>
</clipPath>
</defs>
</svg>
