<svg width="10" height="11" viewBox="0 0 10 11" fill="none" xmlns="http://www.w3.org/2000/svg">
<path d="M7.62223 7.62223C8.05542 7.62223 8.47087 7.79432 8.77718 8.10063C9.08349 8.40693 9.25557 8.82238 9.25557 9.25557C9.25557 9.68875 9.08349 10.1042 8.77718 10.4105C8.47087 10.7168 8.05542 10.8889 7.62223 10.8889C7.18904 10.8889 6.7736 10.7168 6.46729 10.4105C6.16098 10.1042 5.9889 9.68875 5.9889 9.25557C5.9889 8.82238 6.16098 8.40693 6.46729 8.10063C6.7736 7.79432 7.18904 7.62223 7.62223 7.62223ZM2.17778 5.44445C2.75536 5.44445 3.30929 5.67389 3.7177 6.08231C4.12612 6.49072 4.35556 7.04465 4.35556 7.62223C4.35556 8.19981 4.12612 8.75374 3.7177 9.16216C3.30929 9.57057 2.75536 9.80001 2.17778 9.80001C1.6002 9.80001 1.04627 9.57057 0.637858 9.16216C0.229445 8.75374 0 8.19981 0 7.62223C0 7.04465 0.229445 6.49072 0.637858 6.08231C1.04627 5.67389 1.6002 5.44445 2.17778 5.44445ZM6.80556 0C7.59974 0 8.36139 0.31549 8.92296 0.877058C9.48453 1.43863 9.80001 2.20027 9.80001 2.99445C9.80001 3.78862 9.48453 4.55027 8.92296 5.11184C8.36139 5.67341 7.59974 5.9889 6.80556 5.9889C6.01139 5.9889 5.24974 5.67341 4.68817 5.11184C4.1266 4.55027 3.81112 3.78862 3.81112 2.99445C3.81112 2.20027 4.1266 1.43863 4.68817 0.877058C5.24974 0.31549 6.01139 0 6.80556 0Z" fill="#6E51E0"/>
</svg>
