<svg width="1046" height="208" viewBox="0 0 1046 208" fill="none" xmlns="http://www.w3.org/2000/svg">
<g clip-path="url(#clip0_22005_22)">
<g clip-path="url(#clip1_22005_22)">
<mask id="mask0_22005_22" style="mask-type:luminance" maskUnits="userSpaceOnUse" x="0" y="0" width="1046" height="208">
<path d="M1045.33 207.615H0V0H1045.33V207.615Z" fill="white"/>
</mask>
<g mask="url(#mask0_22005_22)">
<path d="M17.3235 192.556L25.4437 195.274M17.3235 192.556H41.388M17.3235 192.556L8.93326 189.748M17.3235 192.556H0.280934M25.4437 195.274L22.4892 195.274L19.5652 195.267L16.7014 195.251L13.9284 195.218L11.2744 195.165L8.76992 195.086L6.44405 194.975L4.28442 194.834L2.43185 194.639L0.744801 194.413L0.280934 194.334V192.556M25.4437 195.274H49.1213M41.388 192.556L49.1213 195.274M41.388 192.556H65.4517M41.388 192.556L39.4142 191.862L33.397 189.748M0.280934 192.556L0.280208 189.748M49.1213 195.274H72.7981M72.7981 195.274H96.4757M72.7981 195.274L65.4517 192.556M96.4757 195.274H120.153M96.4757 195.274L89.5155 192.556M65.4517 192.556H89.5155M65.4517 192.556L57.86 189.748M120.153 195.274H143.83M120.153 195.274L113.579 192.556M89.5155 192.556H113.579M89.5155 192.556L82.3237 189.748M143.83 195.274H167.508M143.83 195.274L137.643 192.556M113.579 192.556H137.643M113.579 192.556L106.787 189.748M167.508 195.274H191.185M167.508 195.274L161.707 192.556M137.643 192.556H161.707M137.643 192.556L136.065 191.862L135.271 191.514L131.251 189.748M191.185 195.274H214.862M191.185 195.274L185.771 192.556M161.707 192.556H185.771M161.707 192.556L160.228 191.862L155.714 189.748M214.862 195.274H238.54M214.862 195.274L209.836 192.556M185.771 192.556H209.836M185.771 192.556L180.178 189.748M238.54 195.274H262.217M238.54 195.274L233.899 192.556M209.836 192.556H233.899M209.836 192.556L208.553 191.862L207.908 191.514L204.642 189.748M262.217 195.274H285.894M262.217 195.274L257.963 192.556M233.899 192.556H257.963M233.899 192.556L229.105 189.748M285.894 195.274H309.571M285.894 195.274L282.028 192.556M257.963 192.556H282.028M257.963 192.556L256.879 191.862L256.332 191.514L253.568 189.748M309.571 195.274H333.249M309.571 195.274L308.712 194.603L307.41 193.586L306.091 192.556M282.028 192.556H306.091M282.028 192.556L281.535 192.21L281.041 191.862L278.032 189.748M333.249 195.274H356.926M333.249 195.274L332.485 194.603L330.156 192.556M306.091 192.556H330.156M306.091 192.556L305.204 191.862L304.756 191.514L302.496 189.748M356.926 195.274H380.603M356.926 195.274L354.22 192.556M330.156 192.556H354.22M330.156 192.556L326.959 189.748M380.603 195.274H404.281M380.603 195.274L379.742 194.265L378.87 193.244L378.577 192.901L378.283 192.556M354.22 192.556H378.283M354.22 192.556L353.875 192.21L353.529 191.862L353.182 191.514L351.423 189.748M404.281 195.274H427.958M404.281 195.274L403.563 194.265L403.322 193.926L403.08 193.586L402.347 192.556M378.283 192.556H402.347M378.283 192.556L377.692 191.862L377.393 191.514L377.094 191.163L375.886 189.748M427.958 195.274H451.635M427.958 195.274L426.411 192.556M402.347 192.556H426.411M402.347 192.556L401.854 191.862L400.855 190.459L400.603 190.104L400.349 189.748M451.635 195.274L451.492 194.94L451.349 194.603L450.623 192.901L450.475 192.556M451.635 195.274H475.312M426.411 192.556H450.475M426.411 192.556L426.214 192.21L426.017 191.862L425.818 191.514L424.814 189.748M450.475 192.556H474.539M450.475 192.556L449.277 189.748M475.312 195.274H498.99M475.312 195.274L474.539 192.556M498.99 195.274H522.667M498.99 195.274L498.847 194.265L498.604 192.556M474.539 192.556H498.604M474.539 192.556L474.441 192.21L474.342 191.862L474.243 191.514L473.741 189.748M522.667 195.274H546.344M522.667 195.274V192.556M498.604 192.556H522.667M498.604 192.556L498.204 189.748M546.344 195.274H570.022M546.344 195.274L546.488 194.265L546.731 192.556M522.667 192.556H546.731M522.667 192.556V189.748M570.022 195.274H593.699M570.022 195.274L570.796 192.556M546.731 192.556H570.796M546.731 192.556L547.131 189.748M593.699 195.274L593.842 194.94L593.985 194.603L594.712 192.901L594.859 192.556M593.699 195.274H617.376M570.796 192.556H594.859M570.796 192.556L570.894 192.21L570.992 191.862L571.092 191.514L571.392 190.459L571.594 189.748M594.859 192.556H618.924M594.859 192.556L596.058 189.748M617.376 195.274H641.054M617.376 195.274L618.727 192.901L618.924 192.556M641.054 195.274H664.731M641.054 195.274L641.772 194.265L642.013 193.926L642.498 193.244L642.742 192.901L642.988 192.556M618.924 192.556H642.988M618.924 192.556L619.12 192.21L619.318 191.862L619.517 191.514L620.522 189.748M664.731 195.274H688.409M664.731 195.274L665.592 194.265L666.464 193.244L666.757 192.901L667.051 192.556M642.988 192.556H667.051M642.988 192.556L643.48 191.862L644.479 190.459L644.985 189.748M688.409 195.274H712.086M688.409 195.274L691.115 192.556M667.051 192.556H691.115M667.051 192.556L667.643 191.862L667.941 191.514L668.24 191.163L669.448 189.748M712.086 195.274H735.763M712.086 195.274L712.849 194.603L715.179 192.556M691.115 192.556L691.46 192.21L693.912 189.748M691.115 192.556H715.179M735.763 195.274H759.443M735.763 195.274L739.24 192.556M715.179 192.556H739.24M715.179 192.556L715.573 192.21L718.375 189.748M759.443 195.274H783.115M759.443 195.274L763.305 192.556M739.24 192.556H763.305M739.24 192.556L740.133 191.862L740.576 191.514L742.841 189.748M783.115 195.274H806.795M783.115 195.274L787.369 192.556M763.305 192.556H787.369M763.305 192.556L763.798 192.21L764.292 191.862L767.305 189.748M806.795 195.274H830.475M806.795 195.274L811.434 192.556M787.369 192.556H811.434M787.369 192.556L788.458 191.862L789.003 191.514L791.768 189.748M830.475 195.274H854.147M830.475 195.274L835.498 192.556M811.434 192.556H835.498M811.434 192.556L812.029 192.21L816.232 189.748M854.147 195.274H877.827M854.147 195.274L859.563 192.556M835.498 192.556H859.563M835.498 192.556L836.783 191.862L837.429 191.514L840.696 189.748M877.827 195.274H901.507M877.827 195.274L883.627 192.556M859.563 192.556H883.627M859.563 192.556L865.16 189.748M901.507 195.274H925.179M901.507 195.274L907.692 192.556M883.627 192.556H907.692M883.627 192.556L885.108 191.862L889.623 189.748M925.179 195.274H948.859M925.179 195.274L931.756 192.556M907.692 192.556H931.756M907.692 192.556L909.267 191.862L910.065 191.514L914.087 189.748M948.859 195.274H972.539M948.859 195.274L955.821 192.556M931.756 192.556H955.821M931.756 192.556L938.544 189.748M972.539 195.274H996.211M972.539 195.274L979.885 192.556M955.821 192.556H979.885M955.821 192.556L963.014 189.748M996.211 195.274H1019.89M996.211 195.274L1003.95 192.556M979.885 192.556H1003.95M979.885 192.556L987.471 189.748M1019.89 195.274L1022.85 195.274L1025.77 195.267L1028.63 195.251L1031.4 195.218L1034.06 195.165L1036.57 195.086L1038.89 194.975L1041.05 194.834L1042.9 194.639L1044.59 194.413L1045.05 194.334V192.556M1019.89 195.274L1028.01 192.556M1003.95 192.556H1028.01M1003.95 192.556L1005.92 191.862L1011.93 189.748M1045.05 192.556H1028.01M1045.05 192.556V189.748M1028.01 192.556L1036.4 189.748M987.471 189.748L995.318 186.845M987.471 189.748H963.014M987.471 189.748H1011.93M963.014 189.748L970.448 186.845M963.014 189.748H938.544M889.623 189.748L895.815 186.845M889.623 189.748H865.16M889.623 189.748H914.087M865.16 189.748L870.938 186.845M865.16 189.748H840.696M791.768 189.748L796.313 186.845M791.768 189.748H767.305M791.768 189.748H816.232M767.305 189.748L769.867 187.945L771.435 186.845M767.305 189.748H742.841M693.912 189.748L696.803 186.845M693.912 189.748H669.448M693.912 189.748H718.375M669.448 189.748L670.987 187.945L671.927 186.845M669.448 189.748H644.985M596.058 189.748L596.364 189.031L596.827 187.945L597.14 187.214L597.297 186.845M596.058 189.748H571.594M596.058 189.748H620.522M571.594 189.748H547.131M498.204 189.748H473.741M498.204 189.748H522.667M473.741 189.748L473.433 188.671L473.019 187.214L472.914 186.845M473.741 189.748H449.277M400.349 189.748L399.84 189.031L398.284 186.845M400.349 189.748H375.886M400.349 189.748H424.814M375.886 189.748L374.347 187.945L373.408 186.845M375.886 189.748H351.423M302.496 189.748L299.25 187.214L298.778 186.845M302.496 189.748H278.032M302.496 189.748H326.959M278.032 189.748L275.467 187.945L273.902 186.845M278.032 189.748H253.568M204.642 189.748L199.272 186.845M204.642 189.748H180.178M204.642 189.748H229.105M180.178 189.748L174.396 186.845M180.178 189.748H155.714M106.787 189.748L99.7656 186.845M106.787 189.748H131.251M106.787 189.748H82.3237M82.3237 189.748L74.8895 186.845M82.3237 189.748H57.86M1045.14 167.136H1045.05M1045.05 167.136H1020.91M1045.05 167.136V163.411M1045.05 167.136V168.448M1020.91 167.136L1011.73 170.723M1020.91 167.136L1030.45 163.411M1020.91 167.136H993.235M1011.73 170.723H1038.9M1011.73 170.723L1002.88 174.181M1011.73 170.723H984.56M1030.45 163.411L1040.37 159.541M1030.45 163.411H1002.24M1030.45 163.411H1045.05M993.235 167.136L984.56 170.723M993.235 167.136L1002.24 163.411M993.235 167.136H965.555M1038.9 170.723L1029.55 174.181M1038.9 170.723H1045.05M1038.9 170.723L1045.05 168.448M1002.88 174.181L994.331 177.516M1002.88 174.181H976.197M1002.88 174.181H1029.55M984.56 170.723L976.197 174.181M984.56 170.723H957.389M1029.55 174.181L1020.54 177.516M1029.55 174.181H1045.05M1045.05 170.723V168.448M1045.05 170.723V174.181M1011.84 180.735H986.092M1011.84 180.735L1003.44 183.842M1011.84 180.735H1037.58M1011.84 180.735L1020.54 177.516M986.092 180.735L978.136 183.842M986.092 180.735L994.331 177.516M986.092 180.735H960.35M1003.44 183.842H978.136M1003.44 183.842L995.318 186.845M1003.44 183.842H1028.74M1037.58 180.735L1028.74 183.842M1037.58 180.735H1045.05M1037.58 180.735L1045.05 178.11M1020.54 177.516H994.331M1020.54 177.516H1045.05M978.136 183.842H952.83M978.136 183.842L970.448 186.845M994.331 177.516H968.132M960.35 180.735L952.83 183.842M960.35 180.735L968.132 177.516M960.35 180.735H934.602M995.318 186.845H970.448M995.318 186.845H1020.2M1028.74 183.842L1020.2 186.845M1028.74 183.842H1045.05M952.83 183.842H927.524M952.83 183.842L945.57 186.845M970.448 186.845H945.57M1045.32 110.51H1045.05M1045.05 110.51H1022.98M1045.05 110.51V116.457M1045.05 110.51V104.266M1022.98 110.51L1011.14 116.457M1022.98 110.51L1035.42 104.266M1022.98 110.51H987.246M1011.14 116.457L999.833 122.131M1011.14 116.457H976.248M1011.14 116.457H1045.05M1035.42 104.266H998.795M1035.42 104.266H1045.05M1035.42 104.266L1045.05 99.4294M987.246 110.51L976.248 116.457M987.246 110.51L998.795 104.266M987.246 110.51H951.509M999.833 122.131H1033.92M999.833 122.131L989.046 127.547M999.833 122.131H965.751M976.248 116.457L965.751 122.131M976.248 116.457H941.353M1045.05 116.457V116.913M1033.92 122.131L1022.36 127.547M1033.92 122.131H1045.05M1033.92 122.131L1045.05 116.913M1022.36 127.547L1011.31 132.724M1022.36 127.547H989.046M1022.36 127.547H1045.05M1045.05 122.131V116.913M1045.05 122.131V127.547M1011.31 132.724H978.738M1011.31 132.724L1000.74 137.676M1011.31 132.724H1043.89M978.738 132.724L968.873 137.676M978.738 132.724L989.046 127.547M978.738 132.724H946.158M1000.74 137.676H968.873M1000.74 137.676H1032.62M1000.74 137.676L990.622 142.42M1043.89 132.724L1032.62 137.676M1043.89 132.724H1045.05M1043.89 132.724L1045.05 132.213M968.873 137.676L959.428 142.42M968.873 137.676H936.997M989.046 127.547H955.733M946.158 132.724L936.997 137.676M946.158 132.724L955.733 127.547M946.158 132.724H913.586M1032.62 137.676L1021.82 142.42M1032.62 137.676H1045.05M990.622 142.42H959.428M990.622 142.42H1021.82M990.622 142.42L980.923 146.966M959.428 142.42L950.369 146.966M959.428 142.42H928.228M936.997 137.676L928.228 142.42M936.997 137.676H905.129M971.609 151.328H941.679M971.609 151.328L962.673 155.516M971.609 151.328H1001.54M971.609 151.328L980.923 146.966M941.679 151.328L933.339 155.516M941.679 151.328L950.369 146.966M941.679 151.328H911.75M962.673 155.516H933.339M962.673 155.516H992.008M962.673 155.516L954.086 159.541M1001.54 151.328H1031.47M1001.54 151.328L992.008 155.516M1001.54 151.328L1011.47 146.966M980.923 146.966H950.369M980.923 146.966H1011.47M933.339 155.516L925.324 159.541M933.339 155.516H904.004M950.369 146.966H919.822M911.75 151.328L904.004 155.516M911.75 151.328L919.822 146.966M911.75 151.328H881.82M992.008 155.516H1021.34M992.008 155.516L982.847 159.541M954.086 159.541H925.324M954.086 159.541H982.847M954.086 159.541L945.825 163.411M925.324 159.541L917.615 163.411M925.324 159.541H896.563M904.004 155.516L896.563 159.541M904.004 155.516H874.669M937.876 167.136H910.196M937.876 167.136L930.217 170.723M937.876 167.136H965.555M937.876 167.136L945.825 163.411M910.196 167.136L903.046 170.723M910.196 167.136L917.615 163.411M910.196 167.136H882.516M930.217 170.723H903.046M930.217 170.723H957.389M930.217 170.723L922.842 174.181M965.555 167.136L957.389 170.723M965.555 167.136L974.034 163.411M945.825 163.411H917.615M945.825 163.411H974.034M903.046 170.723L896.164 174.181M903.046 170.723H875.881M917.615 163.411H889.406M882.516 167.136L875.881 170.723M882.516 167.136L889.406 163.411M882.516 167.136H854.837M957.389 170.723L949.52 174.181M922.842 174.181H896.164M922.842 174.181H949.52M922.842 174.181L915.72 177.516M896.164 174.181L889.522 177.516M896.164 174.181H869.486M875.881 170.723L869.486 174.181M875.881 170.723H848.71M908.853 180.735H883.112M908.853 180.735L902.225 183.842M908.853 180.735H934.602M908.853 180.735L915.72 177.516M883.112 180.735L876.92 183.842M883.112 180.735L889.522 177.516M883.112 180.735H857.363M902.225 183.842H876.92M902.225 183.842L895.815 186.845M902.225 183.842H927.524M934.602 180.735L927.524 183.842M934.602 180.735L941.926 177.516M915.72 177.516H889.522M915.72 177.516H941.926M876.92 183.842H851.614M876.92 183.842L870.938 186.845M889.522 177.516H863.316M857.363 180.735L851.614 183.842M857.363 180.735L863.316 177.516M857.363 180.735H831.614M895.815 186.845H870.938M895.815 186.845H920.693M927.524 183.842L920.693 186.845M851.614 183.842H826.315M851.614 183.842L846.06 186.845M870.938 186.845H846.06M1026.74 7.39062L1010.07 19.1107M1026.74 7.39062L1044.6 -5.15993M1026.74 7.39062H976.335M1026.74 7.39062H1045.05M1010.07 19.1107L994.462 30.0795M1010.07 19.1107H961.33M1010.07 19.1107H1045.05M1044.6 -5.15993H992.407L976.335 7.38989M1044.6 -5.15993H1045.05M1044.6 -5.15993L1045.05 -5.47861M976.335 7.39062L961.33 19.1107M976.335 7.39062H925.927M961.33 19.1107L947.284 30.0795H900.106H852.928M961.33 19.1107H912.592M1045.05 19.1107V7.38989V-5.1592V-5.47861M1045.05 19.1107V27.901M1010.41 50.0388H966.071M1010.41 50.0388L996.16 59.1434M1010.41 50.0388L1025.54 40.3688M1010.41 50.0388H1045.05M966.071 50.0388L953.113 59.1434M966.071 50.0388L979.827 40.3688M966.071 50.0388H921.731M996.16 59.1434H953.113M996.16 59.1434H1039.21M996.16 59.1434L982.723 67.7311M1025.54 40.3688H979.827M1025.54 40.3688L1041.64 30.0795M1025.54 40.3688H1045.05M1045.05 50.0388V40.3688M1045.05 50.0388V55.7177V59.1434M953.113 59.1434L940.896 67.7311M953.113 59.1434H910.073M979.827 40.3688L994.462 30.0802M979.827 40.3688H934.108M921.731 50.0388L910.073 59.1434M921.731 50.0388L934.108 40.3688M921.731 50.0388H877.391M1039.21 59.1434L1024.54 67.7311M1039.21 59.1434H1045.05M1039.21 59.1434L1045.05 55.717M982.723 67.7311H940.896M982.723 67.7311H1024.54M982.723 67.7311L970.02 75.8448M940.896 67.7311L929.353 75.8448M940.896 67.7311H899.075M910.073 59.1434L899.075 67.7311M910.073 59.1434H867.025M958.006 83.5229H918.428M958.006 83.5229L946.616 90.7989M958.006 83.5229H997.583M958.006 83.5229L970.02 75.8448M918.428 83.5229L908.076 90.7989M918.428 83.5229L929.353 75.8448M918.428 83.5229H878.851M946.616 90.7989H908.076M946.616 90.7989H985.163M946.616 90.7989L935.814 97.7039M997.583 83.5229H1037.16M997.583 83.5229L985.163 90.7989M997.583 83.5229L1010.69 75.8448M970.02 75.8448H929.353M970.02 75.8448H1010.69M908.076 90.7989L898.255 97.7039M908.076 90.7989H869.537M929.353 75.8448H888.687M878.851 83.5229L869.537 90.7989M878.851 83.5229L888.687 75.8448M878.851 83.5229H839.28M985.163 90.7989H1023.7M985.163 90.7989L973.373 97.7039M935.814 97.7039H898.255M935.814 97.7039H973.373M935.814 97.7039L925.542 104.266M898.255 97.7039L888.919 104.266M898.255 97.7039H860.695M869.537 90.7989L860.695 97.7039M869.537 90.7989H830.997M915.771 110.51H880.034M915.771 110.51L906.465 116.457M915.771 110.51H951.509M915.771 110.51L925.542 104.266M880.034 110.51L871.577 116.457M880.034 110.51L888.919 104.266M880.034 110.51H844.296M906.465 116.457H871.577M906.465 116.457H941.353M906.465 116.457L897.587 122.131M951.509 110.51L941.353 116.457M951.509 110.51L962.165 104.266M925.542 104.266H888.919M925.542 104.266H962.165M871.577 116.457L863.504 122.131M871.577 116.457H836.681M888.919 104.266H852.296M844.296 110.51L836.681 116.457M844.296 110.51L852.296 104.266M844.296 110.51H808.559M941.353 116.457L931.669 122.131M897.587 122.131H863.504M897.587 122.131H931.669M897.587 122.131L889.108 127.547M863.504 122.131L855.795 127.547M863.504 122.131H829.422M836.681 116.457L829.422 122.131M836.681 116.457H801.793M881.007 132.724H848.434M881.007 132.724L873.254 137.676M881.007 132.724H913.586M881.007 132.724L889.108 127.547M848.434 132.724L841.386 137.676M848.434 132.724L855.795 127.547M848.434 132.724H815.855M873.254 137.676H841.386M873.254 137.676H905.129M873.254 137.676L865.835 142.42M913.586 132.724L905.129 137.676M913.586 132.724L922.421 127.547M889.108 127.547H855.795M889.108 127.547H922.421M841.386 137.676L834.634 142.42M841.386 137.676H809.51M855.795 127.547H822.482M815.855 132.724L809.51 137.676M815.855 132.724L822.482 127.547M815.855 132.724H783.275M905.129 137.676L897.028 142.42M865.835 142.42H834.634M865.835 142.42H897.028M865.835 142.42L858.721 146.966M834.634 142.42L828.166 146.966M834.634 142.42H803.441M809.51 137.676L803.441 142.42M809.51 137.676H777.642M851.89 151.328H821.967M851.89 151.328L845.342 155.516M851.89 151.328H881.82M851.89 151.328L858.721 146.966M821.967 151.328L821.205 151.86L816.007 155.516M821.967 151.328L828.166 146.966M821.967 151.328H792.037M845.342 155.516H816.007M845.342 155.516H874.669M845.342 155.516L839.041 159.541M881.82 151.328L874.669 155.516M881.82 151.328L889.268 146.966M858.721 146.966H828.166M858.721 146.966H889.268M816.007 155.516L810.279 159.541M816.007 155.516H786.672M828.166 146.966H797.619M792.037 151.328L786.672 155.516M792.037 151.328L797.619 146.966M792.037 151.328H762.107M874.669 155.516L867.802 159.541M839.041 159.541H810.279M839.041 159.541H867.802M839.041 159.541L832.986 163.411M810.279 159.541L805.452 162.935L804.77 163.411M810.279 159.541H781.518M786.672 155.516L781.518 159.541M786.672 155.516H757.338M827.15 167.136H799.471M827.15 167.136L821.539 170.723M827.15 167.136H854.837M827.15 167.136L832.986 163.411M799.471 167.136L794.367 170.723M799.471 167.136L801.438 165.755L804.77 163.411M799.471 167.136H771.791M821.539 170.723H794.367M821.539 170.723H848.71M821.539 170.723L816.13 174.181M854.837 167.136L849.465 170.283L848.71 170.723M854.837 167.136L861.196 163.411M832.986 163.411H804.77M832.986 163.411H861.196M794.367 170.723L789.453 174.181M794.367 170.723H767.196M804.77 163.411H776.56M771.791 167.136L767.196 170.723M771.791 167.136L772.967 166.218L776.56 163.411M771.791 167.136H744.111M848.71 170.723L842.808 174.181M816.13 174.181H789.453M816.13 174.181H842.808M816.13 174.181L810.911 177.516M789.453 174.181L784.705 177.516M789.453 174.181H762.768M767.196 170.723L762.768 174.181M767.196 170.723H740.032M805.873 180.735H780.125M805.873 180.735L801.009 183.842M805.873 180.735H831.614M805.873 180.735L810.911 177.516M780.125 180.735L776.792 183.075L776.248 183.46L775.704 183.842M780.125 180.735L784.705 177.516M780.125 180.735H754.383M801.009 183.842H775.704M801.009 183.842L796.313 186.845M801.009 183.842H826.315M831.614 180.735L826.315 183.842M831.614 180.735L837.11 177.516M810.911 177.516H784.705M810.911 177.516H837.11M775.704 183.842H750.398M775.704 183.842L771.435 186.845M784.705 177.516H758.499M754.383 180.735L750.398 183.842M754.383 180.735L758.499 177.516M754.383 180.735H728.635M796.313 186.845H771.435M796.313 186.845H821.183M826.315 183.842L821.183 186.845M750.398 183.842H725.097M750.398 183.842L746.558 186.845M771.435 186.845H746.558M1008.48 -126.116H939.081M1008.48 -126.116L986.629 -104.173M1008.48 -126.116L1032.49 -150.229M1008.48 -126.116L1045.05 -126.117M939.081 -126.116L920.344 -104.173M939.081 -126.116L959.661 -150.229M939.081 -126.116H869.675M986.629 -104.173H920.344M986.629 -104.173L966.659 -84.119M986.629 -104.173H1045.05M1032.49 -150.229H959.661M1032.49 -150.229L1045.05 -162.84M1032.49 -150.229H1045.05M1045.05 -126.117V-150.229M1045.05 -126.117V-104.173M920.344 -104.173L903.227 -84.119M920.344 -104.173H854.067M959.661 -150.229L982.382 -176.85M959.661 -150.229H886.829M869.675 -126.116L854.067 -104.173M869.675 -126.116L886.829 -150.229M869.675 -126.116H800.276M966.659 -84.119H903.227M966.659 -84.119H1030.08M966.659 -84.119L948.329 -65.7204M1045.05 -104.173V-97.2728M903.227 -84.119L887.525 -65.7204M903.227 -84.119H839.803M854.067 -104.173L839.803 -84.119M854.067 -104.173H787.79M931.458 -48.7801H873.065M931.458 -48.7801L915.88 -33.1313M931.458 -48.7801H989.859M931.458 -48.7801L948.329 -65.7204M873.065 -48.7801L859.701 -33.1313M873.065 -48.7801L887.525 -65.7204M873.065 -48.7801H814.664M915.88 -33.1313H859.701M915.88 -33.1313H972.052M915.88 -33.1313L901.434 -18.6324M989.859 -48.7801L972.052 -33.1313M989.859 -48.7801L1009.14 -65.7204M989.859 -48.7801H1045.05M948.329 -65.7204H887.525M859.701 -33.1313L847.324 -18.6324M859.701 -33.1313H803.528M887.525 -65.7204H826.714M814.664 -48.7801L803.528 -33.1313M814.664 -48.7801H756.263M972.052 -33.1313H1028.22M972.052 -33.1313L955.545 -18.6324M901.434 -18.6324H847.324M901.434 -18.6324H955.545M901.434 -18.6324L888.019 -5.1592H835.825H783.631M847.324 -18.6324L835.825 -5.15993L825.11 7.39062M847.324 -18.6324H793.22M803.528 -33.1313L793.22 -18.6324M803.528 -33.1313H747.356M825.11 7.38989H875.519L863.846 19.1107M863.846 19.1107H815.107M863.846 19.1107H912.592M863.846 19.1107L852.928 30.0795M925.927 7.39062H875.519L888.019 -5.15993H940.213L925.927 7.39062ZM925.927 7.39062L912.592 19.1107M825.11 7.39062L815.107 19.1107M825.11 7.39062H774.709M815.107 19.1107L805.742 30.0795M815.107 19.1107H766.368M774.709 7.39062L766.368 19.1107M774.709 7.39062H724.298M912.592 19.1107L900.106 30.0802L888.397 40.3688M852.928 30.0795L842.678 40.3688M766.368 19.1107L758.564 30.0795H711.386H664.206M766.368 19.1107H717.628M833.052 50.0388H788.705M833.052 50.0388L823.978 59.1434M833.052 50.0388H877.391M833.052 50.0388L842.678 40.3688M788.705 50.0388L780.938 59.1434M788.705 50.0388L796.959 40.3688M788.705 50.0388H744.365M823.978 59.1434H780.938M823.978 59.1434H867.025M823.978 59.1434L815.426 67.7311M877.391 50.0388L867.025 59.1434M877.391 50.0388L888.397 40.3688M842.678 40.3688H796.959M842.678 40.3688H888.397M780.938 59.1434L773.606 67.7311M780.938 59.1434H737.89M796.959 40.3688L805.742 30.0802M796.959 40.3688H751.247M744.365 50.0388L737.89 59.1434M744.365 50.0388L751.247 40.3688M744.365 50.0388H700.028M867.025 59.1434L857.254 67.7311M815.426 67.7311H773.606M815.426 67.7311H857.254M815.426 67.7311L807.347 75.8448M773.606 67.7311L766.68 75.8448M773.606 67.7311H731.785M737.89 59.1434L731.785 67.7311M737.89 59.1434H694.846M799.703 83.5229H760.125M799.703 83.5229L792.458 90.7989M799.703 83.5229H839.28M799.703 83.5229L807.347 75.8448M760.125 83.5229L753.911 90.7989M760.125 83.5229L766.68 75.8448M760.125 83.5229H720.548M792.458 90.7989H753.911M792.458 90.7989H830.997M792.458 90.7989L785.576 97.7039M839.28 83.5229L830.997 90.7989M839.28 83.5229L848.013 75.8448M807.347 75.8448H766.68M807.347 75.8448H848.013M753.911 90.7989L748.017 97.7039M753.911 90.7989H715.373M766.68 75.8448H726.014M720.548 83.5229L715.373 90.7989M720.548 83.5229L726.014 75.8448M720.548 83.5229H680.972M830.997 90.7989L823.136 97.7039M785.576 97.7039H748.017M785.576 97.7039H823.136M785.576 97.7039L779.043 104.266M748.017 97.7039L742.42 104.266M748.017 97.7039H710.461M715.373 90.7989L710.461 97.7039M715.373 90.7989H676.832M772.822 110.51H737.092M772.822 110.51L766.898 116.457M772.822 110.51H808.559M772.822 110.51L779.043 104.266M737.092 110.51L732.01 116.457M737.092 110.51L742.42 104.266M737.092 110.51H701.351M766.898 116.457H732.01M766.898 116.457H801.793M766.898 116.457L761.25 122.131M808.559 110.51L801.793 116.457M808.559 110.51L815.666 104.266M779.043 104.266H742.42M779.043 104.266H815.666M732.01 116.457L727.168 122.131M732.01 116.457H697.121M742.42 104.266H705.793M701.351 110.51L697.121 116.457M701.351 110.51L705.793 104.266M701.351 110.51H665.615M801.793 116.457L795.333 122.131M761.25 122.131H727.168M761.25 122.131H795.333M761.25 122.131L755.857 127.547M727.168 122.131L722.545 127.547M727.168 122.131H693.085M697.121 116.457L694.575 120.034L693.085 122.131M697.121 116.457H662.23M750.703 132.724H718.125M750.703 132.724L745.766 137.676M750.703 132.724H783.275M750.703 132.724L755.857 127.547M718.125 132.724L713.898 137.676M718.125 132.724L722.545 127.547M718.125 132.724H685.549M745.766 137.676H713.898M745.766 137.676H777.642M745.766 137.676L741.048 142.42M783.275 132.724L777.642 137.676M783.275 132.724L789.17 127.547M755.857 127.547H722.545M755.857 127.547H789.17M713.898 137.676L709.849 142.42M713.898 137.676H682.026M722.545 127.547H689.232M685.549 132.724L682.026 137.676M685.549 132.724L686.455 131.452L689.232 127.547M685.549 132.724H652.973M777.642 137.676L772.241 142.42M741.048 142.42H709.849M741.048 142.42H772.241M741.048 142.42L736.518 146.966M709.849 142.42L707.888 144.717L705.968 146.966M709.849 142.42H678.652M682.026 137.676L678.652 142.42M682.026 137.676H650.155M732.177 151.328H702.244M732.177 151.328L728.003 155.516M732.177 151.328H762.107M732.177 151.328L736.518 146.966M702.244 151.328L702.702 150.792L705.968 146.966M702.244 151.328L698.67 155.516M702.244 151.328H672.315M728.003 155.516H698.67M728.003 155.516H757.338M728.003 155.516L723.995 159.541M762.107 151.328L757.338 155.516M762.107 151.328L767.065 146.966M736.518 146.966H705.968M736.518 146.966H767.065M705.968 146.966H675.418M698.67 155.516L695.234 159.541M698.67 155.516H669.336M672.315 151.328L669.336 155.516M672.315 151.328L675.418 146.966M672.315 151.328H642.386M757.338 155.516L752.757 159.541M723.995 159.541H695.234M723.995 159.541H752.757M723.995 159.541L720.14 163.411M695.234 159.541L691.93 163.411M695.234 159.541H666.473M669.336 155.516L666.473 159.541M669.336 155.516H640.002M716.431 167.136H688.751M716.431 167.136L712.858 170.723M716.431 167.136H744.111M716.431 167.136L720.14 163.411M688.751 167.136L685.688 170.723M688.751 167.136L689.929 165.755L690.724 164.825L691.93 163.411M688.751 167.136H661.07M712.858 170.723H685.688M712.858 170.723H740.032M712.858 170.723L709.415 174.181M744.111 167.136L740.032 170.723M744.111 167.136L748.351 163.411M720.14 163.411H691.93M720.14 163.411H748.351M685.688 170.723L684.569 172.035L683.83 172.9L682.736 174.181M685.688 170.723H658.518M691.93 163.411H663.72M661.07 167.136L660.423 168.045L658.518 170.723M661.07 167.136L661.396 166.678L661.723 166.218L662.714 164.825L663.049 164.356L663.72 163.411M661.07 167.136H633.39M740.032 170.723L736.09 174.181M709.415 174.181H682.736M709.415 174.181H736.09M709.415 174.181L706.913 176.694L706.093 177.516M682.736 174.181L681.3 175.864L679.89 177.516M682.736 174.181H656.058M658.518 170.723L658.205 171.163L657.894 171.6L656.665 173.329L656.058 174.181M658.518 170.723H631.347M702.888 180.735H677.143M702.888 180.735L700.557 183.075L699.793 183.842M702.888 180.735H728.635M702.888 180.735L705.687 177.925L706.093 177.516M677.143 180.735L675.144 183.075L674.816 183.46L674.49 183.842M677.143 180.735L678.504 179.14L679.89 177.516M677.143 180.735H651.397M699.793 183.842H674.49M699.793 183.842L696.803 186.845M699.793 183.842H725.097M728.635 180.735L725.097 183.842M728.635 180.735L732.3 177.516M706.093 177.516H679.89M706.093 177.516H732.3M674.49 183.842H649.186M674.49 183.842L671.927 186.845M679.89 177.516H653.686M651.397 180.735L649.186 183.842M651.397 180.735L653.686 177.516M651.397 180.735H625.651M696.803 186.845H671.927M696.803 186.845H721.679M725.097 183.842L722.523 186.104L721.679 186.845M649.186 183.842H623.883M649.186 183.842L647.578 186.104L647.05 186.845M671.927 186.845H647.05M730.87 -126.116H661.471M730.87 -126.116L721.507 -104.173M730.87 -126.116H800.276M730.87 -126.116L741.164 -150.229M661.471 -126.116L655.227 -104.173M661.471 -126.116L668.332 -150.229M661.471 -126.116H592.069L588.947 -104.173M721.507 -104.173H655.227M721.507 -104.173H787.79M721.507 -104.173L712.948 -84.119M800.276 -126.116L787.79 -104.173M800.276 -126.116L813.996 -150.228M741.164 -150.229H668.332M741.164 -150.229L752.525 -176.849M741.164 -150.229L813.996 -150.228M655.227 -104.173L649.521 -84.119M655.227 -104.173H588.947M668.332 -150.229L675.907 -176.849M668.332 -150.229L595.5 -150.228M787.79 -104.173L776.371 -84.119M712.948 -84.119H649.521M712.948 -84.119H776.371M712.948 -84.119L705.096 -65.7204M649.521 -84.119L644.285 -65.7204M649.521 -84.119H586.094M588.947 -104.173L586.094 -84.119M588.947 -104.173H522.667M697.865 -48.7801H639.466M697.865 -48.7801L691.185 -33.1313M697.865 -48.7801H756.263M697.865 -48.7801L705.096 -65.7204M639.466 -48.7801L635.013 -33.1313M639.466 -48.7801L644.285 -65.7204M639.466 -48.7801H581.066M691.185 -33.1313H635.013M691.185 -33.1313H747.356M691.185 -33.1313L684.997 -18.6324M756.263 -48.7801L747.356 -33.1313M756.263 -48.7801L765.904 -65.7204M705.096 -65.7204H644.285M635.013 -33.1313L630.887 -18.6324M635.013 -33.1313H578.84M644.285 -65.7204H583.477M581.066 -48.7801L578.84 -33.1313M581.066 -48.7801H522.667M747.356 -33.1313L739.11 -18.6324M684.997 -18.6324H630.887M684.997 -18.6324H739.11M684.997 -18.6324L679.247 -5.1592H627.053H574.861M630.887 -18.6324L627.053 -5.15993L623.483 7.39062M630.887 -18.6324H576.777M578.84 -33.1313L576.777 -18.6324M578.84 -33.1313H522.667M623.483 7.38989H673.89L668.888 19.1107M668.888 19.1107H620.148M668.888 19.1107H717.628M668.888 19.1107L664.206 30.0795M724.298 7.39062H673.89L679.247 -5.15993H731.444L724.298 7.39062ZM724.298 7.39062L717.628 19.1107M623.483 7.39062L620.148 19.1107M623.483 7.39062H573.075M620.148 19.1107L617.026 30.0795M620.148 19.1107H571.408M573.075 7.39062L571.408 19.1107M573.075 7.39062H522.667H472.26L470.474 -5.15993H522.667V7.38989V19.1107M717.628 19.1107L711.386 30.0802L705.53 40.3688M664.206 30.0795L659.814 40.3688M571.408 19.1107L569.847 30.0795H522.667H475.488M571.408 19.1107H522.667M655.688 50.0388H611.348M655.688 50.0388L651.802 59.1434M655.688 50.0388H700.028M655.688 50.0388L659.814 40.3688M611.348 50.0388L608.757 59.1434M611.348 50.0388L614.099 40.3688M611.348 50.0388H567.008M651.802 59.1434H608.757M651.802 59.1434H694.846M651.802 59.1434L648.137 67.7311M700.028 50.0388L694.846 59.1434M700.028 50.0388L705.53 40.3688M659.814 40.3688H614.099M659.814 40.3688H705.53M608.757 59.1434L606.313 67.7311M608.757 59.1434H565.712M614.099 40.3688L617.026 30.0802M614.099 40.3688H568.383M567.008 50.0388L565.712 59.1434M567.008 50.0388L568.383 40.3688M567.008 50.0388H522.667M694.846 59.1434L689.959 67.7311M648.137 67.7311H606.313M648.137 67.7311H689.959M648.137 67.7311L644.673 75.8448M606.313 67.7311L604.005 75.8448M606.313 67.7311H564.49M565.712 59.1434L564.49 67.7311M565.712 59.1434L522.667 59.1427M641.396 83.5229H601.819M641.396 83.5229L638.291 90.7989M641.396 83.5229H680.972M641.396 83.5229L644.673 75.8448M601.819 83.5229L599.75 90.7989M601.819 83.5229L604.005 75.8448M601.819 83.5229H562.243M638.291 90.7989H599.75M638.291 90.7989H676.832M638.291 90.7989L635.343 97.7039M680.972 83.5229L676.832 90.7989M680.972 83.5229L685.342 75.8448M644.673 75.8448H604.005M644.673 75.8448H685.342M599.75 90.7989L597.785 97.7039M599.75 90.7989H561.208M604.005 75.8448H563.336M562.243 83.5229L561.208 90.7989M562.243 83.5229L563.336 75.8448M562.243 83.5229H522.667M676.832 90.7989L672.902 97.7039M635.343 97.7039H597.785M635.343 97.7039H672.902M635.343 97.7039L632.542 104.266M597.785 97.7039L595.918 104.266M597.785 97.7039H560.226M561.208 90.7989L560.226 97.7039M561.208 90.7989L522.667 90.7982M629.878 110.51H594.141M629.878 110.51L627.339 116.457M629.878 110.51H665.615M629.878 110.51L632.542 104.266M594.141 110.51L592.448 116.457M594.141 110.51L595.918 104.266M594.141 110.51H558.404M627.339 116.457H592.448M627.339 116.457H662.23M627.339 116.457L626.418 118.616L624.918 122.131M665.615 110.51L662.23 116.457M665.615 110.51L669.168 104.266M632.542 104.266H595.918M632.542 104.266H669.168M592.448 116.457L590.834 122.131M592.448 116.457H557.558M595.918 104.266H559.292M558.404 110.51L557.558 116.457M558.404 110.51L559.292 104.266M558.404 110.51H522.667M662.23 116.457L659.001 122.131M624.918 122.131H590.834M624.918 122.131H659.001M624.918 122.131L622.606 127.547M590.834 122.131L589.294 127.547M590.834 122.131H556.751M557.558 116.457L556.751 122.131M557.558 116.457L522.667 116.457M620.397 132.724H587.82M620.397 132.724L618.283 137.676M620.397 132.724H652.973M620.397 132.724L622.044 128.863L622.606 127.547M587.82 132.724L587.284 134.606L586.411 137.676M587.82 132.724L589.294 127.547M587.82 132.724H555.243M618.283 137.676L618.025 138.28L616.258 142.42M618.283 137.676H586.411M618.283 137.676H650.155M652.973 132.724L650.155 137.676M652.973 132.724L653.334 132.089L654.43 130.164L655.919 127.547M622.606 127.547H589.294M622.606 127.547H655.919M586.411 137.676L585.898 139.479L585.729 140.073L585.56 140.664L585.061 142.42M586.411 137.676H554.539M589.294 127.547H555.98M555.243 132.724L554.539 137.676M555.243 132.724L555.98 127.547M555.243 132.724H522.667M616.258 142.42H585.061M616.258 142.42H647.455M616.258 142.42L614.318 146.966M650.155 137.676L647.455 142.42M585.061 142.42L584.569 144.147L584.408 144.717L583.767 146.966M585.061 142.42H553.864M554.539 137.676L554.453 138.28L553.864 142.42M554.539 137.676H522.667M612.456 151.328H582.526M612.456 151.328L611.553 153.443L611.331 153.965L611.109 154.484L610.888 155.001L610.669 155.516M612.456 151.328H642.386M612.456 151.328L614.318 146.966M582.526 151.328L581.629 154.484L581.481 155.001L581.335 155.516M582.526 151.328L583.767 146.966M582.526 151.328H552.597M610.669 155.516H581.335M610.669 155.516H640.002M610.669 155.516L609.587 158.049L609.374 158.55L608.951 159.541M642.386 151.328L640.589 154.484L640.002 155.516M642.386 151.328L643.305 149.713L644.238 148.074L644.868 146.966M614.318 146.966H583.767M614.318 146.966H644.868M581.335 155.516L580.614 158.049L580.471 158.55L580.331 159.046L580.19 159.541M581.335 155.516H552.001M583.767 146.966H553.218M552.597 151.328L552.001 155.516M552.597 151.328L552.827 149.713L553.06 148.074L553.218 146.966M552.597 151.328H522.667M640.002 155.516L637.712 159.541M608.951 159.541H580.19M608.951 159.541H637.712M608.951 159.541L607.299 163.411M580.19 159.541L579.089 163.411M580.19 159.541H551.429M552.001 155.516L551.429 159.541M552.001 155.516L522.667 155.515M605.709 167.136H578.028M605.709 167.136L604.177 170.723M605.709 167.136H633.39M605.709 167.136L606.101 166.218L606.696 164.825L607.299 163.411M578.028 167.136L578.159 166.678L578.953 163.884L579.089 163.411M578.028 167.136L577.007 170.723M578.028 167.136H550.348M604.177 170.723H577.007M604.177 170.723H631.347M604.177 170.723L602.701 174.181M633.39 167.136L631.599 170.283L631.347 170.723M633.39 167.136L633.65 166.678L633.912 166.218L634.175 165.755L635.509 163.411M607.299 163.411H579.089M607.299 163.411H635.509M579.089 163.411H550.878M577.007 170.723L576.634 172.035L576.511 172.469L576.388 172.9L576.024 174.181M577.007 170.723H549.837M550.348 167.136L549.963 169.84L549.9 170.284L549.837 170.724M550.348 167.136L550.878 163.411M550.348 167.136H522.667M631.347 170.723L629.38 174.181M599.904 180.735H574.159M599.904 180.735L598.906 183.075L598.579 183.842M599.904 180.735H625.651M599.904 180.735L600.415 179.541L600.585 179.14L600.758 178.736L601.279 177.516M574.159 180.735L574.047 181.129L573.824 181.912L573.603 182.69L573.275 183.842M574.159 180.735L574.613 179.14L574.727 178.736L574.959 177.925L575.075 177.516M574.159 180.735H548.413M598.579 183.842H573.275M598.579 183.842L597.455 186.475L597.297 186.845M598.579 183.842H623.883M625.651 180.735L623.883 183.842M625.651 180.735L627.482 177.516M601.279 177.516H575.075M601.279 177.516L601.454 177.106L601.63 176.695L601.806 176.28L601.984 175.864L602.162 175.446L602.341 175.027L602.701 174.182M601.279 177.516H627.482M573.275 183.842L573.166 184.223L573.058 184.602L572.951 184.98L572.844 185.357L572.525 186.475L572.42 186.845M573.275 183.842H547.971M575.075 177.516L575.192 177.106L575.309 176.695L575.427 176.28L575.545 175.864L575.783 175.027L575.903 174.606L576.024 174.182M575.075 177.516L548.871 177.517M597.297 186.845H622.174M623.883 183.842L623.02 185.357L622.384 186.475L622.174 186.845M453.266 -126.116H383.864M453.266 -126.116L456.387 -104.173M453.266 -126.116H522.667M453.266 -126.116L449.835 -150.229M383.864 -126.116L390.107 -104.173M383.864 -126.116L377.003 -150.229M383.864 -126.116H314.461L323.827 -104.173M456.387 -104.173H390.107M456.387 -104.173H522.667M456.387 -104.173L459.24 -84.119M449.835 -150.229H377.003M449.835 -150.229L446.047 -176.849M449.835 -150.229L522.667 -150.228M390.107 -104.173L395.814 -84.119M390.107 -104.173H323.827M377.003 -150.229L369.428 -176.849M377.003 -150.229L304.17 -150.228M522.667 -104.173V-84.119M522.667 -104.173V-126.115M459.24 -84.119H395.814M459.24 -84.119H522.667M459.24 -84.119L461.858 -65.7204M395.814 -84.119L401.048 -65.7204M395.814 -84.119H332.387M323.827 -104.173L332.387 -84.119M323.827 -104.173H257.547M464.269 -48.7801H405.869M464.269 -48.7801L466.494 -33.1313M464.269 -48.7801H522.667M464.269 -48.7801L461.858 -65.7204M405.869 -48.7801L410.321 -33.1313M405.869 -48.7801L401.048 -65.7204M405.869 -48.7801H347.47M466.494 -33.1313H410.321M466.494 -33.1313H522.667M466.494 -33.1313L468.557 -18.6324M522.667 -48.7801V-33.1313M522.667 -48.7801V-65.7204M461.858 -65.7204H401.048M410.321 -33.1313L414.448 -18.6324M410.321 -33.1313H354.149M401.048 -65.7204H340.239M347.47 -48.7801L354.149 -33.1313M347.47 -48.7801H289.071M522.667 -33.1313V-18.6331M468.557 -18.6324H414.448M468.557 -18.6324H522.667M468.557 -18.6324L470.474 -5.1592H418.281H366.088M414.448 -18.6324L418.281 -5.15993L421.852 7.39062M414.448 -18.6324H360.338M354.149 -33.1313L360.338 -18.6324M354.149 -33.1313H297.976M421.852 7.38989H472.26L473.927 19.1107M473.927 19.1107H425.187M473.927 19.1107H522.667M473.927 19.1107L475.488 30.0795M421.852 7.39062L425.187 19.1107M421.852 7.39062H371.444M425.187 19.1107L428.308 30.0795M425.187 19.1107H376.447M371.444 7.39062L376.447 19.1107M371.444 7.39062H321.037M522.667 19.1107V30.0802V40.3688M475.488 30.0795L476.951 40.3688M376.447 19.1107L381.128 30.0795H333.949M376.447 19.1107H327.707M478.327 50.0381H433.987M478.327 50.0381L479.623 59.1427M478.327 50.0381H522.667M478.327 50.0381L476.951 40.368M433.987 50.0381L436.577 59.1427M433.987 50.0381L431.235 40.368M433.987 50.0381H389.647M479.623 59.1427H436.577M479.623 59.1427H522.667M479.623 59.1427L480.845 67.7304M522.667 50.0381V59.1427M522.667 50.0381V40.3688M436.577 59.1427L439.022 67.7304M436.577 59.1427H393.533M522.667 59.1427V67.7311M393.533 59.1427L397.198 67.7311M393.533 59.1427L389.647 50.0388M393.533 59.1427L350.488 59.1434M483.091 83.5222H443.515M483.091 83.5222L484.126 90.7982M483.091 83.5222H522.667M483.091 83.5222L481.999 75.8441M443.515 83.5222L445.585 90.7982M443.515 83.5222L441.33 75.8441M443.515 83.5222H403.938M484.126 90.7982H445.585M484.126 90.7982H522.667M484.126 90.7982L485.109 97.7032M445.585 90.7982L447.55 97.7032M445.585 90.7982H407.044M522.667 90.7982V97.7039M522.667 90.7982V83.5229M407.044 90.7982L409.991 97.7039M407.044 90.7982L403.938 83.5229M407.044 90.7982L368.503 90.7989M486.931 110.509H451.193M486.931 110.509L487.777 116.457M486.931 110.509H522.667M486.931 110.509L486.042 104.266M451.193 110.509L452.886 116.457M451.193 110.509L449.417 104.266M451.193 110.509H415.457M487.777 116.457H452.886M487.777 116.457H522.667M487.777 116.457L488.584 122.13M486.042 104.266H449.417M486.042 104.266L485.928 103.463L485.109 97.7039M486.042 104.266L522.667 104.266M452.886 116.457L454.501 122.13M452.886 116.457H417.995M449.417 104.266L447.55 97.7039M449.417 104.266L412.792 104.266M522.667 116.457V122.131M522.667 116.457V110.51M488.584 122.13H454.501M488.584 122.13L522.667 122.131M488.584 122.13L489.355 127.546M454.501 122.13L456.041 127.546M454.501 122.13L420.417 122.131M417.995 116.457L418.612 117.901L420.417 122.131M417.995 116.457L415.457 110.51M417.995 116.457L383.105 116.457M490.091 132.723H457.515M490.091 132.723L490.795 137.676M490.091 132.723H522.667M490.091 132.723L489.355 127.546M457.515 132.723L458.751 137.068L458.924 137.676M457.515 132.723L456.041 127.546M457.515 132.723H424.938M490.795 137.676L490.881 138.28L491.471 142.419M490.795 137.676H458.924M490.795 137.676H522.667M489.355 127.546H456.041M489.355 127.546L522.667 127.547M458.924 137.676L459.437 139.478L459.605 140.073L459.774 140.664L460.273 142.419M458.924 137.676H427.052M456.041 127.546L422.728 127.547M492.738 151.327H462.808M492.738 151.327L493.333 155.515M492.738 151.327H522.667M492.738 151.327L492.508 149.712L492.43 149.168L492.353 148.622L492.197 147.521L492.117 146.965M462.808 151.327L463.706 154.484L464 155.515M462.808 151.327L461.567 146.965M462.808 151.327H432.878M493.333 155.515H464M493.333 155.515H522.667M493.333 155.515L493.906 159.54M464 155.515L464.72 158.049L464.863 158.549L465.004 159.045L465.145 159.54M464 155.515H434.666M522.667 155.515V159.541M522.667 155.515V151.328M493.906 159.54H465.145M493.906 159.54L522.667 159.541M493.906 159.54L494.457 163.411M465.145 159.54L466.246 163.411M465.145 159.54L436.384 159.541M434.666 155.515L434.447 155.001L434.225 154.484L434.004 153.965L432.878 151.328M434.666 155.515L435.534 157.548L435.748 158.049L435.96 158.55L436.384 159.541M434.666 155.515L405.332 155.516M494.987 167.135H467.307M494.987 167.135L495.497 170.723M494.987 167.135H522.667M494.987 167.135L494.457 163.41M467.307 167.135L467.176 166.677L466.381 163.884L466.246 163.41M467.307 167.135L468.327 170.723M467.307 167.135H439.626M495.497 170.723H468.327M495.497 170.723H522.667M495.497 170.723L495.989 174.18M468.327 170.723L468.7 172.034L468.823 172.468L468.947 172.899L469.311 174.18M468.327 170.723H441.157M496.921 180.734H471.175M496.921 180.734L497.364 183.842M496.921 180.734H522.667M496.921 180.734L496.464 177.515M471.175 180.734L471.288 181.128L471.511 181.911L471.622 182.301L471.842 183.074L471.95 183.459L472.06 183.842M471.175 180.734L470.721 179.139L470.607 178.735L470.376 177.924L470.26 177.515M471.175 180.734H445.429M497.364 183.842L497.417 184.223L497.472 184.602L497.526 184.979L497.791 186.844M497.364 183.842H472.06M497.364 183.842H522.667M472.06 183.842H446.756M472.06 183.842L472.276 184.602L472.384 184.979L472.491 185.356L472.808 186.475L472.914 186.844M445.429 180.734L446.429 183.075L446.756 183.842M445.429 180.734L444.576 178.736L444.056 177.516M445.429 180.734L419.684 180.735M446.756 183.842L421.452 183.842M446.756 183.842L447.721 186.104L448.038 186.845M175.658 -126.116H106.256M175.658 -126.116L191.267 -104.173M175.658 -126.116H245.059M175.658 -126.116L158.505 -150.229M106.256 -126.116L124.987 -104.173M106.256 -126.116L85.6732 -150.229M106.256 -126.116H36.8539M191.267 -104.173H124.987M191.267 -104.173H257.547M191.267 -104.173L205.532 -84.119M158.505 -150.229H85.6732M158.505 -150.229L139.569 -176.85M158.505 -150.229H231.338M124.987 -104.173L142.106 -84.119M124.987 -104.173H58.7072M85.6732 -150.229L62.9495 -176.85M85.6732 -150.229H12.8402M36.8539 -126.116L58.7072 -104.173M36.8539 -126.116L12.8402 -150.229M36.8539 -126.116H0.28166M257.547 -104.173L268.96 -84.119M257.547 -104.173L245.059 -126.115M205.532 -84.119H142.106M205.532 -84.119H268.96M205.532 -84.119L218.621 -65.7204M142.106 -84.119L157.811 -65.7204M142.106 -84.119H78.6789M58.7072 -104.173L78.6789 -84.119M58.7072 -104.173H0.280934M230.671 -48.7801H172.271M230.671 -48.7801L241.803 -33.1313M230.671 -48.7801H289.07M230.671 -48.7801L218.62 -65.7204M172.271 -48.7801L185.63 -33.1313M172.271 -48.7801L157.811 -65.7204M172.271 -48.7801H113.873M241.803 -33.1313H185.63M241.803 -33.1313H297.976M241.803 -33.1313L252.117 -18.6324M185.63 -33.1313L198.007 -18.6324M185.63 -33.1313H129.457M113.873 -48.7801L129.457 -33.1313M113.873 -48.7801L97.002 -65.7204M113.873 -48.7801H55.4739M297.976 -33.1313L306.228 -18.6324M297.976 -33.1313L289.071 -48.7801M252.117 -18.6324H198.007M252.117 -18.6324H306.228M252.117 -18.6324L261.701 -5.1592M198.007 -18.6324L209.508 -5.15993L220.221 7.38989H270.628M198.007 -18.6324H143.898M129.457 -33.1313L143.898 -18.6324M129.457 -33.1313H73.2845M270.628 7.38989L278.966 19.1107M270.628 7.38989H321.037M270.628 7.38989L261.701 -5.15993M278.966 19.1107H230.226M278.966 19.1107H327.707M278.966 19.1107L286.769 30.0795M230.226 19.1107L220.221 7.39062H169.813M230.226 19.1107L239.589 30.0795M230.226 19.1107H181.485M327.707 19.1107L333.949 30.0802L339.804 40.3688M327.707 19.1107L321.037 7.39062M181.485 19.1107L192.41 30.0795M181.485 19.1107L169.813 7.38989L157.314 -5.1592M181.485 19.1107H132.744M300.966 50.0381H256.627M300.966 50.0381L307.443 59.1427M300.966 50.0381H345.307M300.966 50.0381L294.088 40.368L286.769 30.0787H333.949M256.627 50.0381L264.399 59.1427M256.627 50.0381L248.372 40.3688M307.443 59.1427H264.399M307.443 59.1427L350.488 59.1434M307.443 59.1427L313.552 67.7311H271.73M264.399 59.1427L271.73 67.7311M264.399 59.1427L221.354 59.1434M248.372 40.3688L239.589 30.0802M248.372 40.3688H202.656M248.372 40.3688H294.088H339.804M256.627 50.0388H212.286M212.286 50.0388L202.656 40.3688M212.286 50.0388H167.947M350.488 59.1434L355.375 67.7311M350.488 59.1434L345.307 50.0388M271.73 67.7311L278.655 75.8448M271.73 67.7311H229.906M221.354 59.1434L229.906 67.7311M221.354 59.1434L212.286 50.0381M221.354 59.1434H178.309M324.786 83.5229H285.209M324.786 83.5229L329.962 90.7989M324.786 83.5229H364.362M324.786 83.5229L319.324 75.8448M285.209 83.5229L291.42 90.7989M285.209 83.5229L278.655 75.8448M285.209 83.5229H245.633M329.962 90.7989H291.42M329.962 90.7989H368.503M329.962 90.7989L334.874 97.7039M364.362 83.5229H403.938M364.362 83.5229L365.418 85.3777L368.503 90.7989M364.362 83.5229L359.992 75.8448M319.324 75.8448H278.655M319.324 75.8448H359.992M291.42 90.7989L297.315 97.7039M291.42 90.7989H252.88M278.655 75.8448H237.986M245.633 83.5229L252.88 90.7989M245.633 83.5229L237.986 75.8448M245.633 83.5229H206.057M368.503 90.7989L372.432 97.7039M334.874 97.7039H297.315M334.874 97.7039H372.432M334.874 97.7039L339.541 104.266M297.315 97.7039L302.916 104.266M297.315 97.7039H259.756M252.88 90.7989L259.756 97.7039M252.88 90.7989H214.338M343.983 110.51H308.247M343.983 110.51L348.214 116.457M343.983 110.51H379.72M343.983 110.51L339.541 104.266M308.247 110.51L313.324 116.457M308.247 110.51L302.916 104.266M308.247 110.51H272.51M348.214 116.457H313.324M348.214 116.457H383.105M348.214 116.457L352.249 122.131M379.72 110.51H415.457M379.72 110.51L383.105 116.457M379.72 110.51L376.167 104.266M339.541 104.266H302.916M339.541 104.266H376.167M313.324 116.457L318.166 122.131M313.324 116.457H278.434M302.916 104.266H266.292M272.51 110.51L278.434 116.457M272.51 110.51L266.292 104.266M272.51 110.51H236.773M383.105 116.457L386.333 122.131M352.249 122.131H318.166M352.249 122.131H386.333M352.249 122.131L356.103 127.547M318.166 122.131L322.79 127.547M318.166 122.131H284.083M278.434 116.457L284.083 122.131M278.434 116.457H243.543M359.785 132.724L359.334 132.089L358.879 131.452L356.103 127.547M359.785 132.724H327.209M359.785 132.724L363.308 137.676M359.785 132.724H392.361M356.103 127.547H322.79M356.103 127.547H389.415M327.209 132.724L331.436 137.676M327.209 132.724L322.79 127.547M327.209 132.724H294.632M363.308 137.676H331.436M363.308 137.676H395.18M363.308 137.676L366.682 142.42M392.361 132.724H424.938M392.361 132.724L395.18 137.676M392.361 132.724L390.905 130.164L389.415 127.547M331.436 137.676L335.486 142.42M331.436 137.676H299.565M322.79 127.547H289.477M294.632 132.724L299.565 137.676M294.632 132.724L289.477 127.547M294.632 132.724H262.056M395.18 137.676H427.052M395.18 137.676L397.88 142.42M366.682 142.42H335.486M366.682 142.42H397.88M366.682 142.42L367.504 143.574L369.917 146.966M335.486 142.42L336.96 144.147L337.446 144.717L339.366 146.966M335.486 142.42H304.289M299.565 137.676L304.289 142.42M299.565 137.676H267.693M373.02 151.328H343.09M373.02 151.328L375.999 155.516M373.02 151.328H402.949M373.02 151.328L369.917 146.966M343.09 151.328L345.342 153.965L346.665 155.516M343.09 151.328L339.366 146.966M343.09 151.328H313.16M375.999 155.516H346.665M375.999 155.516H405.332M375.999 155.516L378.509 159.046L378.861 159.541M402.949 151.328H432.878M402.949 151.328L404.745 154.484L405.332 155.516M402.949 151.328L402.03 149.713L400.466 146.966M369.917 146.966H339.366M369.917 146.966H400.466M346.665 155.516L350.1 159.541M346.665 155.516H317.331M339.366 146.966H308.816M313.16 151.328L317.331 155.516M313.16 151.328L308.816 146.966M313.16 151.328H283.231M405.332 155.516L407.622 159.541M378.861 159.541H350.1M378.861 159.541H407.622M378.861 159.541L381.615 163.411M350.1 159.541L353.404 163.411M350.1 159.541H321.339M317.331 155.516L319.855 158.049L320.351 158.55L321.339 159.541M317.331 155.516H287.998M384.264 167.136H356.584M384.264 167.136L384.911 168.045L386.817 170.723M384.264 167.136H411.945M384.264 167.136L383.612 166.218L382.286 164.356L381.615 163.411M356.584 167.136L359.647 170.723M356.584 167.136L355.406 165.755L354.611 164.825L353.404 163.411M356.584 167.136H328.904M386.817 170.723H359.647M386.817 170.723H413.987M386.817 170.723L388.67 173.329L389.277 174.181M411.945 167.136H439.626M411.945 167.136L413.735 170.283L413.987 170.723M411.945 167.136L411.685 166.678L411.423 166.218L411.16 165.755L409.826 163.411M381.615 163.411H353.404M381.615 163.411H409.826M359.647 170.723L360.766 172.035L361.504 172.9L362.598 174.181M359.647 170.723H332.477M353.404 163.411H325.194M328.904 167.136L332.477 170.723M328.904 167.136L326.602 164.825L326.134 164.356L325.194 163.411M328.904 167.136H301.223M413.987 170.723H441.157M413.987 170.723L415.955 174.181M389.277 174.181H362.598M389.277 174.181H415.955M389.277 174.181L391.648 177.516M362.598 174.181L364.035 175.864L364.39 176.28L365.445 177.516M362.598 174.181H335.92M332.477 170.723L335.92 174.181M332.477 170.723H305.306M393.938 180.735H368.192M393.938 180.735L395.329 182.69L396.148 183.842M393.938 180.735H419.684M393.938 180.735L391.648 177.516M368.192 180.735L370.191 183.075L370.518 183.46L370.845 183.842M368.192 180.735L366.83 179.14L365.445 177.516M368.192 180.735H342.447M396.148 183.842H370.845M396.148 183.842L397.226 185.357L397.757 186.104L398.021 186.475L398.284 186.845M396.148 183.842H421.452M419.684 180.735L421.016 183.075L421.452 183.842M419.684 180.735L417.852 177.516M391.648 177.516H365.445M391.648 177.516H417.852M370.845 183.842H345.541M370.845 183.842L373.408 186.845M398.284 186.845H373.408M398.284 186.845H423.161M421.452 183.842L422.314 185.357L422.951 186.475L423.161 186.845M345.541 183.842H320.238M345.541 183.842L348.531 186.845M373.408 186.845H348.531M17.1115 -33.1313H73.2845M17.1115 -33.1313L35.6771 -18.6324M17.1115 -33.1313H0.280934M17.1115 -33.1313L0.280934 -46.2757M73.2845 -33.1313L89.787 -18.6324M73.2845 -33.1313L55.4739 -48.7801M35.6771 -18.6324L52.9288 -5.1592H105.121M35.6771 -18.6324H89.787M35.6771 -18.6324H0.280934M0.280934 -33.1313V-18.6324M0.280934 -33.1313V-46.2757M0.280934 -46.2757V-48.7801V-65.7204M68.9979 7.38989H18.5903L0.734638 -5.15993H52.9281L68.9979 7.38989ZM68.9979 7.38989L84.0043 19.11M68.9979 7.38989H119.406M84.0043 19.11L35.2648 19.1107M84.0043 19.11L132.744 19.1107M84.0043 19.11L98.0509 30.0795M119.406 7.38989L132.744 19.1114M119.406 7.38989L105.121 -5.15993M35.2648 19.1107L18.5903 7.39062H0.280934M35.2648 19.1107L50.8715 30.0795M35.2648 19.1107H0.28166M132.744 19.1107L145.23 30.0802M135.263 59.1427L123.606 50.0381H79.2654L65.5091 40.3688M167.947 50.0381H123.606L111.224 40.3688M167.947 50.0381L178.309 59.1434M167.947 50.0381L156.94 40.3688M111.224 40.3688H65.5091M111.224 40.3688L98.0509 30.0802M111.224 40.3688H156.94M92.2188 59.1434L79.2661 50.0388H34.9258M92.2188 59.1434H135.264M92.2188 59.1434L104.438 67.7311M92.2188 59.1434H49.1743M65.5091 40.3688L50.8708 30.0802M65.5091 40.3688H19.7931M34.9258 50.0388L19.7931 40.3688M34.9258 50.0388H0.280934M135.264 59.1434H178.309M135.264 59.1434L146.26 67.7311M178.309 59.1434L188.083 67.7311M146.26 67.7311H104.438M146.26 67.7311H188.083M146.26 67.7311L156.649 75.8448M104.438 67.7311L115.981 75.8448M104.438 67.7311H62.6141M49.1743 59.1434L62.6141 67.7311M49.1743 59.1434L34.9258 50.0381M49.1743 59.1434H6.12973M166.48 83.5229H126.904M166.48 83.5229L175.797 90.7989M166.48 83.5229H206.057M166.48 83.5229L156.649 75.8448M126.904 83.5229L137.256 90.7989M126.904 83.5229L115.981 75.8448M126.904 83.5229H87.3275M175.797 90.7989H137.256M175.797 90.7989H214.338M175.797 90.7989L184.639 97.7039M206.057 83.5229L214.338 90.7989M206.057 83.5229L197.319 75.8448M156.649 75.8448H115.981M156.649 75.8448H197.319M137.256 90.7989L147.081 97.7039M137.256 90.7989H98.7152M115.981 75.8448H75.312M87.3275 83.5229L98.7152 90.7989M87.3275 83.5229L75.312 75.8448M87.3275 83.5229H47.7515M214.338 90.7989L222.198 97.7039M184.639 97.7039H147.081M184.639 97.7039H222.198M184.639 97.7039L193.041 104.266M147.081 97.7039L156.416 104.266M147.081 97.7039H109.521M98.7152 90.7989L109.521 97.7039M98.7152 90.7989H60.1742M201.036 110.51H165.299M201.036 110.51L208.652 116.457M201.036 110.51H236.773M201.036 110.51L193.041 104.266M165.299 110.51L173.761 116.457M165.299 110.51L156.416 104.266M165.299 110.51H129.563M208.652 116.457H173.761M208.652 116.457H243.543M208.652 116.457L215.916 122.131M236.773 110.51L243.543 116.457M236.773 110.51L229.667 104.266M193.041 104.266H156.416M193.041 104.266H229.667M173.761 116.457L181.832 122.131M173.761 116.457H138.871M156.416 104.266H119.791M129.563 110.51L138.871 116.457M129.563 110.51L119.791 104.266M129.563 110.51H93.8253M243.543 116.457L249.999 122.131M215.916 122.131H181.832M215.916 122.131H249.999M215.916 122.131L222.851 127.547M181.832 122.131L189.538 127.547M181.832 122.131H147.749M138.871 116.457L147.749 122.131M138.871 116.457H103.98M229.479 132.724H196.903M229.479 132.724L235.822 137.676M229.479 132.724H262.056M229.479 132.724L222.851 127.547M196.903 132.724L203.95 137.676M196.903 132.724L189.538 127.547M196.903 132.724H164.327M235.822 137.676H203.95M235.822 137.676H267.693M235.822 137.676L241.895 142.42M262.056 132.724L267.693 137.676M262.056 132.724L256.164 127.547M222.851 127.547H189.538M222.851 127.547H256.164M203.95 137.676L210.698 142.42M203.95 137.676H172.078M189.538 127.547H156.225M164.327 132.724L172.078 137.676M164.327 132.724L156.225 127.547M164.327 132.724H131.75M267.693 137.676L273.091 142.42M241.895 142.42H210.698M241.895 142.42H273.091M241.895 142.42L247.716 146.966M210.698 142.42L217.165 146.966M210.698 142.42H179.501M172.078 137.676L179.501 142.42M172.078 137.676H140.206M253.301 151.328H223.372M253.301 151.328L258.664 155.516M253.301 151.328H283.231M253.301 151.328L247.716 146.966M223.372 151.328L229.33 155.516M223.372 151.328L217.165 146.966M223.372 151.328H193.441M258.664 155.516H229.33M258.664 155.516H287.998M258.664 155.516L263.817 159.541M283.231 151.328L287.998 155.516M283.231 151.328L278.267 146.966M247.716 146.966H217.165M247.716 146.966H278.267M229.33 155.516L235.056 159.541M229.33 155.516H199.996M217.165 146.966H186.616M193.441 151.328L199.996 155.516M193.441 151.328L186.616 146.966M193.441 151.328H163.512M287.998 155.516L292.578 159.541M263.817 159.541H235.056M263.817 159.541H292.578M263.817 159.541L268.772 163.411M235.056 159.541L239.885 162.935L240.562 163.411M235.056 159.541H206.295M199.996 155.516L206.295 159.541M199.996 155.516H170.662M273.542 167.136H245.862M273.542 167.136L278.136 170.723M273.542 167.136H301.223M273.542 167.136L272.366 166.218L271.775 165.755L268.772 163.411M245.862 167.136L250.966 170.723M245.862 167.136L240.562 163.411M245.862 167.136H218.182M278.136 170.723H250.966M278.136 170.723H305.306M278.136 170.723L282.563 174.181M301.223 167.136L305.306 170.723M301.223 167.136L296.983 163.411M268.772 163.411H240.562M268.772 163.411H296.983M250.966 170.723L255.886 174.181M250.966 170.723H223.796M240.562 163.411H212.352M218.182 167.136L223.796 170.723M218.182 167.136L212.352 163.411M218.182 167.136H190.501M305.306 170.723L309.242 174.181M282.563 174.181H255.886M282.563 174.181H309.242M282.563 174.181L286.833 177.516M255.886 174.181L260.63 177.516M255.886 174.181H229.207M223.796 170.723L229.207 174.181M223.796 170.723H196.626M290.954 180.735H265.209M290.954 180.735L294.934 183.842M290.954 180.735H316.7M290.954 180.735L286.833 177.516M265.209 180.735L268.539 183.075L269.085 183.46L269.63 183.842M265.209 180.735L260.63 177.516M265.209 180.735H239.463M294.934 183.842H269.63M294.934 183.842L298.304 186.475L298.778 186.845M294.934 183.842H320.238M316.7 180.735H342.447M316.7 180.735L320.238 183.842M316.7 180.735L313.038 177.516M286.833 177.516H260.63M286.833 177.516H313.038M269.63 183.842H244.326M269.63 183.842L273.902 186.845M260.63 177.516H234.426M239.463 180.735L244.326 183.842M239.463 180.735L234.426 177.516M239.463 180.735H213.716M298.778 186.845H273.902M298.778 186.845H323.655M320.238 183.842L322.812 186.104L323.655 186.845M244.326 183.842H219.022M244.326 183.842L249.025 186.845M273.902 186.845H249.025M8.17539 83.5229L21.6326 90.7989M8.17539 83.5229H47.7515M8.17539 83.5229L0.280934 79.2545M8.17539 83.5229H0.280934M21.6326 90.7989H60.1742M21.6326 90.7989L34.4039 97.7039M21.6326 90.7989H0.280934M47.7515 83.5229L60.1742 90.7989M47.7515 83.5229L34.6434 75.8448M0.280934 79.2545V83.5229M0.280934 79.2545V75.8448M0.280934 83.5229V90.7989M60.1742 90.7989L71.9626 97.7039M34.4039 97.7039L46.5406 104.266M34.4039 97.7039H71.9626M34.4039 97.7039H0.280934M0.280934 90.7989V97.7039M58.0887 110.51H22.3513M58.0887 110.51L69.0901 116.457M58.0887 110.51H93.8253M58.0887 110.51L46.5406 104.266M22.3513 110.51L34.1984 116.457M22.3513 110.51L9.91543 104.266M22.3513 110.51H0.280934M69.0901 116.457H34.1984M69.0901 116.457H103.98M69.0901 116.457L79.5812 122.131M93.8253 110.51L103.98 116.457M93.8253 110.51L83.1658 104.266M46.5406 104.266H9.91543M46.5406 104.266H83.1658M34.1984 116.457L45.4975 122.131M34.1984 116.457H0.280934M9.91543 104.266L0.280934 99.4294M9.91543 104.266H0.280934M0.280934 110.51H0.0159704M0.280934 110.51V116.457M0.280934 110.51V104.266M79.5812 122.131H45.4975M79.5812 122.131H113.665M79.5812 122.131L89.599 127.547M45.4975 122.131L56.2862 127.547M45.4975 122.131H11.4145M0.280934 116.457V116.913M99.1739 132.724H66.5973M99.1739 132.724L108.334 137.676M99.1739 132.724H131.75M99.1739 132.724L89.599 127.547M66.5973 132.724L76.4626 137.676M66.5973 132.724L56.2862 127.547M66.5973 132.724H34.0206M108.334 137.676H76.4626M108.334 137.676H140.206M108.334 137.676L117.107 142.42M131.75 132.724L140.206 137.676M131.75 132.724L122.912 127.547M89.599 127.547H56.2862M89.599 127.547H122.912M76.4626 137.676L85.9098 142.42M76.4626 137.676H44.5908M56.2862 127.547H22.9734M34.0206 132.724L44.5908 137.676M34.0206 132.724L22.9734 127.547M34.0206 132.724H1.44459M140.206 137.676L148.304 142.42M117.107 142.42H85.9098M117.107 142.42H148.304M117.107 142.42L125.516 146.966M85.9098 142.42L94.9658 146.966M85.9098 142.42H54.7131M44.5908 137.676L54.7131 142.42M44.5908 137.676H12.7182M133.583 151.328H103.654M133.583 151.328L141.329 155.516M133.583 151.328H163.512M133.583 151.328L125.516 146.966M103.654 151.328L111.995 155.516M103.654 151.328L94.9658 146.966M103.654 151.328H73.7229M141.329 155.516H111.995M141.329 155.516H170.662M141.329 155.516L148.772 159.541M163.512 151.328L170.662 155.516M163.512 151.328L156.066 146.966M125.516 146.966H94.9658M125.516 146.966H156.066M111.995 155.516L120.011 159.541M111.995 155.516H82.6613M94.9658 146.966H64.4151M73.7229 151.328L82.6613 155.516M73.7229 151.328L64.4151 146.966M73.7229 151.328H43.7944M170.662 155.516L177.533 159.541M148.772 159.541H120.011M148.772 159.541H177.533M148.772 159.541L155.931 163.411M120.011 159.541L127.72 163.411M120.011 159.541H91.2497M82.6613 155.516L91.2497 159.541M82.6613 155.516H53.3266H23.9941L13.8645 151.328M162.82 167.136H135.139M162.82 167.136L169.455 170.723M162.82 167.136H190.501M162.82 167.136L155.931 163.411M135.139 167.136L142.285 170.723M135.139 167.136L127.72 163.411M135.139 167.136H107.459M169.455 170.723H142.285M169.455 170.723H196.626M169.455 170.723L175.851 174.181M190.501 167.136L195.872 170.283L196.626 170.723M190.501 167.136L184.141 163.411M155.931 163.411H127.72M155.931 163.411H184.141M142.285 170.723L149.173 174.181M142.285 170.723H115.115M127.72 163.411H99.5093M107.459 167.136L115.115 170.723M107.459 167.136L99.5093 163.411M107.459 167.136H79.7786M196.626 170.723L202.529 174.181M175.851 174.181H149.173M175.851 174.181H202.529M175.851 174.181L182.019 177.516M149.173 174.181L155.814 177.516M149.173 174.181H122.494M115.115 170.723L122.494 174.181M115.115 170.723H87.9453M187.971 180.735H162.225M187.971 180.735L193.719 183.842M187.971 180.735H213.716M187.971 180.735L182.019 177.516M162.225 180.735L168.415 183.842M162.225 180.735L155.814 177.516M162.225 180.735H136.479M193.719 183.842H168.415M193.719 183.842L199.272 186.845M193.719 183.842H219.022M213.716 180.735L219.022 183.842M213.716 180.735L208.223 177.516M182.019 177.516H155.814M182.019 177.516H208.223M168.415 183.842H143.111M168.415 183.842L174.396 186.845M155.814 177.516H129.611M136.479 180.735L143.111 183.842M136.479 180.735L129.611 177.516M136.479 180.735H110.734M199.272 186.845H174.396M199.272 186.845H224.149M219.022 183.842L224.149 186.845M143.111 183.842H117.807M143.111 183.842L149.519 186.845M174.396 186.845H149.519M13.8645 151.328H43.7944M13.8645 151.328L3.31458 146.966M13.8645 151.328H0.280934M43.7944 151.328L53.328 155.516L62.4885 159.541M43.7944 151.328L33.8652 146.966M3.31458 146.966H33.8652M3.31458 146.966H0.280934M3.31458 146.966L0.280934 145.712M0.280934 151.328V155.516M0.280934 151.328V146.966M33.7266 159.541L23.9933 155.516H0.280934M33.7266 159.541H4.96607M33.7266 159.541H62.4885M33.7266 159.541L43.0888 163.411M0.280934 155.516V157.711M52.0976 167.136H24.418M52.0976 167.136L60.7753 170.723M52.0976 167.136H79.7786M52.0976 167.136L43.0888 163.411M24.418 167.136L33.6053 170.723M24.418 167.136L14.8786 163.411M24.418 167.136H0.280934M60.7753 170.723H33.6053M60.7753 170.723H87.9453M60.7753 170.723L69.138 174.181M79.7786 167.136L87.9453 170.723M79.7786 167.136L71.2991 163.411M43.0888 163.411H14.8786M43.0888 163.411H71.2991M33.6053 170.723L42.4602 174.181M33.6053 170.723H6.43534M14.8786 163.411L4.96607 159.541M14.8786 163.411H0.280934M0.280934 167.136H0.196726M0.280934 167.136V168.448M0.280934 167.136V163.411M87.9453 170.723L95.8165 174.181M69.138 174.181H42.4602M69.138 174.181H95.8165M69.138 174.181L77.2038 177.516M42.4602 174.181L51 177.516M42.4602 174.181H15.7816M6.43534 170.723L15.7816 174.181M6.43534 170.723L0.280934 168.448M6.43534 170.723H0.280934M84.9872 180.735H59.2414M84.9872 180.735L92.5034 183.842M84.9872 180.735H110.734M84.9872 180.735L77.2038 177.516M59.2414 180.735L67.1998 183.842M59.2414 180.735L51 177.516M59.2414 180.735H33.4943M92.5034 183.842H67.1998M92.5034 183.842L99.7656 186.845M92.5034 183.842H117.807M110.734 180.735L117.807 183.842M110.734 180.735L103.408 177.516M77.2038 177.516H51M77.2038 177.516H103.408M67.1998 183.842H41.8961M67.1998 183.842L74.8895 186.845M51 177.516H24.7962M99.7656 186.845H74.8895M99.7656 186.845H124.642M117.807 183.842L124.642 186.845M41.8961 183.842L33.4957 180.735M41.8961 183.842H16.5925M41.8961 183.842L50.0127 186.845M74.8895 186.845H50.0127M24.7962 177.516L33.4957 180.735M24.7962 177.516L15.7816 174.181M24.7962 177.516H0.28166M33.4957 180.735H7.74999M7.74999 180.735L16.5925 183.842M7.74999 180.735L0.280934 178.11M7.74999 180.735H0.280934M16.5925 183.842L25.1367 186.845M16.5925 183.842H0.280934M50.0127 186.845H25.1367M50.0127 186.845L57.86 189.748M15.7816 174.181H0.280934M0.280934 178.11V180.735M0.280934 178.11V177.516V174.181M0.280934 180.735V183.842M25.1367 186.845L33.397 189.748M25.1367 186.845H0.28166M0.280934 183.842V186.845M57.86 189.748H33.397M33.397 189.748H8.93398M0.280934 168.448V170.723M0.280934 170.723V174.181M95.8165 174.181L103.408 177.516M95.8165 174.181H122.494M103.408 177.516H129.611M4.96607 159.541L0.280934 157.711M4.96607 159.541H0.280934M0.280934 163.411V159.541M0.280934 157.711V159.541M62.4885 159.541L71.2991 163.411M62.4885 159.541H91.2497M71.2991 163.411H99.5093M129.611 177.516L122.494 174.181M149.519 186.845H124.642M149.519 186.845L155.714 189.748M124.642 186.845L131.251 189.748M155.714 189.748H131.251M202.529 174.181L208.223 177.516M202.529 174.181H229.207M208.223 177.516H234.426M99.5093 163.411L91.2497 159.541M177.533 159.541L184.141 163.411M177.533 159.541H206.295M184.141 163.411H212.352M64.4151 146.966L54.7131 142.42M64.4151 146.966H33.8652M33.8652 146.966L23.5149 142.42M54.7131 142.42H23.5149M23.5149 142.42L12.7182 137.676M23.5149 142.42H0.28166M0.280934 146.966V145.712M0.280934 145.712V142.42M12.7182 137.676L1.44532 132.724M12.7182 137.676H0.280934M148.304 142.42L156.066 146.966M148.304 142.42H179.501M156.066 146.966H186.616M22.9734 127.547L11.4145 122.131M22.9734 127.547H0.280934M1.44459 132.724L0.280934 132.213M1.44459 132.724H0.280934M0.280934 137.676V142.42M0.280934 137.676V132.724M0.118326 142.42H0.280934M0.280934 132.213L0 132.089M0.280934 132.213V132.724M0.280934 132.213V127.547M11.4145 122.131H0.280934M11.4145 122.131L0.280934 116.913M0.280934 127.547V122.131M0.280934 122.131V116.913M113.665 122.131L122.912 127.547M113.665 122.131H147.749M113.665 122.131L103.98 116.457M122.912 127.547H156.225M0.280934 99.4294L0.174948 99.3757M0.280934 99.4294V104.266M0.280934 99.4294V97.7039M83.1658 104.266H119.791M83.1658 104.266L71.9626 97.7039M234.426 177.516L229.207 174.181M249.025 186.845H224.149M249.025 186.845L253.568 189.748M224.149 186.845L224.777 187.214L226.027 187.945L229.105 189.748M253.568 189.748H229.105M309.242 174.181L313.038 177.516M309.242 174.181H335.92M313.038 177.516H339.242M212.352 163.411L206.295 159.541M292.578 159.541L296.983 163.411M292.578 159.541H321.339M296.983 163.411H325.194M186.616 146.966L179.501 142.42M273.091 142.42L278.267 146.966M273.091 142.42H304.289M278.267 146.966H308.816M156.225 127.547L147.749 122.131M249.999 122.131L256.164 127.547M249.999 122.131H284.083M256.164 127.547H289.477M119.791 104.266L109.521 97.7039M109.521 97.7039H71.9626M222.198 97.7039L229.667 104.266M222.198 97.7039H259.756M229.667 104.266H266.292M75.312 75.8448L62.6141 67.7311M75.312 75.8448H34.6434M34.6434 75.8448L20.7905 67.7311H0.280934M34.6434 75.8448H0.280934M62.6141 67.7311H20.7913L6.129 59.1434M0.280934 75.8448V67.7311M6.12973 59.1434H0.280934M6.12973 59.1434L0.280934 55.717V50.0388M188.083 67.7311L197.319 75.8448M0.280934 67.7311V59.1434M197.319 75.8448H237.986M19.7931 40.3688L3.69206 30.0802M19.7931 40.3688H0.280934M0.280934 50.0388V40.3688M0.280934 59.1434L0.280208 55.7177M50.8708 30.0802H3.69206M50.8708 30.0802H98.0509M3.69206 30.0802L0.280934 27.901M3.69206 30.0802H0.280934M0.280934 40.3688V30.0802M98.0509 30.0802H145.23M0.280934 27.901V30.0802M0.280934 27.901V19.11V7.39135V-5.15993V-5.47861V-18.6324M145.23 30.0802L156.94 40.3688M156.94 40.3688H202.656M0.733186 -5.15993H0.28166M0.735364 -5.15993L0.28166 -5.47861M105.121 -5.1592H157.314M105.121 -5.1592L89.787 -18.6324M365.445 177.516H339.242M339.242 177.516L339.648 177.925L342.447 180.735M339.242 177.516L338.422 176.694L335.92 174.181M342.447 180.735L344.778 183.075L345.542 183.842M348.531 186.845H323.655M348.531 186.845L351.423 189.748M323.655 186.845L324.907 187.945L326.959 189.748M351.423 189.748H326.959M415.955 174.181L416.435 175.027L417.852 177.516M415.955 174.181H442.633M417.852 177.516H444.056M325.194 163.411L321.339 159.541M407.622 159.541L407.903 160.033L408.181 160.523L409.826 163.411M407.622 159.541H436.384M409.826 163.411H438.036M308.816 146.966L304.289 142.42M397.88 142.42L400.466 146.966M397.88 142.42H429.076M400.466 146.966H431.017M289.477 127.547L284.083 122.131M386.333 122.131L389.415 127.547M386.333 122.131H420.417M389.415 127.547H422.728M266.292 104.266L259.756 97.7039M372.432 97.7039L376.167 104.266M372.432 97.7039H409.991M376.167 104.266H412.792M237.986 75.8448L229.906 67.7311M229.906 67.7304H188.083M355.375 67.7304H313.552L319.324 75.8441M359.992 75.8448H400.662M359.992 75.8448L355.375 67.7311M202.656 40.3688L192.41 30.0802H239.589M239.589 30.0802H286.769M192.41 30.0787H145.23M339.804 40.3688L345.307 50.0388M339.804 40.3688H385.52M157.314 -5.1592H209.508H261.701M157.314 -5.1592L143.898 -18.6324M169.813 7.39135H119.406M261.701 -5.1592H313.894M143.898 -18.6324H89.787M306.228 -18.6324L313.894 -5.1592M306.228 -18.6324H360.338M313.894 -5.1592H366.088M97.002 -65.7204H157.811M97.002 -65.7204L78.6789 -84.119M97.002 -65.7204H36.1925M55.4739 -48.7801L36.1925 -65.7204M55.4739 -48.7801H0.28166M36.1925 -65.7204L15.2517 -84.119M36.1925 -65.7204H0.280934M157.811 -65.7204H218.621M218.621 -65.7204H279.43M78.6789 -84.119H15.2517M15.2517 -84.119H0.280208M15.2517 -84.119L0.280934 -97.2728M0.280934 -65.7204L0.280208 -84.119M0.280934 -104.173V-97.2728M0.280934 -104.173V-126.116V-150.229V-162.84V-176.849M268.96 -84.119L279.43 -65.7204M268.96 -84.119H332.387M0.280208 -84.119L0.280934 -97.2728M279.43 -65.7204L289.071 -48.7801M279.43 -65.7204H340.239M12.8402 -150.229L0.28166 -162.84M12.8402 -150.229H0.28166M62.9495 -176.85H139.569M62.9495 -176.85L0.280934 -176.849M139.569 -176.85H216.188M0.280934 -176.849V-176.944H1045.05V-176.849M231.338 -150.229L245.059 -126.115M231.338 -150.229L304.17 -150.228M231.338 -150.229L216.188 -176.849H292.808M470.26 177.516L470.143 177.106L470.026 176.694L469.908 176.28L469.79 175.864L469.431 174.605L469.311 174.181M470.26 177.516H444.056M470.26 177.516H496.464M469.311 174.181H442.633M469.311 174.181H495.989M444.056 177.516L443.881 177.106L443.705 176.694L443.528 176.28L443.35 175.864L442.633 174.181M496.464 177.516L495.989 174.181M496.464 177.516H522.667M448.038 186.845H472.914M448.038 186.845L448.194 187.214L448.507 187.945L448.817 188.671L448.97 189.031L449.277 189.748M448.038 186.845H423.161M472.914 186.845H497.791M442.633 174.181L441.157 170.723M423.161 186.845L424.609 189.391L424.814 189.748M449.277 189.748H424.814M495.989 174.181H522.667V170.723V167.136M441.157 170.723L439.626 167.136M439.626 167.136L439.234 166.218L438.639 164.825L438.036 163.411M522.667 177.516L548.871 177.517M522.667 177.516V180.735M522.667 177.516V174.182H549.345M438.036 163.411H466.246M438.036 163.411L436.384 159.541M466.246 163.411H494.457M494.457 163.411H522.667M432.878 151.328L431.254 147.521L431.017 146.966M522.667 159.541V163.411M522.667 159.541H551.429M522.667 163.411V167.136M522.667 163.411H550.878M431.017 146.966H461.567M431.017 146.966L429.076 142.42M461.567 146.966L460.926 144.717L460.765 144.147L460.273 142.42M461.567 146.966H492.117M460.273 142.42H429.076M460.273 142.42H491.471M492.117 146.966L491.958 145.847L491.635 143.574L491.471 142.42M492.117 146.966H522.667M429.076 142.42L427.052 137.676M491.471 142.42H522.667M427.052 137.676L424.938 132.724M424.938 132.724L423.29 128.863L422.728 127.547M522.667 142.42V146.966M522.667 142.42H553.864M522.667 142.42V137.676M522.667 146.966V151.328M522.667 146.966H553.218M422.728 127.547L420.417 122.131M415.457 110.51L412.792 104.266M522.667 122.131V127.547M522.667 122.131H556.751M522.667 127.547V132.724M522.667 127.547H555.98M412.792 104.266L409.991 97.7039M447.55 97.7039H409.991M447.55 97.7039H485.109M485.109 97.7039H522.667M403.938 83.5229L400.662 75.8448M522.667 97.7039V104.266M522.667 97.7039H560.226M522.667 104.266V110.51M522.667 104.266H559.292M400.662 75.8448H441.33M400.662 75.8448L397.198 67.7311M441.33 75.8448L439.022 67.7311M441.33 75.8448H481.999M439.022 67.7311H397.198M439.022 67.7311H480.845M481.999 75.8448L480.845 67.7311M481.999 75.8448H522.667M397.198 67.7311H355.375M480.845 67.7311H522.667M389.647 50.0388L385.52 40.3688M389.647 50.0388H345.307M522.667 67.7311V75.8448M522.667 67.7311H564.49M522.667 75.8448V83.5229M522.667 75.8448H563.336M385.52 40.3688H431.235M385.52 40.3688L381.128 30.0802H428.308M431.235 40.3688L428.308 30.0802M431.235 40.3688H476.951M428.308 30.0802H475.488M476.951 40.3688H522.667M522.667 40.3688H568.383M371.444 7.38989L366.088 -5.15993M321.037 7.39062L313.894 -5.15993M366.088 -5.1592L360.338 -18.6324M522.667 -18.6324V-5.1592H574.861M522.667 -18.6324H576.777M347.47 -48.7809L340.239 -65.7204M340.239 -65.7204L332.387 -84.119M522.667 -84.119V-65.7204M522.667 -84.119H586.094M461.858 -65.7211H522.667M304.17 -150.228L314.461 -126.115H245.059M304.17 -150.228L292.808 -176.849M369.428 -176.849H292.808M369.428 -176.849H446.047M446.047 -176.849H522.667M522.667 -176.849V-150.228M522.667 -176.849H599.287M522.667 -150.228V-126.115M522.667 -150.228H595.5M576.024 174.182H549.345M576.024 174.182H602.701M548.871 177.517L548.413 180.735M548.871 177.517L548.93 177.106L548.988 176.695L549.048 176.28L549.345 174.182M548.413 180.735L547.971 183.843M548.413 180.735H522.667M547.971 183.843L547.917 184.224L547.863 184.603L547.809 184.981L547.543 186.846M547.971 183.843H522.667M522.667 180.735V183.843M547.543 186.846H572.42M547.543 186.846H522.667M547.543 186.846L547.387 187.945L547.335 188.309L547.131 189.749M522.667 183.843V186.846M572.42 186.846L572.316 187.214L571.901 188.671L571.594 189.749M572.42 186.846H597.297M549.345 174.182L549.837 170.724M522.667 186.846H497.791L497.947 187.945L497.999 188.309L498.05 188.671L498.102 189.032L498.153 189.391L498.204 189.749M522.667 186.846V189.749M602.701 174.182H629.38M549.837 170.724H522.667M627.482 177.516H653.686M627.482 177.516L628.899 175.027L629.38 174.181M550.878 163.411L551.429 159.541M637.712 159.541L635.509 163.411M637.712 159.541H666.473M635.509 163.411H663.72M553.218 146.966L553.376 145.847L553.7 143.574L553.864 142.42M522.667 137.676V132.724M647.455 142.42L644.868 146.966M647.455 142.42H678.652M644.868 146.966H675.418M555.98 127.547L556.751 122.131M659.001 122.131L655.919 127.547M659.001 122.131H693.085M655.919 127.547H689.232M559.292 104.266L560.226 97.7039M672.902 97.7039L669.168 104.266M672.902 97.7039H710.461M669.168 104.266H705.793M563.336 75.8448L564.49 67.7311M689.959 67.7311L685.342 75.8448M689.959 67.7311H731.785M685.342 75.8448H726.014M568.383 40.3688L569.847 30.0802H617.026M617.026 30.0802H664.206M705.53 40.3688H751.247M573.075 7.38989L574.861 -5.15993M574.861 -5.1592L576.777 -18.6324M739.11 -18.6324L731.444 -5.1592H783.631M739.11 -18.6324H793.22M581.066 -48.7809L583.477 -65.7204M583.477 -65.7204L586.094 -84.119M583.477 -65.7204H522.667M776.371 -84.119L765.904 -65.7204M776.371 -84.119H839.803M705.096 -65.7211H765.904M595.5 -150.228L592.069 -126.115H522.667M595.5 -150.228L599.287 -176.849M675.907 -176.849H599.287M675.907 -176.849H752.525M752.525 -176.849H829.146M813.996 -150.228L886.829 -150.229M813.996 -150.228L829.146 -176.85H905.768M653.686 177.516L656.058 174.181M647.05 186.845H622.174M647.05 186.845L645.495 189.031L644.985 189.748M656.058 174.181H629.38M622.174 186.845L621.964 187.214L621.547 187.945L620.522 189.748M644.985 189.748H620.522M736.09 174.181L732.3 177.516M736.09 174.181H762.768M732.3 177.516H758.499M663.72 163.411L666.473 159.541M752.757 159.541L748.895 162.935L748.351 163.411M752.757 159.541H781.518M748.351 163.411H776.56M675.418 146.966L678.652 142.42M772.241 142.42L767.065 146.966M772.241 142.42H803.441M767.065 146.966H797.619M689.232 127.547L693.085 122.131M795.333 122.131L789.17 127.547M795.333 122.131H829.422M789.17 127.547H822.482M705.793 104.266L710.461 97.7039M823.136 97.7039L815.666 104.266M823.136 97.7039H860.695M815.666 104.266H852.296M726.014 75.8448L731.785 67.7311M857.254 67.7311L848.013 75.8448M857.254 67.7311H899.075M848.013 75.8448H888.687M751.247 40.3688L758.564 30.0802H805.742M805.742 30.0802H852.928M888.397 40.3688H934.108M774.709 7.38989L783.631 -5.15993M783.631 -5.1592L793.22 -18.6324M955.545 -18.6324L940.213 -5.1592H992.407L1009.66 -18.6324M955.545 -18.6324H1009.66M814.664 -48.7809L826.714 -65.7204M826.714 -65.7204L839.803 -84.119M826.714 -65.7204H765.904M1030.08 -84.119L1009.14 -65.7204M1030.08 -84.119H1045.05M1030.08 -84.119L1045.05 -97.2728M948.329 -65.7211H1009.14M886.829 -150.229L905.768 -176.85M982.382 -176.85H905.768M982.382 -176.85L1045.05 -176.849M1045.05 -176.849V-162.84M1045.05 -162.84V-150.229M758.499 177.516L762.768 174.181M746.558 186.845L746.086 187.214L742.841 189.748M746.558 186.845H721.679M721.679 186.845L720.427 187.945L718.375 189.748M742.841 189.748H718.375M842.808 174.181L837.11 177.516M842.808 174.181H869.486M837.11 177.516H863.316M776.56 163.411L781.518 159.541M867.802 159.541L861.196 163.411M867.802 159.541H896.563M861.196 163.411H889.406M797.619 146.966L803.441 142.42M897.028 142.42L889.268 146.966M897.028 142.42H928.228M889.268 146.966H919.822M822.482 127.547L829.422 122.131M931.669 122.131L922.421 127.547M931.669 122.131H965.751M922.421 127.547H955.733M852.296 104.266L860.695 97.7039M973.373 97.7039L962.165 104.266M973.373 97.7039H1010.93M962.165 104.266H998.795M888.687 75.8448L899.075 67.7311M1024.54 67.7311L1010.69 75.8448M1024.54 67.7311H1045.05M1010.69 75.8448H1045.05M934.108 40.3688L947.284 30.0802H994.462M994.462 30.0802H1041.64M1041.64 30.0802H1045.05M1041.64 30.0802L1045.05 27.901M1045.05 27.901V30.0787V40.3688M1045.05 -5.47861V-18.6324M1009.66 -18.6324L1028.22 -33.1313M1009.66 -18.6324H1045.05M1028.22 -33.1313H1045.05M1028.22 -33.1313L1045.05 -46.2757M1045.05 -33.1313V-46.2757M1045.05 -33.1313V-18.6324M1045.05 -46.2757V-48.7801M1009.14 -65.7204H1045.05M1045.05 -48.7801V-65.7204M1045.05 -65.7204V-84.119M1045.05 -84.119V-97.2728M863.316 177.516L869.486 174.181M846.06 186.845L845.378 187.214L840.696 189.748M846.06 186.845H821.183M821.183 186.845L820.559 187.214L816.232 189.748M840.696 189.748H816.232M949.52 174.181L941.926 177.516M949.52 174.181H976.197M941.926 177.516H968.132M889.406 163.411L896.563 159.541M982.847 159.541L974.034 163.411M982.847 159.541H1011.61M974.034 163.411H1002.24M919.822 146.966L928.228 142.42M1021.82 142.42L1011.47 146.966M1021.82 142.42H1045.05M1011.47 146.966H1042.02M955.733 127.547L965.751 122.131M1045.05 127.547V132.213M998.795 104.266L1010.93 97.7039M1045.05 104.266V99.4294M1045.05 99.4294L1045.16 99.3757M1045.05 99.4294V97.7039M1010.93 97.7039L1023.7 90.7989M1010.93 97.7039H1045.05M1023.7 90.7989L1037.16 83.5229M1023.7 90.7989H1045.05M1037.16 83.5229H1045.05M1037.16 83.5229L1045.05 79.2545M1045.05 90.7989V83.5229M1045.05 90.7989V97.7039M1045.05 83.5229V79.2545M1045.05 79.2545V75.8448M1045.05 75.8448V67.7311M1045.05 59.1434V67.7311M968.132 177.516L976.197 174.181M945.57 186.845H920.693M945.57 186.845L938.544 189.748M920.693 186.845L914.087 189.748M938.544 189.748H914.087M1045.05 174.181V177.516M1045.05 177.516V178.11M1002.24 163.411L1011.61 159.541M1040.37 159.541H1011.61M1040.37 159.541L1045.05 157.711M1040.37 159.541H1045.05M1045.05 163.411V159.541M1011.61 159.541L1021.34 155.516M1021.34 155.516L1031.47 151.328M1021.34 155.516H1045.05M1031.47 151.328L1042.02 146.966M1031.47 151.328H1045.05M1045.05 155.516V151.328M1045.05 155.516V157.711M1045.05 157.711V159.541M1042.02 146.966L1045.05 145.712M1042.02 146.966H1045.05M1045.05 151.328V146.966M1045.05 145.712V142.42M1045.05 145.712V146.966M1045.05 137.676V132.724M1045.05 137.676V142.42M1045.05 142.42H1045.22M1045.05 132.724V132.213M1045.05 132.213L1045.33 132.089M1045.05 180.735V178.11M1045.05 180.735V183.842M1020.2 186.845L1011.93 189.748M1020.2 186.845H1045.05M1045.05 183.842V186.845M1011.93 189.748H1036.4M1045.05 186.845H1045.07L1045.05 186.852M1045.05 186.845V186.852M522.667 189.748H547.131M1036.4 189.748L1045.05 186.852M1036.4 189.748H1045.05M1045.05 186.852V189.748M8.93398 189.748L0.280934 186.852M8.93398 189.748H0.280208M0.280934 186.852L0.280208 189.748M0.280934 186.852L0.259156 186.845H0.280934M0.280934 186.852V186.845" stroke="url(#paint0_linear_22005_22)" stroke-width="0.725927" stroke-miterlimit="10" stroke-linecap="round" stroke-linejoin="round"/>
<path d="M0 -6.10352e-05H1045.33V128.489H0V-6.10352e-05Z" fill="url(#paint1_linear_22005_22)"/>
</g>
</g>
</g>
<defs>
<linearGradient id="paint0_linear_22005_22" x1="522.667" y1="195.274" x2="522.667" y2="-65.6964" gradientUnits="userSpaceOnUse">
<stop stop-color="#CED2DF" stop-opacity="0"/>
<stop offset="1" stop-color="#8791AB"/>
</linearGradient>
<linearGradient id="paint1_linear_22005_22" x1="522.667" y1="18.874" x2="522.667" y2="172.408" gradientUnits="userSpaceOnUse">
<stop stop-color="#F7F8FA"/>
<stop offset="1" stop-color="#F7F8FA" stop-opacity="0"/>
</linearGradient>
<clipPath id="clip0_22005_22">
<rect width="1045.33" height="207.615" fill="white"/>
</clipPath>
<clipPath id="clip1_22005_22">
<rect width="1045.33" height="207.615" fill="white"/>
</clipPath>
</defs>
</svg>
